<svg width="512" height="512" viewBox="0 0 512 512" fill="none" xmlns="http://www.w3.org/2000/svg">
<g filter="url(#filter0_d_102_2)">
<g filter="url(#filter1_d_102_2)">
<path d="M233.456 270.697C233.593 270.565 233.72 270.419 233.836 270.259C234.389 269.49 234.691 268.498 234.687 267.473C234.68 266.497 234.435 265.546 233.984 264.743C233.476 263.86 232.727 263.23 231.873 262.967L231.72 262.933L227.812 248.266C226.923 245.017 226.127 242.045 225.423 239.353C224.697 236.567 223.992 234.211 223.307 232.284C222.727 230.545 221.964 228.907 221.038 227.41C219.745 225.418 218.372 225 217.447 225C216.143 225 214.946 225.822 213.879 227.444C212.942 228.962 212.161 230.616 211.553 232.368C210.827 234.332 210.09 236.658 209.318 239.332C208.547 242.006 207.798 244.854 206.975 248.009L198.092 281.84C198.03 282.187 198 282.542 198.001 282.898C197.989 283.505 198.092 284.107 198.301 284.657C198.511 285.207 198.822 285.689 199.209 286.067C199.859 286.68 200.658 287.009 201.478 287C202.471 287 203.923 286.54 205.183 284.388C205.305 284.177 205.397 283.941 205.455 283.692L208.479 271.561H225.951L228.589 284.145C228.887 284.948 229.371 285.626 229.982 286.093C230.592 286.56 231.302 286.796 232.021 286.77C234.25 286.77 235.771 285.127 235.992 282.48C236.013 282.2 235.994 281.917 235.935 281.645L233.456 270.697ZM218.746 245.356L222.462 258.914C222.763 260.091 223.029 261.219 223.341 262.313H211.094L217.237 239.959C217.68 241.588 218.183 243.382 218.746 245.342V245.356Z" fill="white"/>
</g>
<g filter="url(#filter2_d_102_2)">
<path d="M259.825 266.441C259.953 263.332 260.074 260.02 260.195 256.554L260.783 237.857C260.821 236.457 260.851 235.231 260.874 234.195C261.229 234.195 261.629 234.195 262.036 234.195C263.833 234.265 265.387 234.342 266.716 234.433C269.478 234.608 271.577 233.089 271.999 230.085C272.019 228.962 271.603 227.871 270.827 227.009C270.051 226.148 268.967 225.574 267.773 225.393C267.018 225.295 265.908 225.19 264.346 225.064C262.783 224.938 256.957 225.001 247.439 225.232C242.276 225.099 237.408 225.428 236.494 228.733C235.74 231.611 236.811 233.033 237.861 233.719C238.962 234.455 240.33 234.761 241.672 234.573C242.517 234.483 243.366 234.434 244.216 234.426L249.205 234.356H250.964C250.964 234.762 250.964 235.196 250.964 235.672C250.964 237.255 250.896 239.097 250.813 241.218L250.058 260.629C249.801 266.446 249.63 270.722 249.545 273.457C249.484 275.04 249.424 276.424 249.363 277.61C244.986 277.54 242.17 277.512 240.895 277.512C239.905 277.503 238.93 277.732 238.064 278.177C237.121 278.66 236.004 279.703 236.004 281.874C235.959 282.854 236.253 285.263 240.012 286.454C240.254 286.535 240.509 286.58 240.767 286.587L266.814 286.993C267.428 287.026 268.042 286.945 268.622 286.754C269.201 286.564 269.734 286.267 270.188 285.883C270.642 285.499 271.009 285.034 271.267 284.517C271.525 283.999 271.669 283.438 271.69 282.868C271.775 282.261 271.724 281.644 271.539 281.056C271.355 280.468 271.041 279.921 270.618 279.451C270.086 278.935 269.445 278.526 268.734 278.251C268.024 277.976 267.259 277.841 266.489 277.855L259.251 277.757C259.342 276.874 259.41 275.873 259.47 274.76C259.583 272.33 259.712 269.55 259.825 266.441Z" fill="white"/>
</g>
<g filter="url(#filter3_d_102_2)">
<path d="M389.828 315.315C388.515 307.661 387.205 300.011 385.898 292.365C384.668 285.215 381.148 278.335 376.118 273.245C371.128 268.145 365.038 265.255 359.188 265.195C345.388 265.068 331.585 264.945 317.778 264.825C317.218 259.845 316.658 254.868 316.098 249.895C329.685 250.008 343.278 250.121 356.878 250.235C362.658 250.275 367.748 247.485 370.998 242.465C374.218 237.435 375.328 230.605 374.108 223.465C372.801 215.805 371.495 208.151 370.188 200.505C375.508 198.885 379.708 194.675 381.948 188.685C384.178 182.685 384.308 175.335 382.318 168.005C380.338 160.685 376.418 153.905 371.348 148.985C366.338 144.065 360.568 141.325 355.108 141.305C349.688 141.285 344.908 143.975 341.618 148.855C338.298 153.735 336.688 160.465 337.118 167.765C337.528 175.065 340.008 182.425 344.118 188.445C348.278 194.475 353.798 198.745 359.638 200.435C360.878 208.081 362.121 215.731 363.368 223.385C363.938 226.945 363.368 230.345 361.768 232.845C360.148 235.345 357.648 236.745 354.798 236.735C341.378 236.628 327.971 236.521 314.578 236.415C312.525 218.088 310.488 199.761 308.468 181.435C307.758 175.025 305.218 168.875 301.428 164.325C297.688 159.785 292.998 157.225 288.368 157.205C275.155 157.171 261.955 157.138 248.768 157.105C248.242 140.425 247.732 123.745 247.238 107.065C247.138 103.515 247.998 100.125 249.608 97.6247C251.208 95.1247 253.438 93.7147 255.818 93.7147C260.912 93.708 266.008 93.7014 271.108 93.6947C272.588 100.815 275.798 107.075 280.138 111.295C284.528 115.515 289.708 117.395 294.658 116.555C299.598 115.735 303.898 112.245 306.718 106.765C309.518 101.305 310.668 94.2247 309.988 86.9047C309.348 79.5647 306.998 72.5047 303.398 67.0547C299.868 61.6047 295.288 58.1447 290.528 57.3347C285.758 56.5247 281.098 58.3947 277.398 62.6147C273.688 66.8447 271.208 73.1247 270.448 80.2547C265.415 80.268 260.385 80.278 255.358 80.2847C250.658 80.3047 246.228 83.1347 243.008 88.1547C239.758 93.1747 237.998 99.9747 238.128 107.065C238.442 123.725 238.761 140.388 239.088 157.055C235.521 157.048 231.952 157.038 228.378 157.025C228.272 140.371 228.158 123.721 228.038 107.075C227.968 99.9847 226.028 93.2047 222.648 88.1947C219.298 83.1947 214.798 80.3847 210.098 80.3947C205.065 80.4014 200.035 80.4114 195.008 80.4247C194.048 73.3247 191.408 67.0847 187.588 62.8947C183.778 58.7147 179.068 56.8847 174.328 57.7147C169.578 58.5547 165.098 62.0147 161.708 67.4647C158.248 72.8947 156.088 79.9147 155.638 87.1847C155.148 94.4547 156.488 101.455 159.428 106.875C162.388 112.305 166.788 115.755 171.748 116.575C176.718 117.405 181.848 115.545 186.128 111.345C190.358 107.145 193.398 100.905 194.698 93.8147C199.791 93.8014 204.888 93.7914 209.988 93.7847C212.358 93.7847 214.618 95.1847 216.288 97.6747C217.968 100.165 218.908 103.545 218.908 107.085C218.855 123.725 218.785 140.365 218.698 157.005C205.525 156.971 192.335 156.938 179.128 156.905C174.488 156.905 169.868 159.415 166.248 163.895C162.568 168.375 160.198 174.455 159.658 180.795C158.118 198.928 156.562 217.061 154.988 235.195C141.588 235.088 128.172 234.985 114.738 234.885C111.888 234.845 109.338 233.435 107.658 230.945C105.988 228.455 105.338 225.085 105.828 221.585C106.875 214.058 107.918 206.531 108.958 199.005C114.738 197.415 120.158 193.275 124.158 187.375C128.118 181.465 130.398 174.235 130.628 167.025C130.858 159.825 129.078 153.165 125.628 148.335C122.218 143.495 117.358 140.815 111.948 140.795C106.478 140.765 100.778 143.405 95.8982 148.205C90.9482 152.985 87.2082 159.605 85.4282 166.785C83.6382 173.965 83.9382 181.205 86.3282 187.135C88.7282 193.075 93.0382 197.265 98.4082 198.935C97.3015 206.461 96.1948 213.985 95.0882 221.505C94.0482 228.515 95.3382 235.275 98.6882 240.275C102.058 245.275 107.228 248.125 113.018 248.175C126.618 248.288 140.211 248.401 153.798 248.515C153.365 253.448 152.931 258.381 152.498 263.315C138.691 263.188 124.892 263.061 111.098 262.935C105.228 262.895 99.2182 265.635 94.3582 270.575C89.4682 275.505 86.1182 282.215 85.0782 289.245C83.9715 296.765 82.8648 304.281 81.7582 311.795C75.4282 313.365 69.4482 317.475 64.9282 323.345C60.3982 329.215 57.6482 336.425 57.2082 343.625C56.7782 350.815 58.7382 357.485 62.7582 362.345C66.8282 367.215 72.6982 369.955 79.2482 370.035C85.8382 370.125 92.5482 367.545 98.0882 362.775C103.608 358.025 107.528 351.415 109.118 344.235C110.708 337.035 109.928 329.765 106.958 323.805C104.038 317.845 99.1682 313.615 93.2582 311.925C94.3048 304.398 95.3515 296.875 96.3982 289.355C96.8782 285.845 98.5182 282.495 100.958 280.045C103.388 277.585 106.408 276.215 109.368 276.245C123.342 276.378 137.328 276.515 151.328 276.655C149.755 294.788 148.198 312.915 146.658 331.035C146.138 337.395 147.928 343.495 151.678 348.035C155.468 352.585 160.898 355.185 166.748 355.265C183.521 355.498 200.308 355.728 217.108 355.955C217.022 372.595 216.952 389.238 216.898 405.885C216.878 409.415 215.518 412.775 213.088 415.235C210.648 417.685 207.348 419.035 203.908 418.995C196.535 418.875 189.162 418.758 181.788 418.645C180.378 411.515 176.518 405.215 170.938 400.925C165.408 396.645 158.538 394.685 151.578 395.405C144.618 396.125 138.008 399.475 132.988 404.835C127.938 410.185 124.848 417.145 124.368 424.425C123.918 431.695 126.168 438.745 130.708 444.255C135.298 449.765 141.818 453.335 148.998 454.275C156.188 455.225 163.478 453.485 169.478 449.375C175.458 445.275 179.718 439.095 181.488 432.025C188.935 432.145 196.382 432.265 203.828 432.385C210.788 432.495 217.458 429.785 222.348 424.855C227.208 419.925 229.898 413.175 229.858 406.085C229.732 389.438 229.615 372.798 229.508 356.165C234.068 356.225 238.631 356.288 243.198 356.355C243.525 373.008 243.845 389.668 244.158 406.335C244.288 413.415 247.158 420.255 252.148 425.345C257.178 430.445 263.918 433.365 270.878 433.505C278.325 433.625 285.775 433.745 293.228 433.865C295.168 441.005 299.598 447.345 305.688 451.655C311.808 455.975 319.138 457.955 326.308 457.245C333.458 456.545 339.898 453.175 344.338 447.795C348.738 442.405 350.808 435.385 350.168 428.055C349.488 420.715 346.218 413.605 341.018 408.065C335.858 402.515 329.158 398.945 322.178 398.015C315.198 397.075 308.378 398.835 302.958 402.975C297.488 407.105 293.788 413.315 292.568 420.425C285.188 420.305 277.802 420.188 270.408 420.075C266.968 420.005 263.628 418.555 261.128 416.015C258.628 413.485 257.178 410.065 257.078 406.535C256.585 389.861 256.078 373.191 255.558 356.525C272.358 356.751 289.145 356.978 305.918 357.205C311.778 357.265 317.128 354.795 320.808 350.315C324.428 345.835 326.068 339.725 325.378 333.325C323.358 314.978 321.321 296.638 319.268 278.305C333.275 278.445 347.265 278.581 361.238 278.715C364.188 278.735 367.238 280.185 369.738 282.715C372.238 285.265 373.978 288.685 374.558 292.245C375.805 299.891 377.048 307.538 378.288 315.185C372.418 316.785 367.658 320.955 364.898 326.925C362.088 332.885 361.498 340.215 363.278 347.535C365.058 354.845 369.148 361.625 374.798 366.575C380.458 371.535 387.248 374.325 393.838 374.415C400.388 374.495 406.178 371.865 410.128 367.015C414.018 362.175 415.808 355.445 415.188 348.135C414.558 340.825 411.618 333.445 406.928 327.385C402.248 321.325 396.158 317.035 389.798 315.315C389.805 315.315 389.815 315.315 389.828 315.315ZM347.578 171.275C347.088 168.015 347.318 164.835 348.248 162.135C349.178 159.435 350.758 157.345 352.808 156.105C354.848 154.865 357.268 154.555 359.768 155.205C362.288 155.855 364.768 157.435 366.908 159.735C369.058 162.055 370.768 164.995 371.808 168.185C372.868 171.385 373.198 174.695 372.768 177.705C372.318 180.695 371.138 183.255 369.358 185.055C367.568 186.855 365.278 187.805 362.768 187.795C359.398 187.755 355.908 185.995 353.068 182.895C350.238 179.805 348.278 175.625 347.608 171.275C347.595 171.275 347.585 171.275 347.578 171.275ZM289.018 70.5847C291.138 70.5647 293.278 71.5247 295.158 73.3047C297.058 75.1047 298.618 77.6647 299.658 80.6547C300.718 83.6447 301.188 86.9347 301.018 90.1147C300.858 93.2947 300.048 96.2147 298.698 98.5147C297.338 100.795 295.488 102.355 293.378 102.995C291.278 103.625 289.018 103.305 286.898 102.065C284.788 100.825 282.928 98.7247 281.548 96.0347C280.178 93.3447 279.348 90.1947 279.168 86.9547C278.928 82.6147 279.838 78.4647 281.698 75.3947C283.538 72.3247 286.168 70.5847 289.018 70.5847ZM174.828 103.425C172.628 103.425 170.528 102.465 168.808 100.695C167.078 98.9047 165.808 96.3647 165.148 93.3947C164.478 90.4347 164.438 87.1547 165.028 84.0047C165.598 80.8547 166.768 77.9447 168.388 75.6647C169.988 73.3847 171.968 71.8347 174.068 71.1947C176.168 70.5647 178.328 70.8747 180.248 72.0947C182.178 73.3347 183.798 75.4147 184.908 78.0847C186.018 80.7647 186.558 83.9047 186.458 87.1347C186.318 91.4447 185.018 95.5847 182.848 98.6347C180.658 101.685 177.768 103.405 174.828 103.425ZM95.1882 170.285C95.6782 167.085 96.8882 163.955 98.6782 161.305C100.458 158.645 102.708 156.595 105.168 155.375C107.598 154.165 110.138 153.855 112.428 154.495C114.728 155.125 116.708 156.675 118.118 158.955C119.548 161.235 120.338 164.115 120.398 167.265C120.478 170.405 119.808 173.665 118.468 176.615C117.138 179.565 115.188 182.085 112.878 183.855C110.558 185.615 107.978 186.555 105.468 186.535C102.098 186.505 99.1082 184.775 97.1782 181.735C95.2482 178.685 94.5382 174.565 95.1882 170.285ZM97.7982 340.685C97.3782 343.885 96.1182 347.005 94.1782 349.645C92.2282 352.295 89.6782 354.335 86.8582 355.535C84.0282 356.725 81.0582 357.005 78.3382 356.345C75.6282 355.685 73.2882 354.115 71.6082 351.835C69.9582 349.545 69.0382 346.655 68.9582 343.505C68.8882 340.365 69.6682 337.115 71.1782 334.175C72.7082 331.225 74.8882 328.725 77.4782 326.975C80.0582 325.215 82.9282 324.305 85.7182 324.335C89.4682 324.375 92.8382 326.125 95.0982 329.185C97.3682 332.255 98.3482 336.385 97.7982 340.685ZM152.798 441.185C149.608 441.125 146.538 440.115 143.958 438.295C141.388 436.465 139.448 433.895 138.378 430.895C137.308 427.905 137.168 424.625 137.958 421.485C138.748 418.335 140.418 415.465 142.758 413.225C145.088 410.985 147.978 409.485 151.068 408.905C154.148 408.315 157.298 408.685 160.118 409.975C162.958 411.245 165.338 413.375 166.968 416.075C168.608 418.785 169.448 421.945 169.328 425.165C169.198 429.485 167.388 433.585 164.298 436.585C161.198 439.585 157.068 441.235 152.798 441.185ZM319.948 411.225C323.058 411.255 326.168 412.275 328.908 414.105C331.648 415.945 333.888 418.535 335.328 421.545C336.778 424.555 337.358 427.865 336.998 431.035C336.628 434.185 335.318 437.095 333.228 439.335C331.138 441.595 328.378 443.105 325.298 443.685C322.208 444.265 318.948 443.895 315.948 442.615C312.928 441.325 310.308 439.185 308.398 436.465C306.488 433.745 305.378 430.575 305.198 427.335C304.948 422.995 306.368 418.865 309.148 415.845C311.888 412.825 315.768 411.155 319.948 411.225ZM313.428 333.135C313.698 335.985 312.948 338.695 311.328 340.685C309.718 342.675 307.358 343.775 304.788 343.755C259.048 343.155 213.301 342.555 167.548 341.955C164.988 341.915 162.598 340.765 160.918 338.745C159.248 336.725 158.428 334.015 158.628 331.185C162.321 281.085 166.015 230.978 169.708 180.865C169.898 178.045 170.928 175.345 172.558 173.355C174.168 171.365 176.248 170.255 178.348 170.255C215.388 170.381 252.428 170.505 289.468 170.625C291.558 170.635 293.668 171.775 295.338 173.795C297.018 175.805 298.118 178.545 298.398 181.395C303.405 231.975 308.415 282.555 313.428 333.135ZM391.638 360.835C388.758 360.805 385.798 359.795 383.118 357.975C380.438 356.135 378.168 353.545 376.608 350.525C375.038 347.505 374.248 344.195 374.308 341.005C374.378 337.815 375.278 334.905 376.908 332.625C378.548 330.355 380.818 328.815 383.468 328.205C386.108 327.605 388.998 327.955 391.798 329.235C394.588 330.515 397.158 332.645 399.178 335.375C401.198 338.105 402.588 341.285 403.158 344.555C403.918 348.915 403.148 353.075 400.998 356.125C398.838 359.175 395.478 360.875 391.638 360.835Z" fill="white"/>
</g>
</g>
<defs>
<filter id="filter0_d_102_2" x="-4" y="0" width="520" height="520" filterUnits="userSpaceOnUse" color-interpolation-filters="sRGB">
<feFlood flood-opacity="0" result="BackgroundImageFix"/>
<feColorMatrix in="SourceAlpha" type="matrix" values="0 0 0 0 0 0 0 0 0 0 0 0 0 0 0 0 0 0 127 0" result="hardAlpha"/>
<feOffset dy="4"/>
<feGaussianBlur stdDeviation="2"/>
<feComposite in2="hardAlpha" operator="out"/>
<feColorMatrix type="matrix" values="0 0 0 0 0 0 0 0 0 0 0 0 0 0 0 0 0 0 0.25 0"/>
<feBlend mode="normal" in2="BackgroundImageFix" result="effect1_dropShadow_102_2"/>
<feBlend mode="normal" in="SourceGraphic" in2="effect1_dropShadow_102_2" result="shape"/>
</filter>
<filter id="filter1_d_102_2" x="194" y="225" width="46" height="70" filterUnits="userSpaceOnUse" color-interpolation-filters="sRGB">
<feFlood flood-opacity="0" result="BackgroundImageFix"/>
<feColorMatrix in="SourceAlpha" type="matrix" values="0 0 0 0 0 0 0 0 0 0 0 0 0 0 0 0 0 0 127 0" result="hardAlpha"/>
<feOffset dy="4"/>
<feGaussianBlur stdDeviation="2"/>
<feComposite in2="hardAlpha" operator="out"/>
<feColorMatrix type="matrix" values="0 0 0 0 0 0 0 0 0 0 0 0 0 0 0 0 0 0 0.25 0"/>
<feBlend mode="normal" in2="BackgroundImageFix" result="effect1_dropShadow_102_2"/>
<feBlend mode="normal" in="SourceGraphic" in2="effect1_dropShadow_102_2" result="shape"/>
</filter>
<filter id="filter2_d_102_2" x="232" y="225" width="44" height="70" filterUnits="userSpaceOnUse" color-interpolation-filters="sRGB">
<feFlood flood-opacity="0" result="BackgroundImageFix"/>
<feColorMatrix in="SourceAlpha" type="matrix" values="0 0 0 0 0 0 0 0 0 0 0 0 0 0 0 0 0 0 127 0" result="hardAlpha"/>
<feOffset dy="4"/>
<feGaussianBlur stdDeviation="2"/>
<feComposite in2="hardAlpha" operator="out"/>
<feColorMatrix type="matrix" values="0 0 0 0 0 0 0 0 0 0 0 0 0 0 0 0 0 0 0.25 0"/>
<feBlend mode="normal" in2="BackgroundImageFix" result="effect1_dropShadow_102_2"/>
<feBlend mode="normal" in="SourceGraphic" in2="effect1_dropShadow_102_2" result="shape"/>
</filter>
<filter id="filter3_d_102_2" x="53.1499" y="57.1499" width="366.159" height="408.236" filterUnits="userSpaceOnUse" color-interpolation-filters="sRGB">
<feFlood flood-opacity="0" result="BackgroundImageFix"/>
<feColorMatrix in="SourceAlpha" type="matrix" values="0 0 0 0 0 0 0 0 0 0 0 0 0 0 0 0 0 0 127 0" result="hardAlpha"/>
<feOffset dy="4"/>
<feGaussianBlur stdDeviation="2"/>
<feComposite in2="hardAlpha" operator="out"/>
<feColorMatrix type="matrix" values="0 0 0 0 0 0 0 0 0 0 0 0 0 0 0 0 0 0 0.25 0"/>
<feBlend mode="normal" in2="BackgroundImageFix" result="effect1_dropShadow_102_2"/>
<feBlend mode="normal" in="SourceGraphic" in2="effect1_dropShadow_102_2" result="shape"/>
</filter>
</defs>
</svg>
