<svg width="373" height="293" viewBox="0 0 373 293" fill="none" xmlns="http://www.w3.org/2000/svg">
<path d="M65 77L61.5 34L154 66L245.5 8.5L246.5 43L318.5 39.5L316 79L364 93L359.5 135L371.5 138L367 181.5L359.5 202L324 195.5L333.5 204L329.5 247L309 261.5L278.5 241L247 253.5L244.5 286.5L213.5 292L202 263L155 260.5L140 289L110.5 281L107.5 245L83 232.5L52 250.5L34.5 234.5L29.5 191L46 183.5L11 188L5 146.5L18 123.5L13 82L65 77Z" fill="#B6B6B6" stroke="black"/>
<path d="M153.5 217C149.5 223.833 141 239 139 245L108 236.5L119.5 208.5L80 189.5L48.5 206.5L29 190.5L58 170L42.5 141.5L4.5 146L1.5 126.5L37.5 118L42.5 91L13 81.5L23.5 65L55 70.5L79 48.5L62 33L82.5 21L104 35.5L139.5 25.5L135.5 6L161 1.5L169.5 21H210L219.5 3L246 8L239 28L276 40.5L298.5 28L318.5 39L298.5 54.5L321.5 78.5L355.5 75.5L364 93L331 99L335 129L371 137.5L364 158.5L326 152L306.5 178.5L332.5 201.5L312.5 217L280 197L239 214.5L246 243L214 248L203 219L153.5 217Z" fill="#D9D9D9" stroke="black"/>
</svg>
