<svg width="264" height="190" viewBox="0 0 264 190" fill="none" xmlns="http://www.w3.org/2000/svg">
<path d="M152 185L124 189L116.5 166.5L79.5 160.5L50.5 176.5L32.5 166.5L26 135.5L39 123.5H8L1.5 92.5L45.5 83.5L35.5 35.5L60 47.5L224 18L227.5 46L219.5 52.5L260 67L263 95.5L231.5 103L226.5 109L237.5 114L235.5 140.5L216.5 154.5L192.5 149.5L157.5 162.5L152 185Z" fill="#575757" stroke="black"/>
<path d="M221 127.5L192.5 117.5L152.5 131.5L146.5 155L118 157.5L111.5 136L73 130L43.5 145L26.5 134.5L45.5 114L33 93.5L2 92.5L3 77.5L36.5 70L51.5 48L36.5 35.5L54.5 23.5L78.5 31L113 21L119.5 3L143 1L149.5 17.5L182.5 21L208 9L223.5 17.5L210 33L225.5 51.5H257L260 66.5L228 74L216 97.5L237 113L221 127.5Z" fill="#969696" stroke="black"/>
</svg>
