<svg fill="#999" xmlns="http://www.w3.org/2000/svg"  viewBox="0 0 128 128" width="128px" height="128px"><path d="M 64 1 C 29.3 1 1 29.3 1 64 C 1 98.7 29.3 127 64 127 C 98.7 127 127 98.7 127 64 C 127 29.3 98.7 1 64 1 z M 64 7 C 95.4 7 121 32.6 121 64 C 121 95.4 95.4 121 64 121 C 32.6 121 7 95.4 7 64 C 7 32.6 32.6 7 64 7 z M 93.775391 38 C 93.000391 38.05 92.249219 38.4 91.699219 39 L 63.800781 71.599609 L 51.099609 58.900391 C 49.899609 57.700391 48.000391 57.700391 46.900391 58.900391 C 45.700391 60.100391 45.700391 61.999609 46.900391 63.099609 L 61.900391 78.099609 C 62.500391 78.699609 63.2 79 64 79 L 64.099609 79 C 64.899609 79 65.700781 78.6 66.300781 78 L 96.300781 43 C 97.400781 41.7 97.2 39.800781 96 38.800781 C 95.35 38.200781 94.550391 37.95 93.775391 38 z"/></svg>