<svg width="129" height="141" viewBox="0 0 129 141" fill="none" xmlns="http://www.w3.org/2000/svg">
<g filter="url(#filter0_d_102_164)">
<path d="M117.22 63.8434C114.945 63.8803 113.388 65.9439 113.756 68.4589C114.023 70.3383 114.199 72.19 114.291 74.0233C114.392 75.8658 114.383 77.6714 114.3 79.4587C114.208 81.2367 114.033 82.9871 113.775 84.7006C113.508 86.4141 113.158 88.0908 112.725 89.7491C112.282 91.3889 111.757 92.9827 111.14 94.5396C110.523 96.0965 109.823 97.6166 109.04 99.0814C108.256 100.555 107.381 101.974 106.423 103.328C105.456 104.701 104.406 106.009 103.282 107.262C102.149 108.515 100.942 109.713 99.6519 110.846C98.3622 111.979 96.9987 113.048 95.5616 114.043C94.1244 115.056 92.6136 115.986 91.0474 116.843C89.4721 117.718 87.8507 118.501 86.174 119.22C84.4789 119.929 82.747 120.574 80.9597 121.136C79.1817 121.68 77.3484 122.159 75.4783 122.555C73.6081 122.942 71.7011 123.246 69.7665 123.458C67.8319 123.67 65.8696 123.799 63.8797 123.826C61.8714 123.854 59.9275 123.78 57.9837 123.624C56.0491 123.467 54.1421 123.2 52.2719 122.868C50.4018 122.527 48.5777 122.103 46.7997 121.597C45.0124 121.09 43.2805 120.5 41.5854 119.828C39.9087 119.165 38.2873 118.418 36.712 117.599C35.155 116.779 33.6442 115.885 32.207 114.927C30.7699 113.969 29.4064 112.937 28.1259 111.841C26.8361 110.744 25.6385 109.584 24.5054 108.368C23.3814 107.152 22.3404 105.88 21.3731 104.544C20.4242 103.218 19.549 101.827 18.766 100.39C17.9829 98.9432 17.292 97.46 16.6747 95.9215C16.0667 94.383 15.5416 92.8168 15.1086 91.1954C14.6756 89.5648 14.3255 87.9066 14.0584 86.193C13.8096 84.4979 13.6346 82.766 13.5425 80.9972C13.4688 79.2191 13.4595 77.4227 13.5517 75.5894C13.653 73.7561 13.828 71.9044 14.1044 70.025C14.3808 68.1273 14.7401 66.2848 15.1731 64.4515C15.6061 62.6182 16.122 60.8033 16.7024 59.0253C17.2827 57.2381 17.9368 55.4877 18.637 53.7741C19.3556 52.0606 20.1294 50.3839 20.9585 48.7349C21.7785 47.0951 22.6536 45.4921 23.5933 43.9352C24.5054 42.3783 25.4819 40.8582 26.4953 39.3934C27.4902 37.9194 28.5405 36.5007 29.6183 35.1464C30.687 33.7738 31.7925 32.4656 32.9256 31.2127C34.0495 29.9598 35.2011 28.7621 36.3895 27.629C37.5411 26.4959 38.7479 25.4272 39.9732 24.4322C41.1893 23.4189 42.4237 22.4884 43.6858 21.6316C44.9387 20.7565 46.2101 19.9734 47.509 19.2548C48.808 18.5454 50.1162 17.9006 51.4612 17.3386C52.7878 16.7951 54.1421 16.316 55.5239 15.9199C56.8966 15.5329 58.2877 15.2289 59.6972 15.017C61.1067 14.8052 62.5255 14.6762 63.981 14.6485C65.7867 14.6117 67.5831 14.7315 69.3519 14.9894C71.1207 15.2566 72.8619 15.6527 74.5847 16.1963C76.2982 16.7306 78.0025 17.4123 79.67 18.2138C81.3374 19.0245 82.9773 19.9642 84.5895 21.0328C86.2017 22.1015 87.7862 23.2899 89.3339 24.5981C90.8908 25.9155 92.4293 27.3434 93.9033 28.8911C95.405 30.4296 96.8698 32.0971 98.2793 33.8567C99.7072 35.6255 101.08 37.4956 102.379 39.4763C103.798 41.586 106.294 42.1756 107.934 40.8121C109.574 39.4302 109.712 36.6204 108.266 34.5108C107.483 33.35 106.681 32.226 105.852 31.1298C105.041 30.0519 104.212 28.9832 103.374 27.9514C102.545 26.9288 101.688 25.9247 100.84 24.9666C99.9836 23.99 99.1268 23.0596 98.2516 22.1568C97.3949 21.2539 96.5197 20.3787 95.6445 19.5588C94.7693 18.7205 93.8849 17.9282 92.9913 17.1636C92.1069 16.3897 91.2041 15.6711 90.3012 14.971C89.3984 14.2708 88.4956 13.6167 87.5651 12.9995C86.6439 12.3823 85.7226 11.7927 84.7829 11.2399C83.8525 10.6964 82.9128 10.1897 81.9547 9.71984C80.9966 9.24079 80.0385 8.81702 79.0712 8.42088C78.1038 8.02474 77.1273 7.67466 76.1416 7.36144C75.1558 7.039 74.1609 6.77184 73.1659 6.53231C72.1525 6.302 71.1576 6.10853 70.135 5.95192C69.1308 5.80452 68.1082 5.70318 67.0764 5.6387C66.0539 5.565 65.0221 5.54657 63.981 5.565C62.3228 5.59263 60.6922 5.74003 59.0708 5.97956C57.4586 6.23751 55.8556 6.58759 54.2802 7.039C52.7049 7.49041 51.148 8.04316 49.6279 8.70647C48.0986 9.35134 46.597 10.0883 45.1138 10.9267C43.6398 11.765 42.175 12.6863 40.747 13.6904C39.3007 14.6946 37.9004 15.7909 36.5185 16.9609C35.1182 18.1309 33.7547 19.3838 32.4097 20.7012C31.0463 22.0278 29.7104 23.4189 28.4023 24.8745C27.0849 26.3392 25.7859 27.8685 24.5238 29.4623C23.2432 31.0561 21.9996 32.7051 20.7927 34.4186C19.5859 36.1229 18.4251 37.8825 17.3196 39.7066C16.1957 41.5307 15.1362 43.4008 14.1413 45.317C13.1371 47.2333 12.2066 49.1955 11.3591 51.1946C10.4931 53.1938 9.70083 55.2389 9.00068 57.3118C8.29132 59.3938 7.66486 61.5127 7.13054 63.65C6.59621 65.7873 6.15401 67.9614 5.81315 70.154C5.46307 72.3558 5.22355 74.5023 5.07615 76.6489C4.94717 78.777 4.91032 80.8866 4.97481 82.9502C5.04851 85.023 5.22355 87.0498 5.49992 89.0305C5.76708 91.0112 6.13559 92.955 6.61464 94.8528C7.09369 96.7414 7.67408 98.5839 8.3558 100.371C9.02832 102.168 9.8206 103.9 10.6958 105.585C11.5894 107.262 12.5844 108.883 13.6714 110.431C14.7769 111.988 15.9838 113.481 17.2827 114.89C18.6001 116.318 20.0189 117.672 21.5297 118.944C23.059 120.224 24.6712 121.422 26.3663 122.546C28.0706 123.67 29.8486 124.701 31.7188 125.65C33.5797 126.608 35.5235 127.493 37.5042 128.267C39.5126 129.05 41.567 129.741 43.6766 130.33C45.7863 130.92 47.9512 131.417 50.1623 131.813C52.3733 132.21 54.6303 132.504 56.915 132.679C59.1997 132.873 61.5213 132.956 63.8797 132.928C66.2289 132.901 68.532 132.744 70.8352 132.495C73.1107 132.256 75.3769 131.896 77.5879 131.445C79.7989 130.994 81.9639 130.441 84.0736 129.787C86.174 129.133 88.2376 128.386 90.246 127.548C92.2451 126.719 94.1705 125.779 96.0406 124.784C97.8923 123.78 99.6796 122.693 101.393 121.514C103.088 120.353 104.71 119.1 106.239 117.783C107.75 116.456 109.168 115.065 110.504 113.61C111.803 112.136 113.019 110.606 114.134 109.012C115.23 107.428 116.225 105.77 117.119 104.065C118.003 102.352 118.786 100.583 119.468 98.7681C120.141 96.944 120.739 95.0831 121.218 93.1577C121.698 91.2415 122.075 89.2792 122.352 87.2801C122.628 85.281 122.803 83.2358 122.877 81.163C122.95 79.081 122.914 76.9529 122.775 74.8248C122.637 72.6783 122.407 70.5225 122.066 68.3299C121.67 65.8149 119.496 63.8066 117.22 63.8434Z" fill="white"/>
<path d="M17.6328 74.5023C17.2827 77.0265 18.9133 79.0349 21.2533 78.9796L25.9977 78.9243C26.5044 80.1864 27.0572 81.4393 27.6744 82.6646C28.3009 83.8807 28.9734 85.0783 29.692 86.2483C30.4198 87.4091 31.1844 88.5514 31.9951 89.6569C32.8058 90.7716 33.6534 91.8495 34.5285 92.8997C35.4222 93.95 36.3434 94.9726 37.2739 95.9583C38.2043 96.9348 39.1717 97.9021 40.1298 98.8142C41.1063 99.7354 42.0828 100.62 43.0686 101.458C44.0451 102.315 45.04 103.116 46.0074 103.899C47.9604 105.447 49.8582 106.838 51.627 108.064C53.405 109.28 55.0356 110.339 56.4544 111.214C59.301 112.965 61.2265 113.996 61.595 114.19C62.3043 114.558 63.0874 114.743 63.8889 114.733C64.6811 114.724 65.4734 114.522 66.1828 114.125C66.5421 113.923 68.4675 112.836 71.3234 111.012C72.7329 110.1 74.3727 108.985 76.1507 107.713C77.9196 106.442 79.8265 104.996 81.7796 103.384C82.7561 102.582 83.7419 101.744 84.7276 100.869C85.7133 99.9934 86.6899 99.0813 87.6664 98.1325C88.6337 97.1836 89.601 96.1978 90.5315 95.1844C91.462 94.1618 92.3832 93.1208 93.2676 92.0338C94.1612 90.9651 95.0088 89.8504 95.8287 88.7172C96.6302 87.5749 97.404 86.4141 98.1318 85.2165C98.8596 84.0281 99.5321 82.812 100.159 81.5591C100.776 80.3154 101.338 79.0533 101.854 77.7636L106.598 77.6714C108.938 77.653 110.55 75.5802 110.219 73.0744C109.869 70.5594 107.731 68.551 105.456 68.5879L104.203 68.6063C104.396 67.1139 104.516 65.6214 104.544 64.0922C104.562 62.5813 104.498 61.052 104.295 59.4859C104.065 57.6065 103.659 55.7732 103.107 54.0044C102.572 52.2264 101.9 50.5221 101.098 48.9007C100.306 47.2793 99.394 45.75 98.3898 44.3036C97.3948 42.8665 96.2985 41.5307 95.1285 40.2962C93.977 39.0894 92.7425 38.0023 91.4435 37.035C90.163 36.0677 88.8272 35.2477 87.4361 34.5844C86.0542 33.9211 84.6263 33.396 83.1707 33.0644C81.7059 32.7235 80.2135 32.5669 78.7026 32.5853C77.3207 32.613 75.9757 32.7972 74.6583 33.1196C73.3317 33.4513 72.0512 33.9303 70.8075 34.5476C69.5638 35.1464 68.3569 35.911 67.2146 36.7954C66.0722 37.6706 64.9759 38.6748 63.9626 39.7895C62.94 38.7116 61.8437 37.7443 60.7105 36.906C59.5682 36.0584 58.3706 35.3491 57.1177 34.7871C55.8832 34.2251 54.5934 33.7829 53.276 33.5066C51.9586 33.221 50.6044 33.092 49.241 33.1196C47.7209 33.1381 46.2285 33.35 44.7637 33.7461C43.2989 34.133 41.8709 34.7042 40.4891 35.4136C39.098 36.1321 37.7529 36.9889 36.4724 37.9931C35.1826 39.0064 33.9389 40.1396 32.7782 41.3833C31.6082 42.6454 30.5119 44.0089 29.5169 45.4829C28.5128 46.9476 27.6007 48.5138 26.7992 50.1536C25.9977 51.7934 25.316 53.5162 24.7817 55.2942C24.2289 57.0814 23.8328 58.9147 23.5841 60.8033C23.3906 62.3602 23.3077 63.8895 23.3261 65.3911C23.3538 66.9112 23.4735 68.4036 23.6578 69.8776L22.4049 69.8961C20.1202 69.9237 17.9828 71.9965 17.6328 74.5023ZM63.8981 104.885C62.4425 104.028 60.4065 102.757 58.0297 101.145C56.8505 100.343 55.5792 99.4498 54.2802 98.4733C52.9812 97.4968 51.6454 96.4466 50.282 95.3226C48.9369 94.1987 47.5827 92.9919 46.2469 91.7297C44.9203 90.4584 43.6121 89.141 42.3684 87.7499C41.1339 86.3588 39.9547 84.9033 38.8492 83.4108C37.7529 81.9092 36.758 80.3523 35.8459 78.7769C35.8459 78.7769 38.5913 78.7309 41.3274 78.6756C44.0727 78.6295 46.8181 78.5835 46.8181 78.5835C47.9512 78.5927 49.0659 78.086 49.895 77.22L53.9854 72.9454C53.9854 72.9454 54.3355 73.9403 54.8514 75.4696C55.3765 76.9989 56.0859 79.0257 56.8044 81.0616C57.5414 83.0884 58.2784 85.1151 58.8404 86.6352C59.4116 88.1645 59.7985 89.1871 59.7985 89.1871C60.3328 90.6058 61.5397 91.6192 63.0137 91.9048C63.2993 91.9508 63.6125 91.9969 63.9073 91.9877C65.0865 91.9693 66.2196 91.481 67.0396 90.5966C67.0396 90.5966 67.795 89.8227 68.9005 88.6528C70.006 87.4828 71.4616 85.9258 72.9079 84.3597C74.3174 82.8028 75.7454 81.2459 76.7956 80.0667C77.8366 78.8967 78.5276 78.1228 78.5276 78.1228C78.5276 78.1228 81.8994 78.0676 85.2619 78.0215C88.6245 77.9662 91.9871 77.8925 91.9871 77.8925C91.075 79.5231 90.0801 81.1169 88.9838 82.6554C87.8691 84.1847 86.6899 85.6771 85.4554 87.1051C84.2025 88.533 82.8943 89.9057 81.5677 91.2138C80.2319 92.5128 78.8684 93.7565 77.5234 94.9265C76.16 96.0965 74.8241 97.1836 73.516 98.1969C72.2078 99.2103 70.9457 100.141 69.7665 100.979C67.3804 102.665 65.3352 103.992 63.8981 104.885ZM31.6911 60.6743C31.9583 58.1593 32.6584 55.7548 33.681 53.5715C34.6944 51.3789 36.0394 49.3982 37.5963 47.7307C39.1348 46.054 40.8944 44.6998 42.7922 43.7509C44.6715 42.7836 46.6983 42.24 48.7803 42.2124C49.9964 42.1848 51.1756 42.3322 52.3179 42.6362C53.4511 42.931 54.5289 43.3916 55.5515 43.9996C56.5741 44.5985 57.5414 45.3447 58.4258 46.2199C59.3195 47.1043 60.1302 48.1176 60.8487 49.2692C62.2859 51.5539 65.5932 51.4986 67.0488 49.1587C67.7766 47.9887 68.5873 46.9476 69.4809 46.0356C70.3653 45.1236 71.3326 44.3405 72.3552 43.7048C73.3778 43.06 74.4648 42.5625 75.598 42.2308C76.7311 41.89 77.9195 41.7057 79.1356 41.6965C81.2176 41.6504 83.2352 42.1203 85.1145 43.0231C87.0123 43.9075 88.7719 45.2157 90.3012 46.8371C91.8673 48.4585 93.1939 50.4023 94.2073 52.5581C95.2207 54.723 95.9208 57.1091 96.188 59.6241C96.3538 61.1626 96.3538 62.6919 96.2341 64.2211C96.1235 65.7412 95.8748 67.2428 95.5339 68.7445C95.5339 68.7445 94.3363 68.7629 92.5398 68.7905C90.7434 68.8182 88.3481 68.855 85.9621 68.8919C83.5668 68.9287 81.1716 68.9748 79.3659 69.0024C77.5787 69.0301 76.3811 69.0485 76.3811 69.0485C75.2848 69.0669 74.2437 69.5552 73.4883 70.4212C73.4883 70.4212 71.5353 72.6414 69.5454 74.8616C67.537 77.091 65.4918 79.3113 65.4918 79.3113C65.4918 79.3113 65.0957 78.2979 64.5245 76.7686C63.9441 75.2485 63.1979 73.2218 62.4517 71.1858C61.7147 69.1498 60.9869 67.1323 60.4618 65.6122C59.9367 64.0829 59.5866 63.0696 59.5866 63.0696C59.0984 61.6693 58.0205 60.6282 56.6939 60.3519C55.3949 60.0755 53.9946 60.5638 52.9905 61.6508C52.9905 61.6508 51.1756 63.6131 49.3515 65.5846C47.4906 67.5561 45.6112 69.5276 45.6112 69.5276C45.6112 69.5276 42.2947 69.5828 38.9598 69.6381C35.6433 69.675 32.3268 69.7394 32.3268 69.7394C31.9859 68.2654 31.7464 66.773 31.6266 65.2529C31.5161 63.7421 31.5253 62.2128 31.6911 60.6743Z" fill="white"/>
</g>
<defs>
<filter id="filter0_d_102_164" x="-4" y="0" width="136.054" height="146.263" filterUnits="userSpaceOnUse" color-interpolation-filters="sRGB">
<feFlood flood-opacity="0" result="BackgroundImageFix"/>
<feColorMatrix in="SourceAlpha" type="matrix" values="0 0 0 0 0 0 0 0 0 0 0 0 0 0 0 0 0 0 127 0" result="hardAlpha"/>
<feOffset dy="4"/>
<feGaussianBlur stdDeviation="2"/>
<feComposite in2="hardAlpha" operator="out"/>
<feColorMatrix type="matrix" values="0 0 0 0 0 0 0 0 0 0 0 0 0 0 0 0 0 0 0.25 0"/>
<feBlend mode="normal" in2="BackgroundImageFix" result="effect1_dropShadow_102_164"/>
<feBlend mode="normal" in="SourceGraphic" in2="effect1_dropShadow_102_164" result="shape"/>
</filter>
</defs>
</svg>
