<?xml version="1.0" ?><svg style="enable-background:new 0 0 32 32;" version="1.1" viewBox="0 0 32 32" xml:space="preserve" xmlns="http://www.w3.org/2000/svg" xmlns:xlink="http://www.w3.org/1999/xlink"><g id="Guides"/><g id="_x32_0"/><g id="_x31_9"/><g id="_x31_8"/><g id="_x31_7"/><g id="_x31_6"/><g id="_x31_5"/><g id="_x31_4"/><g id="_x31_3"/><g id="_x31_2"/><g id="_x31_1"/><g id="_x31_0"/><g id="_x30_9"/><g id="_x30_8"/><g id="_x30_7"/><g id="_x30_6"/><g id="_x30_5"/><g id="_x30_4"/><g id="_x30_3"/><g id="_x30_2"/><g id="_x30_1"><g><path d="M29,15c-0.5522461,0-1,0.4472656-1,1c0,6.6171875-5.3833008,12-12,12S4,22.6171875,4,16S9.3833008,4,16,4    c4.144043,0,7.9399414,2.0947266,10.1542969,5.6035156c0.2958984,0.4667969,0.9135742,0.6064453,1.3793945,0.3115234    c0.4672852-0.2949219,0.6069336-0.9121094,0.3120117-1.3798828C25.2626953,4.4433594,20.8344727,2,16,2    C8.2802734,2,2,8.2802734,2,16s6.2802734,14,14,14s14-6.2802734,14-14C30,15.4472656,29.5522461,15,29,15z"/><path d="M5,17c0,0.5527344,0.4477539,1,1,1h1.1195679c2.4412842,4.5059814,8.0905762,7.7049561,8.3945923,7.8740234    C15.6655273,25.9580078,15.8325195,26,16,26s0.3344727-0.0419922,0.4858398-0.1259766    C16.789856,25.7049561,22.4391479,22.5059814,24.8804321,18H26c0.5522461,0,1-0.4472656,1-1s-0.4477539-1-1-1h-0.3004761    C25.8804321,15.3497925,26,14.6846313,26,14c0-3.3085938-2.6865234-6-5.9882813-6C18.5200195,8,17.0874023,8.5566406,16,9.5263672    C14.9125977,8.5566406,13.4799805,8,11.9882813,8C8.6865234,8,6,10.6914063,6,14c0,0.6846313,0.1195679,1.3497925,0.3004761,2H6    C5.4477539,16,5,16.4472656,5,17z M16,23.8369141C14.7472534,23.0668945,11.3777466,20.8300781,9.4349365,18H12    c0.2651367,0,0.5195313-0.1054688,0.7070313-0.2929688l0.9277344-0.9277344l1.4365234,3.5917969    c0.125,0.3125,0.3984375,0.5410156,0.7275391,0.6083984C15.8657227,20.9931641,15.9331055,21,16,21    c0.2626953,0,0.5175781-0.1035156,0.7070313-0.2929688L19.4140625,18h3.151001    C20.6222534,20.8300781,17.2527466,23.0668945,16,23.8369141z M8,14c0-2.2060547,1.7890625-4,3.9882813-4    c1.2856445,0,2.4550781,0.5820313,3.2089844,1.5966797c0.3769531,0.5078125,1.2285156,0.5078125,1.6054688,0    C17.5566406,10.5820313,18.7260742,10,20.0117188,10C22.2109375,10,24,11.7939453,24,14    c0,0.6799316-0.1488647,1.3479004-0.3869629,2H19c-0.2651367,0-0.5195313,0.1054688-0.7070313,0.2929688l-1.9277344,1.9277344    l-1.4365234-3.5917969c-0.125-0.3125-0.3984375-0.5410156-0.7275391-0.6083984    c-0.3286133-0.0654297-0.6699219,0.0351563-0.9082031,0.2724609L11.5859375,16H8.3869629C8.1488647,15.3479004,8,14.6799316,8,14z    "/></g></g></svg>