<svg width="172" height="161" viewBox="0 0 172 161" fill="none" xmlns="http://www.w3.org/2000/svg">
<g filter="url(#filter0_d_102_132)">
<mask id="path-1-inside-1_102_132" fill="white">
<path d="M149.878 68.7634C149.878 68.7634 147.778 67.1095 144.658 64.6436C143.114 63.4155 141.311 61.9696 139.41 60.4247C138.459 59.6522 137.478 58.86 136.498 58.0479C135.508 57.2358 134.527 56.4039 133.527 55.5819C132.547 54.75 131.576 53.928 130.615 53.116C129.665 52.294 128.724 51.5017 127.842 50.7193C126.07 49.1645 124.426 47.7186 123.039 46.4708C120.316 43.985 118.523 42.3212 118.523 42.3212C117.751 41.5686 116.82 41.4596 116.127 41.9944C115.433 42.5292 115.077 43.6384 115.206 44.8565C115.206 44.8565 115.344 46.0845 115.552 47.9266C115.76 49.7686 116.038 52.2147 116.325 54.6807C116.592 57.1368 116.889 59.5928 117.107 61.4348C117.315 63.2769 117.464 64.495 117.464 64.495C117.464 64.495 115.839 63.0887 113.443 60.9496C112.254 59.88 110.888 58.6421 109.432 57.2952C107.996 55.9681 106.481 54.5322 104.975 53.116C103.49 51.6899 102.024 50.2539 100.667 48.9169C99.3205 47.57 98.0826 46.3222 97.0229 45.2427C94.9432 43.0838 93.5765 41.6577 93.5765 41.6577C92.8833 40.905 91.9821 40.7862 91.2492 41.321C90.4966 41.8657 90.0311 42.9847 90.041 44.193C90.041 44.193 90.0608 45.4408 90.0707 47.2927C90.0905 49.1546 90.1004 51.6205 90.1301 54.0964C90.1598 56.5723 90.1797 59.0481 90.1995 60.8902C90.2193 62.752 90.2193 63.98 90.2193 63.98C90.2193 63.98 88.7635 62.5539 86.6045 60.4049C85.5349 59.3353 84.297 58.0776 82.9997 56.7307C81.7122 55.3838 80.3455 53.9478 78.9987 52.5218C77.6617 51.0858 76.3445 49.6399 75.1264 48.293C73.9182 46.9362 72.7991 45.6785 71.8583 44.599C69.9865 42.4302 68.7486 40.9942 68.7486 40.9942C68.1247 40.2316 67.2235 40.1028 66.4411 40.6574C65.629 41.2021 65.0546 42.3212 64.9358 43.5591C64.9358 43.5591 64.807 44.9852 64.609 47.1541C64.401 49.313 64.1237 52.2048 63.8464 55.0768C63.5691 57.9587 63.2819 60.8505 63.0739 63.0095C62.8462 65.1783 62.7075 66.6044 62.7075 66.6044L57.5577 66.5252C57.5577 66.5252 57.6172 65.5349 57.7261 63.8216C57.8449 62.0984 58.0133 59.6324 58.2114 56.6812C58.3104 55.2056 58.4193 53.6111 58.5382 51.9077C58.6471 50.2242 58.7759 48.4415 58.9046 46.5995C59.0234 44.7575 59.1522 42.8461 59.2809 40.9149C59.4097 38.964 59.5384 37.0031 59.6672 35.0422C59.786 33.0714 59.9148 31.1105 60.0336 29.1595C60.1425 27.2284 60.2515 25.3269 60.3505 23.4849C60.4594 21.6428 60.5486 19.8602 60.6278 18.1766C60.707 16.4732 60.7763 14.8887 60.8358 13.4131C60.9447 10.4718 61.0239 8.0058 61.0834 6.29251C61.123 4.57921 61.1428 3.59877 61.1428 3.59877C61.1725 1.88548 60.3802 0.518803 59.3503 0.47919C59.3503 0.47919 58.6966 0.459383 57.736 0.419769C56.7655 0.380155 55.4681 0.330638 54.1807 0.281121C52.8932 0.231604 51.5959 0.182087 50.6253 0.142473C49.6548 0.102859 49.0111 0.0731489 49.0111 0.0731489C47.9712 0.0335352 47.0007 1.33089 46.763 3.05408C46.763 3.05408 46.6243 4.03452 46.3569 5.73792C46.0796 7.45121 45.6439 9.91717 45.0992 12.8684C44.8021 14.344 44.4753 15.9286 44.1386 17.6319C43.7721 19.3254 43.3958 21.1081 42.9898 22.9501C42.5837 24.7921 42.148 26.7035 41.7122 28.6446C41.2666 30.5856 40.8209 32.5564 40.3555 34.5272C39.8999 36.498 39.4344 38.4688 38.9789 40.4198C38.5134 42.3608 38.0579 44.2623 37.6122 46.1142C37.1765 47.9563 36.7407 49.7488 36.3248 51.4423C35.9187 53.1457 35.5325 54.7401 35.1661 56.2256C34.453 59.1868 33.839 61.6527 33.4231 63.3759C32.9972 65.109 32.7595 66.0994 32.7595 66.0994C32.7595 66.0994 30.8085 66.0598 28.8477 66.0201C26.9066 66.0003 24.9556 65.9706 24.9556 65.9706C23.5493 65.9409 22.0935 67.4066 21.7073 69.2388C21.7073 69.2388 21.4498 70.4767 20.9843 72.6653C20.7566 73.7448 20.4793 75.062 20.1524 76.5871C19.8355 78.0924 19.479 79.8156 19.0829 81.6775C18.6867 83.5492 18.2609 85.5695 17.8053 87.7087C17.3597 89.8478 16.8843 92.0959 16.3891 94.4232C15.894 96.7604 15.379 99.1768 14.864 101.623C14.349 104.079 13.8242 106.565 13.2993 109.051C12.7744 111.536 12.2495 114.022 11.7246 116.478C11.2096 118.924 10.7046 121.341 10.2094 123.678C9.71422 126.005 9.23886 128.263 8.7833 130.402C8.33765 132.542 7.9118 134.552 7.51566 136.414C7.11952 138.286 6.763 139.999 6.43619 141.504C6.11928 143.039 5.84198 144.346 5.6043 145.446C5.14874 147.615 4.88135 148.862 4.88135 148.862C4.49511 150.704 5.53497 152.19 7.28788 152.19C7.28788 152.19 9.75384 152.19 14.0717 152.19C16.2208 152.19 18.8452 152.19 21.8558 152.19C23.3513 152.19 24.9556 152.19 26.6293 152.19C28.3228 152.19 30.0955 152.19 31.9474 152.19C33.7994 152.19 35.7107 152.19 37.7112 152.19C39.7117 152.19 41.7717 152.19 43.8811 152.19C46.0004 152.19 48.1792 152.19 50.4074 152.2C52.6357 152.2 54.9036 152.2 57.2111 152.2C59.5285 152.2 61.8855 152.2 64.2525 152.2C66.6392 152.2 69.0457 152.2 71.4721 152.2C73.8885 152.2 76.3445 152.2 78.8006 152.2C81.2567 152.2 83.7226 152.2 86.1886 152.2C88.6545 152.2 91.1106 152.2 93.5765 152.2C96.0326 152.2 98.4787 152.2 100.905 152.2C103.331 152.2 105.738 152.2 108.125 152.2C110.492 152.2 112.849 152.2 115.166 152.2C117.464 152.2 119.741 152.2 121.97 152.2C124.198 152.2 126.377 152.2 128.486 152.2C130.605 152.2 132.665 152.2 134.666 152.2C136.656 152.2 138.568 152.2 140.43 152.2C142.282 152.2 144.044 152.2 145.748 152.2C147.412 152.2 149.026 152.2 150.521 152.2C153.532 152.2 156.146 152.2 158.295 152.2C162.613 152.2 165.089 152.2 165.089 152.2C166.842 152.2 167.912 150.764 167.535 148.971C167.535 148.971 167.288 147.753 166.852 145.644C166.634 144.574 166.367 143.297 166.05 141.801C165.753 140.336 165.406 138.672 165.02 136.85C164.653 135.027 164.247 133.066 163.812 130.987C163.376 128.897 162.93 126.708 162.455 124.431C161.989 122.163 161.494 119.806 161.019 117.429C160.524 115.032 160.019 112.606 159.514 110.189C159.018 107.763 158.503 105.347 158.018 102.95C157.523 100.563 157.038 98.2162 156.572 95.9384C156.097 93.6705 155.631 91.472 155.216 89.3923C154.77 87.3125 154.374 85.3417 153.997 83.5195C153.621 81.7072 153.265 80.0335 152.967 78.5678C152.66 77.0823 152.403 75.7948 152.175 74.7352C151.73 72.6158 151.492 71.4076 151.492 71.4076C151.274 70.3677 150.68 69.3774 149.878 68.7634ZM39.375 59.5631L44.6436 59.6621C46.0103 59.672 47.3275 58.2261 47.6246 56.4039C47.9019 54.5619 47.0601 53.0763 45.7231 53.0466L40.8803 52.9476C40.8803 52.9476 41.5439 50.0459 42.5243 45.7082C43.0096 43.5393 43.584 40.9942 44.1782 38.2905C44.4753 36.9337 44.7823 35.5275 45.0893 34.1113C45.3864 32.6951 45.6934 31.2492 46.0103 29.8033C46.3074 28.3574 46.6144 26.9115 46.8917 25.4953C47.1888 24.0692 47.4661 22.6728 47.7236 21.316C48.2485 18.6124 48.7239 16.0771 49.1101 13.9182C49.8231 9.59035 50.2589 6.71836 50.2589 6.71836C50.2589 6.71836 51.9623 6.76787 53.6558 6.8372C55.3493 6.89662 57.0428 6.96594 57.0428 6.96594C57.0428 6.96594 57.0031 7.89687 56.9338 9.51113C56.8546 11.1452 56.7258 13.4626 56.5674 16.2455C56.4783 17.6319 56.3891 19.1472 56.2802 20.7416C56.1713 22.3361 56.0425 24.0197 55.9237 25.7627C55.7949 27.5057 55.6563 29.3081 55.5176 31.1303C55.3691 32.9724 55.2205 34.8243 55.0621 36.6763C54.9135 38.5282 54.7551 40.39 54.6065 42.2321C54.4481 44.0543 54.2995 45.8666 54.141 47.6096C53.9925 49.3527 53.8439 51.0362 53.7053 52.6307C53.5765 54.235 53.4478 55.7404 53.329 57.1368C53.0913 59.9196 52.8932 62.2469 52.7546 63.881C52.6159 65.4953 52.5466 66.4361 52.5466 66.4361C52.5466 66.4361 51.6157 66.4064 50.249 66.3866C48.8724 66.3767 47.0304 66.337 45.1982 66.3073C43.3562 66.2776 41.5142 66.2479 40.1277 66.2083C38.7511 66.1885 37.8202 66.1786 37.8202 66.1786L39.375 59.5631ZM61.3904 79.7859C61.3904 79.7859 60.4792 79.776 59.1027 79.7661C57.7459 79.7463 55.9138 79.7265 54.0915 79.6869C52.2792 79.6671 50.457 79.6374 49.0903 79.6275C47.7137 79.6077 46.8125 79.5879 46.8125 79.5879C45.3666 79.568 43.9603 81.0238 43.6731 82.856C43.3859 84.6782 44.3465 86.1835 45.8123 86.1934C45.8123 86.1934 46.7531 86.2132 48.1495 86.2232C49.5459 86.243 51.4077 86.2727 53.2695 86.2925C55.1314 86.3123 56.9932 86.342 58.3896 86.3519C59.7959 86.3717 60.7367 86.3816 60.7367 86.3816L60.0831 92.9773C60.0831 92.9773 59.1225 92.9674 57.6865 92.9575C56.2604 92.9377 54.349 92.908 52.4476 92.8981C50.5461 92.8783 48.6347 92.8585 47.2185 92.8386C45.7825 92.8188 44.8417 92.8089 44.8417 92.8089C43.3265 92.799 41.8905 94.2647 41.6033 96.087C41.3161 97.9092 42.3361 99.4046 43.8712 99.4145C43.8712 99.4145 44.8318 99.4244 46.2876 99.4442C47.7434 99.4541 49.6845 99.474 51.6355 99.4938C53.5765 99.5136 55.5275 99.5235 56.9932 99.5433C58.4589 99.5532 59.4394 99.5631 59.4394 99.5631L58.8056 106.159C58.8056 106.159 56.8942 106.129 54.9729 106.129C53.0616 106.109 51.1502 106.099 51.1502 106.099C49.5756 106.08 48.1198 107.555 47.8821 109.377C47.6543 111.2 48.7734 112.675 50.3876 112.685C50.3876 112.685 52.3287 112.705 54.2797 112.715C56.2406 112.715 58.2015 112.725 58.2015 112.725L57.6072 119.32C57.6072 119.32 56.5773 119.301 55.0125 119.291C53.4577 119.301 51.378 119.281 49.3181 119.271C47.2483 119.271 45.1784 119.261 43.6335 119.251C42.0787 119.241 41.0586 119.221 41.0586 119.221C39.4245 119.221 37.8895 120.707 37.632 122.519C37.3745 124.351 38.5332 125.837 40.1772 125.847C40.1772 125.847 41.2369 125.837 42.8115 125.857C44.3961 125.847 46.4956 125.867 48.6149 125.877C50.7145 125.877 52.8338 125.877 54.4183 125.886C56.0128 125.906 57.0725 125.906 57.0725 125.906L56.5674 132.482C56.5674 132.482 55.4879 132.482 53.8637 132.452C52.2594 132.452 50.1004 132.462 47.9613 132.462C45.8123 132.452 43.6632 132.452 42.0589 132.442C40.4446 132.442 39.3849 132.433 39.3849 132.433C37.6914 132.433 36.1366 133.908 35.9187 135.711C35.7008 137.543 36.9289 139.028 38.662 139.028C38.662 139.028 39.7414 139.028 41.3755 139.028C43.0096 139.038 45.1982 139.038 47.377 139.038C49.5558 139.048 51.7444 139.048 53.3785 139.048C55.0225 139.048 56.1118 139.058 56.1118 139.058L55.7256 145.634C55.7256 145.634 52.9427 145.614 48.7635 145.624C46.6937 145.624 44.2376 145.624 41.6528 145.604C40.3456 145.624 38.9987 145.604 37.632 145.614C36.2752 145.614 34.8789 145.614 33.4924 145.614C32.1059 145.614 30.7194 145.594 29.3527 145.614C27.9861 145.594 26.6491 145.594 25.3518 145.604C22.7571 145.604 20.3406 145.604 18.2807 145.604C14.1807 145.594 11.477 145.565 11.477 145.565C11.477 145.565 11.6949 144.445 12.0514 142.455C12.2396 141.445 12.4872 140.236 12.7546 138.85C13.0121 137.454 13.329 135.889 13.6558 134.195C14.0123 132.482 14.3688 130.63 14.7749 128.669C15.171 126.718 15.587 124.648 16.0128 122.509C16.4387 120.37 16.8843 118.162 17.3399 115.914C17.8053 113.675 18.2609 111.398 18.7363 109.11C19.2017 106.832 19.6573 104.554 20.1128 102.306C20.5783 100.058 21.024 97.8498 21.4498 95.7106C21.8955 93.5715 22.3114 91.5116 22.7174 89.5606C23.1037 87.5898 23.48 85.7379 23.8365 84.0345C24.1732 82.3212 24.5001 80.7565 24.7774 79.37C25.0646 77.9736 25.3121 76.7654 25.5201 75.7651C25.9262 73.7745 26.1638 72.6257 26.1638 72.6257C26.1638 72.6257 28.0851 72.6554 30.0064 72.6852C31.9375 72.7149 33.8588 72.7446 33.8588 72.7446C33.8687 72.7446 33.8687 72.7446 33.8786 72.7446C33.8786 72.7446 35.1562 72.7644 37.0873 72.7941C38.048 72.8139 39.167 72.8337 40.3753 72.8535C41.5736 72.8634 42.8511 72.8931 44.1386 72.9129C45.4161 72.9327 46.6937 72.9525 47.9019 72.9724C49.1002 72.9823 50.2094 73.0021 51.1799 73.0219C53.0913 73.0516 54.3787 73.0714 54.3787 73.0714C54.3886 73.0714 54.3886 73.0714 54.3886 73.0714H54.3985C54.3985 73.0714 56.3 73.1011 58.2213 73.1308C60.1425 73.1605 62.0539 73.1902 62.0539 73.1902L61.3904 79.7859ZM160.96 145.713C160.96 145.713 159.444 145.713 156.81 145.703C155.483 145.703 153.859 145.683 151.977 145.683C150.105 145.673 147.996 145.673 145.669 145.693C143.371 145.693 140.856 145.693 138.192 145.683C136.864 145.683 135.508 145.683 134.101 145.683C132.715 145.683 131.269 145.664 129.833 145.683C128.387 145.664 126.902 145.683 125.406 145.673C123.921 145.654 122.405 145.673 120.88 145.673C119.355 145.673 117.82 145.673 116.275 145.673C114.74 145.673 113.185 145.654 111.64 145.664C110.086 145.644 108.531 145.664 106.996 145.664C105.451 145.664 103.916 145.664 102.391 145.664C100.865 145.644 99.3502 145.664 97.8647 145.664C96.3594 145.634 94.8838 145.654 93.428 145.634C91.9821 145.654 90.556 145.654 89.1596 145.654C87.7632 145.634 86.3965 145.634 85.0596 145.654C82.3955 145.654 79.8801 145.624 77.5528 145.644C75.2354 145.624 73.1061 145.624 71.2146 145.644C69.323 145.644 67.6691 145.644 66.3223 145.634C63.6186 145.634 62.0638 145.614 62.0638 145.614C62.0638 145.614 62.1232 144.445 62.2223 142.386C62.2718 141.346 62.3312 140.098 62.4005 138.662C62.4698 137.216 62.5689 135.602 62.6679 133.819C62.7669 132.056 62.8759 130.135 63.0145 128.105C63.1433 126.075 63.2819 123.935 63.4206 121.717C63.5691 119.509 63.7375 117.211 63.8959 114.884C64.0643 112.556 64.2326 110.199 64.4109 107.832C64.5892 105.466 64.7674 103.109 64.9457 100.781C65.1438 98.444 65.3121 96.1563 65.5003 93.9379C65.6686 91.7196 65.837 89.5804 66.0054 87.5502C66.1737 85.52 66.3223 83.5888 66.4708 81.826C66.6095 80.0434 66.7481 78.4192 66.8571 76.9733C66.9759 75.5373 67.0848 74.2796 67.1641 73.2496C67.3225 71.16 67.4216 69.9815 67.4216 69.9815C67.4216 69.9815 67.5206 68.7337 67.679 66.8817C67.8177 65.0199 68.0257 62.5341 68.2138 60.0484C68.4119 57.5626 68.61 55.0768 68.7585 53.2249C68.9071 51.3531 68.9962 50.1152 68.9962 50.1152C68.9962 50.1152 70.2836 51.5512 72.2346 53.7201C73.2151 54.7896 74.3738 56.0474 75.6315 57.4041C76.909 58.751 78.2757 60.187 79.6721 61.6131C81.0784 63.0491 82.4946 64.4752 83.8415 65.8221C85.1982 67.1689 86.4857 68.4168 87.5949 69.4863C89.8429 71.6255 91.3681 73.0516 91.3681 73.0516C92.1603 73.7745 93.1903 73.9033 94.0321 73.3685C94.864 72.8139 95.3691 71.6948 95.3294 70.4767C95.3294 70.4767 95.2898 69.2289 95.2403 67.3769C95.171 65.5349 95.1116 63.0689 95.0323 60.5931C94.963 58.1271 94.8838 55.6611 94.8343 53.8092C94.7848 51.9573 94.755 50.7292 94.755 50.7292C94.755 50.7292 96.1712 52.1553 98.3401 54.3044C99.4394 55.3739 100.737 56.6218 102.133 57.9686C103.549 59.3056 105.084 60.7317 106.629 62.1578C108.194 63.574 109.769 64.9902 111.264 66.3271C112.769 67.6641 114.195 68.902 115.424 69.9617C117.909 72.0909 119.583 73.5071 119.583 73.5071C120.454 74.24 121.494 74.3588 122.287 73.824C123.059 73.2695 123.445 72.1702 123.277 70.9521C123.277 70.9521 123.109 69.7042 122.861 67.8721C122.613 66.0399 122.277 63.5839 121.94 61.1377C121.613 58.6817 121.286 56.2256 121.039 54.3935C120.791 52.5515 120.633 51.3333 120.633 51.3333C120.633 51.3333 122.148 52.6802 124.455 54.7302C125.634 55.7404 127.011 56.9288 128.496 58.1964C130.001 59.4641 131.616 60.8208 133.24 62.1776C134.874 63.5344 136.528 64.8812 138.083 66.1489C139.667 67.4165 141.143 68.595 142.41 69.6052C144.965 71.6354 146.679 72.9724 146.679 72.9724C146.679 72.9724 146.907 74.1112 147.303 76.1018C147.501 77.0922 147.748 78.3103 148.016 79.677C148.283 81.0635 148.6 82.6381 148.947 84.3415C149.273 86.0449 149.65 87.8968 150.036 89.8478C150.432 91.7889 150.838 93.8587 151.254 95.978C151.68 98.1172 152.126 100.326 152.571 102.554C153.007 104.792 153.463 107.06 153.918 109.338C154.364 111.616 154.819 113.883 155.255 116.122C155.701 118.36 156.137 120.558 156.562 122.698C156.978 124.817 157.384 126.887 157.761 128.828C158.147 130.789 158.503 132.631 158.84 134.334C159.167 136.047 159.474 137.612 159.741 138.989C159.999 140.375 160.227 141.593 160.395 142.584C160.771 144.574 160.96 145.713 160.96 145.713Z"/>
</mask>
<path d="M149.878 68.7634C149.878 68.7634 147.778 67.1095 144.658 64.6436C143.114 63.4155 141.311 61.9696 139.41 60.4247C138.459 59.6522 137.478 58.86 136.498 58.0479C135.508 57.2358 134.527 56.4039 133.527 55.5819C132.547 54.75 131.576 53.928 130.615 53.116C129.665 52.294 128.724 51.5017 127.842 50.7193C126.07 49.1645 124.426 47.7186 123.039 46.4708C120.316 43.985 118.523 42.3212 118.523 42.3212C117.751 41.5686 116.82 41.4596 116.127 41.9944C115.433 42.5292 115.077 43.6384 115.206 44.8565C115.206 44.8565 115.344 46.0845 115.552 47.9266C115.76 49.7686 116.038 52.2147 116.325 54.6807C116.592 57.1368 116.889 59.5928 117.107 61.4348C117.315 63.2769 117.464 64.495 117.464 64.495C117.464 64.495 115.839 63.0887 113.443 60.9496C112.254 59.88 110.888 58.6421 109.432 57.2952C107.996 55.9681 106.481 54.5322 104.975 53.116C103.49 51.6899 102.024 50.2539 100.667 48.9169C99.3205 47.57 98.0826 46.3222 97.0229 45.2427C94.9432 43.0838 93.5765 41.6577 93.5765 41.6577C92.8833 40.905 91.9821 40.7862 91.2492 41.321C90.4966 41.8657 90.0311 42.9847 90.041 44.193C90.041 44.193 90.0608 45.4408 90.0707 47.2927C90.0905 49.1546 90.1004 51.6205 90.1301 54.0964C90.1598 56.5723 90.1797 59.0481 90.1995 60.8902C90.2193 62.752 90.2193 63.98 90.2193 63.98C90.2193 63.98 88.7635 62.5539 86.6045 60.4049C85.5349 59.3353 84.297 58.0776 82.9997 56.7307C81.7122 55.3838 80.3455 53.9478 78.9987 52.5218C77.6617 51.0858 76.3445 49.6399 75.1264 48.293C73.9182 46.9362 72.7991 45.6785 71.8583 44.599C69.9865 42.4302 68.7486 40.9942 68.7486 40.9942C68.1247 40.2316 67.2235 40.1028 66.4411 40.6574C65.629 41.2021 65.0546 42.3212 64.9358 43.5591C64.9358 43.5591 64.807 44.9852 64.609 47.1541C64.401 49.313 64.1237 52.2048 63.8464 55.0768C63.5691 57.9587 63.2819 60.8505 63.0739 63.0095C62.8462 65.1783 62.7075 66.6044 62.7075 66.6044L57.5577 66.5252C57.5577 66.5252 57.6172 65.5349 57.7261 63.8216C57.8449 62.0984 58.0133 59.6324 58.2114 56.6812C58.3104 55.2056 58.4193 53.6111 58.5382 51.9077C58.6471 50.2242 58.7759 48.4415 58.9046 46.5995C59.0234 44.7575 59.1522 42.8461 59.2809 40.9149C59.4097 38.964 59.5384 37.0031 59.6672 35.0422C59.786 33.0714 59.9148 31.1105 60.0336 29.1595C60.1425 27.2284 60.2515 25.3269 60.3505 23.4849C60.4594 21.6428 60.5486 19.8602 60.6278 18.1766C60.707 16.4732 60.7763 14.8887 60.8358 13.4131C60.9447 10.4718 61.0239 8.0058 61.0834 6.29251C61.123 4.57921 61.1428 3.59877 61.1428 3.59877C61.1725 1.88548 60.3802 0.518803 59.3503 0.47919C59.3503 0.47919 58.6966 0.459383 57.736 0.419769C56.7655 0.380155 55.4681 0.330638 54.1807 0.281121C52.8932 0.231604 51.5959 0.182087 50.6253 0.142473C49.6548 0.102859 49.0111 0.0731489 49.0111 0.0731489C47.9712 0.0335352 47.0007 1.33089 46.763 3.05408C46.763 3.05408 46.6243 4.03452 46.3569 5.73792C46.0796 7.45121 45.6439 9.91717 45.0992 12.8684C44.8021 14.344 44.4753 15.9286 44.1386 17.6319C43.7721 19.3254 43.3958 21.1081 42.9898 22.9501C42.5837 24.7921 42.148 26.7035 41.7122 28.6446C41.2666 30.5856 40.8209 32.5564 40.3555 34.5272C39.8999 36.498 39.4344 38.4688 38.9789 40.4198C38.5134 42.3608 38.0579 44.2623 37.6122 46.1142C37.1765 47.9563 36.7407 49.7488 36.3248 51.4423C35.9187 53.1457 35.5325 54.7401 35.1661 56.2256C34.453 59.1868 33.839 61.6527 33.4231 63.3759C32.9972 65.109 32.7595 66.0994 32.7595 66.0994C32.7595 66.0994 30.8085 66.0598 28.8477 66.0201C26.9066 66.0003 24.9556 65.9706 24.9556 65.9706C23.5493 65.9409 22.0935 67.4066 21.7073 69.2388C21.7073 69.2388 21.4498 70.4767 20.9843 72.6653C20.7566 73.7448 20.4793 75.062 20.1524 76.5871C19.8355 78.0924 19.479 79.8156 19.0829 81.6775C18.6867 83.5492 18.2609 85.5695 17.8053 87.7087C17.3597 89.8478 16.8843 92.0959 16.3891 94.4232C15.894 96.7604 15.379 99.1768 14.864 101.623C14.349 104.079 13.8242 106.565 13.2993 109.051C12.7744 111.536 12.2495 114.022 11.7246 116.478C11.2096 118.924 10.7046 121.341 10.2094 123.678C9.71422 126.005 9.23886 128.263 8.7833 130.402C8.33765 132.542 7.9118 134.552 7.51566 136.414C7.11952 138.286 6.763 139.999 6.43619 141.504C6.11928 143.039 5.84198 144.346 5.6043 145.446C5.14874 147.615 4.88135 148.862 4.88135 148.862C4.49511 150.704 5.53497 152.19 7.28788 152.19C7.28788 152.19 9.75384 152.19 14.0717 152.19C16.2208 152.19 18.8452 152.19 21.8558 152.19C23.3513 152.19 24.9556 152.19 26.6293 152.19C28.3228 152.19 30.0955 152.19 31.9474 152.19C33.7994 152.19 35.7107 152.19 37.7112 152.19C39.7117 152.19 41.7717 152.19 43.8811 152.19C46.0004 152.19 48.1792 152.19 50.4074 152.2C52.6357 152.2 54.9036 152.2 57.2111 152.2C59.5285 152.2 61.8855 152.2 64.2525 152.2C66.6392 152.2 69.0457 152.2 71.4721 152.2C73.8885 152.2 76.3445 152.2 78.8006 152.2C81.2567 152.2 83.7226 152.2 86.1886 152.2C88.6545 152.2 91.1106 152.2 93.5765 152.2C96.0326 152.2 98.4787 152.2 100.905 152.2C103.331 152.2 105.738 152.2 108.125 152.2C110.492 152.2 112.849 152.2 115.166 152.2C117.464 152.2 119.741 152.2 121.97 152.2C124.198 152.2 126.377 152.2 128.486 152.2C130.605 152.2 132.665 152.2 134.666 152.2C136.656 152.2 138.568 152.2 140.43 152.2C142.282 152.2 144.044 152.2 145.748 152.2C147.412 152.2 149.026 152.2 150.521 152.2C153.532 152.2 156.146 152.2 158.295 152.2C162.613 152.2 165.089 152.2 165.089 152.2C166.842 152.2 167.912 150.764 167.535 148.971C167.535 148.971 167.288 147.753 166.852 145.644C166.634 144.574 166.367 143.297 166.05 141.801C165.753 140.336 165.406 138.672 165.02 136.85C164.653 135.027 164.247 133.066 163.812 130.987C163.376 128.897 162.93 126.708 162.455 124.431C161.989 122.163 161.494 119.806 161.019 117.429C160.524 115.032 160.019 112.606 159.514 110.189C159.018 107.763 158.503 105.347 158.018 102.95C157.523 100.563 157.038 98.2162 156.572 95.9384C156.097 93.6705 155.631 91.472 155.216 89.3923C154.77 87.3125 154.374 85.3417 153.997 83.5195C153.621 81.7072 153.265 80.0335 152.967 78.5678C152.66 77.0823 152.403 75.7948 152.175 74.7352C151.73 72.6158 151.492 71.4076 151.492 71.4076C151.274 70.3677 150.68 69.3774 149.878 68.7634ZM39.375 59.5631L44.6436 59.6621C46.0103 59.672 47.3275 58.2261 47.6246 56.4039C47.9019 54.5619 47.0601 53.0763 45.7231 53.0466L40.8803 52.9476C40.8803 52.9476 41.5439 50.0459 42.5243 45.7082C43.0096 43.5393 43.584 40.9942 44.1782 38.2905C44.4753 36.9337 44.7823 35.5275 45.0893 34.1113C45.3864 32.6951 45.6934 31.2492 46.0103 29.8033C46.3074 28.3574 46.6144 26.9115 46.8917 25.4953C47.1888 24.0692 47.4661 22.6728 47.7236 21.316C48.2485 18.6124 48.7239 16.0771 49.1101 13.9182C49.8231 9.59035 50.2589 6.71836 50.2589 6.71836C50.2589 6.71836 51.9623 6.76787 53.6558 6.8372C55.3493 6.89662 57.0428 6.96594 57.0428 6.96594C57.0428 6.96594 57.0031 7.89687 56.9338 9.51113C56.8546 11.1452 56.7258 13.4626 56.5674 16.2455C56.4783 17.6319 56.3891 19.1472 56.2802 20.7416C56.1713 22.3361 56.0425 24.0197 55.9237 25.7627C55.7949 27.5057 55.6563 29.3081 55.5176 31.1303C55.3691 32.9724 55.2205 34.8243 55.0621 36.6763C54.9135 38.5282 54.7551 40.39 54.6065 42.2321C54.4481 44.0543 54.2995 45.8666 54.141 47.6096C53.9925 49.3527 53.8439 51.0362 53.7053 52.6307C53.5765 54.235 53.4478 55.7404 53.329 57.1368C53.0913 59.9196 52.8932 62.2469 52.7546 63.881C52.6159 65.4953 52.5466 66.4361 52.5466 66.4361C52.5466 66.4361 51.6157 66.4064 50.249 66.3866C48.8724 66.3767 47.0304 66.337 45.1982 66.3073C43.3562 66.2776 41.5142 66.2479 40.1277 66.2083C38.7511 66.1885 37.8202 66.1786 37.8202 66.1786L39.375 59.5631ZM61.3904 79.7859C61.3904 79.7859 60.4792 79.776 59.1027 79.7661C57.7459 79.7463 55.9138 79.7265 54.0915 79.6869C52.2792 79.6671 50.457 79.6374 49.0903 79.6275C47.7137 79.6077 46.8125 79.5879 46.8125 79.5879C45.3666 79.568 43.9603 81.0238 43.6731 82.856C43.3859 84.6782 44.3465 86.1835 45.8123 86.1934C45.8123 86.1934 46.7531 86.2132 48.1495 86.2232C49.5459 86.243 51.4077 86.2727 53.2695 86.2925C55.1314 86.3123 56.9932 86.342 58.3896 86.3519C59.7959 86.3717 60.7367 86.3816 60.7367 86.3816L60.0831 92.9773C60.0831 92.9773 59.1225 92.9674 57.6865 92.9575C56.2604 92.9377 54.349 92.908 52.4476 92.8981C50.5461 92.8783 48.6347 92.8585 47.2185 92.8386C45.7825 92.8188 44.8417 92.8089 44.8417 92.8089C43.3265 92.799 41.8905 94.2647 41.6033 96.087C41.3161 97.9092 42.3361 99.4046 43.8712 99.4145C43.8712 99.4145 44.8318 99.4244 46.2876 99.4442C47.7434 99.4541 49.6845 99.474 51.6355 99.4938C53.5765 99.5136 55.5275 99.5235 56.9932 99.5433C58.4589 99.5532 59.4394 99.5631 59.4394 99.5631L58.8056 106.159C58.8056 106.159 56.8942 106.129 54.9729 106.129C53.0616 106.109 51.1502 106.099 51.1502 106.099C49.5756 106.08 48.1198 107.555 47.8821 109.377C47.6543 111.2 48.7734 112.675 50.3876 112.685C50.3876 112.685 52.3287 112.705 54.2797 112.715C56.2406 112.715 58.2015 112.725 58.2015 112.725L57.6072 119.32C57.6072 119.32 56.5773 119.301 55.0125 119.291C53.4577 119.301 51.378 119.281 49.3181 119.271C47.2483 119.271 45.1784 119.261 43.6335 119.251C42.0787 119.241 41.0586 119.221 41.0586 119.221C39.4245 119.221 37.8895 120.707 37.632 122.519C37.3745 124.351 38.5332 125.837 40.1772 125.847C40.1772 125.847 41.2369 125.837 42.8115 125.857C44.3961 125.847 46.4956 125.867 48.6149 125.877C50.7145 125.877 52.8338 125.877 54.4183 125.886C56.0128 125.906 57.0725 125.906 57.0725 125.906L56.5674 132.482C56.5674 132.482 55.4879 132.482 53.8637 132.452C52.2594 132.452 50.1004 132.462 47.9613 132.462C45.8123 132.452 43.6632 132.452 42.0589 132.442C40.4446 132.442 39.3849 132.433 39.3849 132.433C37.6914 132.433 36.1366 133.908 35.9187 135.711C35.7008 137.543 36.9289 139.028 38.662 139.028C38.662 139.028 39.7414 139.028 41.3755 139.028C43.0096 139.038 45.1982 139.038 47.377 139.038C49.5558 139.048 51.7444 139.048 53.3785 139.048C55.0225 139.048 56.1118 139.058 56.1118 139.058L55.7256 145.634C55.7256 145.634 52.9427 145.614 48.7635 145.624C46.6937 145.624 44.2376 145.624 41.6528 145.604C40.3456 145.624 38.9987 145.604 37.632 145.614C36.2752 145.614 34.8789 145.614 33.4924 145.614C32.1059 145.614 30.7194 145.594 29.3527 145.614C27.9861 145.594 26.6491 145.594 25.3518 145.604C22.7571 145.604 20.3406 145.604 18.2807 145.604C14.1807 145.594 11.477 145.565 11.477 145.565C11.477 145.565 11.6949 144.445 12.0514 142.455C12.2396 141.445 12.4872 140.236 12.7546 138.85C13.0121 137.454 13.329 135.889 13.6558 134.195C14.0123 132.482 14.3688 130.63 14.7749 128.669C15.171 126.718 15.587 124.648 16.0128 122.509C16.4387 120.37 16.8843 118.162 17.3399 115.914C17.8053 113.675 18.2609 111.398 18.7363 109.11C19.2017 106.832 19.6573 104.554 20.1128 102.306C20.5783 100.058 21.024 97.8498 21.4498 95.7106C21.8955 93.5715 22.3114 91.5116 22.7174 89.5606C23.1037 87.5898 23.48 85.7379 23.8365 84.0345C24.1732 82.3212 24.5001 80.7565 24.7774 79.37C25.0646 77.9736 25.3121 76.7654 25.5201 75.7651C25.9262 73.7745 26.1638 72.6257 26.1638 72.6257C26.1638 72.6257 28.0851 72.6554 30.0064 72.6852C31.9375 72.7149 33.8588 72.7446 33.8588 72.7446C33.8687 72.7446 33.8687 72.7446 33.8786 72.7446C33.8786 72.7446 35.1562 72.7644 37.0873 72.7941C38.048 72.8139 39.167 72.8337 40.3753 72.8535C41.5736 72.8634 42.8511 72.8931 44.1386 72.9129C45.4161 72.9327 46.6937 72.9525 47.9019 72.9724C49.1002 72.9823 50.2094 73.0021 51.1799 73.0219C53.0913 73.0516 54.3787 73.0714 54.3787 73.0714C54.3886 73.0714 54.3886 73.0714 54.3886 73.0714H54.3985C54.3985 73.0714 56.3 73.1011 58.2213 73.1308C60.1425 73.1605 62.0539 73.1902 62.0539 73.1902L61.3904 79.7859ZM160.96 145.713C160.96 145.713 159.444 145.713 156.81 145.703C155.483 145.703 153.859 145.683 151.977 145.683C150.105 145.673 147.996 145.673 145.669 145.693C143.371 145.693 140.856 145.693 138.192 145.683C136.864 145.683 135.508 145.683 134.101 145.683C132.715 145.683 131.269 145.664 129.833 145.683C128.387 145.664 126.902 145.683 125.406 145.673C123.921 145.654 122.405 145.673 120.88 145.673C119.355 145.673 117.82 145.673 116.275 145.673C114.74 145.673 113.185 145.654 111.64 145.664C110.086 145.644 108.531 145.664 106.996 145.664C105.451 145.664 103.916 145.664 102.391 145.664C100.865 145.644 99.3502 145.664 97.8647 145.664C96.3594 145.634 94.8838 145.654 93.428 145.634C91.9821 145.654 90.556 145.654 89.1596 145.654C87.7632 145.634 86.3965 145.634 85.0596 145.654C82.3955 145.654 79.8801 145.624 77.5528 145.644C75.2354 145.624 73.1061 145.624 71.2146 145.644C69.323 145.644 67.6691 145.644 66.3223 145.634C63.6186 145.634 62.0638 145.614 62.0638 145.614C62.0638 145.614 62.1232 144.445 62.2223 142.386C62.2718 141.346 62.3312 140.098 62.4005 138.662C62.4698 137.216 62.5689 135.602 62.6679 133.819C62.7669 132.056 62.8759 130.135 63.0145 128.105C63.1433 126.075 63.2819 123.935 63.4206 121.717C63.5691 119.509 63.7375 117.211 63.8959 114.884C64.0643 112.556 64.2326 110.199 64.4109 107.832C64.5892 105.466 64.7674 103.109 64.9457 100.781C65.1438 98.444 65.3121 96.1563 65.5003 93.9379C65.6686 91.7196 65.837 89.5804 66.0054 87.5502C66.1737 85.52 66.3223 83.5888 66.4708 81.826C66.6095 80.0434 66.7481 78.4192 66.8571 76.9733C66.9759 75.5373 67.0848 74.2796 67.1641 73.2496C67.3225 71.16 67.4216 69.9815 67.4216 69.9815C67.4216 69.9815 67.5206 68.7337 67.679 66.8817C67.8177 65.0199 68.0257 62.5341 68.2138 60.0484C68.4119 57.5626 68.61 55.0768 68.7585 53.2249C68.9071 51.3531 68.9962 50.1152 68.9962 50.1152C68.9962 50.1152 70.2836 51.5512 72.2346 53.7201C73.2151 54.7896 74.3738 56.0474 75.6315 57.4041C76.909 58.751 78.2757 60.187 79.6721 61.6131C81.0784 63.0491 82.4946 64.4752 83.8415 65.8221C85.1982 67.1689 86.4857 68.4168 87.5949 69.4863C89.8429 71.6255 91.3681 73.0516 91.3681 73.0516C92.1603 73.7745 93.1903 73.9033 94.0321 73.3685C94.864 72.8139 95.3691 71.6948 95.3294 70.4767C95.3294 70.4767 95.2898 69.2289 95.2403 67.3769C95.171 65.5349 95.1116 63.0689 95.0323 60.5931C94.963 58.1271 94.8838 55.6611 94.8343 53.8092C94.7848 51.9573 94.755 50.7292 94.755 50.7292C94.755 50.7292 96.1712 52.1553 98.3401 54.3044C99.4394 55.3739 100.737 56.6218 102.133 57.9686C103.549 59.3056 105.084 60.7317 106.629 62.1578C108.194 63.574 109.769 64.9902 111.264 66.3271C112.769 67.6641 114.195 68.902 115.424 69.9617C117.909 72.0909 119.583 73.5071 119.583 73.5071C120.454 74.24 121.494 74.3588 122.287 73.824C123.059 73.2695 123.445 72.1702 123.277 70.9521C123.277 70.9521 123.109 69.7042 122.861 67.8721C122.613 66.0399 122.277 63.5839 121.94 61.1377C121.613 58.6817 121.286 56.2256 121.039 54.3935C120.791 52.5515 120.633 51.3333 120.633 51.3333C120.633 51.3333 122.148 52.6802 124.455 54.7302C125.634 55.7404 127.011 56.9288 128.496 58.1964C130.001 59.4641 131.616 60.8208 133.24 62.1776C134.874 63.5344 136.528 64.8812 138.083 66.1489C139.667 67.4165 141.143 68.595 142.41 69.6052C144.965 71.6354 146.679 72.9724 146.679 72.9724C146.679 72.9724 146.907 74.1112 147.303 76.1018C147.501 77.0922 147.748 78.3103 148.016 79.677C148.283 81.0635 148.6 82.6381 148.947 84.3415C149.273 86.0449 149.65 87.8968 150.036 89.8478C150.432 91.7889 150.838 93.8587 151.254 95.978C151.68 98.1172 152.126 100.326 152.571 102.554C153.007 104.792 153.463 107.06 153.918 109.338C154.364 111.616 154.819 113.883 155.255 116.122C155.701 118.36 156.137 120.558 156.562 122.698C156.978 124.817 157.384 126.887 157.761 128.828C158.147 130.789 158.503 132.631 158.84 134.334C159.167 136.047 159.474 137.612 159.741 138.989C159.999 140.375 160.227 141.593 160.395 142.584C160.771 144.574 160.96 145.713 160.96 145.713Z" fill="white"/>
<path d="M149.878 68.7634C149.878 68.7634 147.778 67.1095 144.658 64.6436C143.114 63.4155 141.311 61.9696 139.41 60.4247C138.459 59.6522 137.478 58.86 136.498 58.0479C135.508 57.2358 134.527 56.4039 133.527 55.5819C132.547 54.75 131.576 53.928 130.615 53.116C129.665 52.294 128.724 51.5017 127.842 50.7193C126.07 49.1645 124.426 47.7186 123.039 46.4708C120.316 43.985 118.523 42.3212 118.523 42.3212C117.751 41.5686 116.82 41.4596 116.127 41.9944C115.433 42.5292 115.077 43.6384 115.206 44.8565C115.206 44.8565 115.344 46.0845 115.552 47.9266C115.76 49.7686 116.038 52.2147 116.325 54.6807C116.592 57.1368 116.889 59.5928 117.107 61.4348C117.315 63.2769 117.464 64.495 117.464 64.495C117.464 64.495 115.839 63.0887 113.443 60.9496C112.254 59.88 110.888 58.6421 109.432 57.2952C107.996 55.9681 106.481 54.5322 104.975 53.116C103.49 51.6899 102.024 50.2539 100.667 48.9169C99.3205 47.57 98.0826 46.3222 97.0229 45.2427C94.9432 43.0838 93.5765 41.6577 93.5765 41.6577C92.8833 40.905 91.9821 40.7862 91.2492 41.321C90.4966 41.8657 90.0311 42.9847 90.041 44.193C90.041 44.193 90.0608 45.4408 90.0707 47.2927C90.0905 49.1546 90.1004 51.6205 90.1301 54.0964C90.1598 56.5723 90.1797 59.0481 90.1995 60.8902C90.2193 62.752 90.2193 63.98 90.2193 63.98C90.2193 63.98 88.7635 62.5539 86.6045 60.4049C85.5349 59.3353 84.297 58.0776 82.9997 56.7307C81.7122 55.3838 80.3455 53.9478 78.9987 52.5218C77.6617 51.0858 76.3445 49.6399 75.1264 48.293C73.9182 46.9362 72.7991 45.6785 71.8583 44.599C69.9865 42.4302 68.7486 40.9942 68.7486 40.9942C68.1247 40.2316 67.2235 40.1028 66.4411 40.6574C65.629 41.2021 65.0546 42.3212 64.9358 43.5591C64.9358 43.5591 64.807 44.9852 64.609 47.1541C64.401 49.313 64.1237 52.2048 63.8464 55.0768C63.5691 57.9587 63.2819 60.8505 63.0739 63.0095C62.8462 65.1783 62.7075 66.6044 62.7075 66.6044L57.5577 66.5252C57.5577 66.5252 57.6172 65.5349 57.7261 63.8216C57.8449 62.0984 58.0133 59.6324 58.2114 56.6812C58.3104 55.2056 58.4193 53.6111 58.5382 51.9077C58.6471 50.2242 58.7759 48.4415 58.9046 46.5995C59.0234 44.7575 59.1522 42.8461 59.2809 40.9149C59.4097 38.964 59.5384 37.0031 59.6672 35.0422C59.786 33.0714 59.9148 31.1105 60.0336 29.1595C60.1425 27.2284 60.2515 25.3269 60.3505 23.4849C60.4594 21.6428 60.5486 19.8602 60.6278 18.1766C60.707 16.4732 60.7763 14.8887 60.8358 13.4131C60.9447 10.4718 61.0239 8.0058 61.0834 6.29251C61.123 4.57921 61.1428 3.59877 61.1428 3.59877C61.1725 1.88548 60.3802 0.518803 59.3503 0.47919C59.3503 0.47919 58.6966 0.459383 57.736 0.419769C56.7655 0.380155 55.4681 0.330638 54.1807 0.281121C52.8932 0.231604 51.5959 0.182087 50.6253 0.142473C49.6548 0.102859 49.0111 0.0731489 49.0111 0.0731489C47.9712 0.0335352 47.0007 1.33089 46.763 3.05408C46.763 3.05408 46.6243 4.03452 46.3569 5.73792C46.0796 7.45121 45.6439 9.91717 45.0992 12.8684C44.8021 14.344 44.4753 15.9286 44.1386 17.6319C43.7721 19.3254 43.3958 21.1081 42.9898 22.9501C42.5837 24.7921 42.148 26.7035 41.7122 28.6446C41.2666 30.5856 40.8209 32.5564 40.3555 34.5272C39.8999 36.498 39.4344 38.4688 38.9789 40.4198C38.5134 42.3608 38.0579 44.2623 37.6122 46.1142C37.1765 47.9563 36.7407 49.7488 36.3248 51.4423C35.9187 53.1457 35.5325 54.7401 35.1661 56.2256C34.453 59.1868 33.839 61.6527 33.4231 63.3759C32.9972 65.109 32.7595 66.0994 32.7595 66.0994C32.7595 66.0994 30.8085 66.0598 28.8477 66.0201C26.9066 66.0003 24.9556 65.9706 24.9556 65.9706C23.5493 65.9409 22.0935 67.4066 21.7073 69.2388C21.7073 69.2388 21.4498 70.4767 20.9843 72.6653C20.7566 73.7448 20.4793 75.062 20.1524 76.5871C19.8355 78.0924 19.479 79.8156 19.0829 81.6775C18.6867 83.5492 18.2609 85.5695 17.8053 87.7087C17.3597 89.8478 16.8843 92.0959 16.3891 94.4232C15.894 96.7604 15.379 99.1768 14.864 101.623C14.349 104.079 13.8242 106.565 13.2993 109.051C12.7744 111.536 12.2495 114.022 11.7246 116.478C11.2096 118.924 10.7046 121.341 10.2094 123.678C9.71422 126.005 9.23886 128.263 8.7833 130.402C8.33765 132.542 7.9118 134.552 7.51566 136.414C7.11952 138.286 6.763 139.999 6.43619 141.504C6.11928 143.039 5.84198 144.346 5.6043 145.446C5.14874 147.615 4.88135 148.862 4.88135 148.862C4.49511 150.704 5.53497 152.19 7.28788 152.19C7.28788 152.19 9.75384 152.19 14.0717 152.19C16.2208 152.19 18.8452 152.19 21.8558 152.19C23.3513 152.19 24.9556 152.19 26.6293 152.19C28.3228 152.19 30.0955 152.19 31.9474 152.19C33.7994 152.19 35.7107 152.19 37.7112 152.19C39.7117 152.19 41.7717 152.19 43.8811 152.19C46.0004 152.19 48.1792 152.19 50.4074 152.2C52.6357 152.2 54.9036 152.2 57.2111 152.2C59.5285 152.2 61.8855 152.2 64.2525 152.2C66.6392 152.2 69.0457 152.2 71.4721 152.2C73.8885 152.2 76.3445 152.2 78.8006 152.2C81.2567 152.2 83.7226 152.2 86.1886 152.2C88.6545 152.2 91.1106 152.2 93.5765 152.2C96.0326 152.2 98.4787 152.2 100.905 152.2C103.331 152.2 105.738 152.2 108.125 152.2C110.492 152.2 112.849 152.2 115.166 152.2C117.464 152.2 119.741 152.2 121.97 152.2C124.198 152.2 126.377 152.2 128.486 152.2C130.605 152.2 132.665 152.2 134.666 152.2C136.656 152.2 138.568 152.2 140.43 152.2C142.282 152.2 144.044 152.2 145.748 152.2C147.412 152.2 149.026 152.2 150.521 152.2C153.532 152.2 156.146 152.2 158.295 152.2C162.613 152.2 165.089 152.2 165.089 152.2C166.842 152.2 167.912 150.764 167.535 148.971C167.535 148.971 167.288 147.753 166.852 145.644C166.634 144.574 166.367 143.297 166.05 141.801C165.753 140.336 165.406 138.672 165.02 136.85C164.653 135.027 164.247 133.066 163.812 130.987C163.376 128.897 162.93 126.708 162.455 124.431C161.989 122.163 161.494 119.806 161.019 117.429C160.524 115.032 160.019 112.606 159.514 110.189C159.018 107.763 158.503 105.347 158.018 102.95C157.523 100.563 157.038 98.2162 156.572 95.9384C156.097 93.6705 155.631 91.472 155.216 89.3923C154.77 87.3125 154.374 85.3417 153.997 83.5195C153.621 81.7072 153.265 80.0335 152.967 78.5678C152.66 77.0823 152.403 75.7948 152.175 74.7352C151.73 72.6158 151.492 71.4076 151.492 71.4076C151.274 70.3677 150.68 69.3774 149.878 68.7634ZM39.375 59.5631L44.6436 59.6621C46.0103 59.672 47.3275 58.2261 47.6246 56.4039C47.9019 54.5619 47.0601 53.0763 45.7231 53.0466L40.8803 52.9476C40.8803 52.9476 41.5439 50.0459 42.5243 45.7082C43.0096 43.5393 43.584 40.9942 44.1782 38.2905C44.4753 36.9337 44.7823 35.5275 45.0893 34.1113C45.3864 32.6951 45.6934 31.2492 46.0103 29.8033C46.3074 28.3574 46.6144 26.9115 46.8917 25.4953C47.1888 24.0692 47.4661 22.6728 47.7236 21.316C48.2485 18.6124 48.7239 16.0771 49.1101 13.9182C49.8231 9.59035 50.2589 6.71836 50.2589 6.71836C50.2589 6.71836 51.9623 6.76787 53.6558 6.8372C55.3493 6.89662 57.0428 6.96594 57.0428 6.96594C57.0428 6.96594 57.0031 7.89687 56.9338 9.51113C56.8546 11.1452 56.7258 13.4626 56.5674 16.2455C56.4783 17.6319 56.3891 19.1472 56.2802 20.7416C56.1713 22.3361 56.0425 24.0197 55.9237 25.7627C55.7949 27.5057 55.6563 29.3081 55.5176 31.1303C55.3691 32.9724 55.2205 34.8243 55.0621 36.6763C54.9135 38.5282 54.7551 40.39 54.6065 42.2321C54.4481 44.0543 54.2995 45.8666 54.141 47.6096C53.9925 49.3527 53.8439 51.0362 53.7053 52.6307C53.5765 54.235 53.4478 55.7404 53.329 57.1368C53.0913 59.9196 52.8932 62.2469 52.7546 63.881C52.6159 65.4953 52.5466 66.4361 52.5466 66.4361C52.5466 66.4361 51.6157 66.4064 50.249 66.3866C48.8724 66.3767 47.0304 66.337 45.1982 66.3073C43.3562 66.2776 41.5142 66.2479 40.1277 66.2083C38.7511 66.1885 37.8202 66.1786 37.8202 66.1786L39.375 59.5631ZM61.3904 79.7859C61.3904 79.7859 60.4792 79.776 59.1027 79.7661C57.7459 79.7463 55.9138 79.7265 54.0915 79.6869C52.2792 79.6671 50.457 79.6374 49.0903 79.6275C47.7137 79.6077 46.8125 79.5879 46.8125 79.5879C45.3666 79.568 43.9603 81.0238 43.6731 82.856C43.3859 84.6782 44.3465 86.1835 45.8123 86.1934C45.8123 86.1934 46.7531 86.2132 48.1495 86.2232C49.5459 86.243 51.4077 86.2727 53.2695 86.2925C55.1314 86.3123 56.9932 86.342 58.3896 86.3519C59.7959 86.3717 60.7367 86.3816 60.7367 86.3816L60.0831 92.9773C60.0831 92.9773 59.1225 92.9674 57.6865 92.9575C56.2604 92.9377 54.349 92.908 52.4476 92.8981C50.5461 92.8783 48.6347 92.8585 47.2185 92.8386C45.7825 92.8188 44.8417 92.8089 44.8417 92.8089C43.3265 92.799 41.8905 94.2647 41.6033 96.087C41.3161 97.9092 42.3361 99.4046 43.8712 99.4145C43.8712 99.4145 44.8318 99.4244 46.2876 99.4442C47.7434 99.4541 49.6845 99.474 51.6355 99.4938C53.5765 99.5136 55.5275 99.5235 56.9932 99.5433C58.4589 99.5532 59.4394 99.5631 59.4394 99.5631L58.8056 106.159C58.8056 106.159 56.8942 106.129 54.9729 106.129C53.0616 106.109 51.1502 106.099 51.1502 106.099C49.5756 106.08 48.1198 107.555 47.8821 109.377C47.6543 111.2 48.7734 112.675 50.3876 112.685C50.3876 112.685 52.3287 112.705 54.2797 112.715C56.2406 112.715 58.2015 112.725 58.2015 112.725L57.6072 119.32C57.6072 119.32 56.5773 119.301 55.0125 119.291C53.4577 119.301 51.378 119.281 49.3181 119.271C47.2483 119.271 45.1784 119.261 43.6335 119.251C42.0787 119.241 41.0586 119.221 41.0586 119.221C39.4245 119.221 37.8895 120.707 37.632 122.519C37.3745 124.351 38.5332 125.837 40.1772 125.847C40.1772 125.847 41.2369 125.837 42.8115 125.857C44.3961 125.847 46.4956 125.867 48.6149 125.877C50.7145 125.877 52.8338 125.877 54.4183 125.886C56.0128 125.906 57.0725 125.906 57.0725 125.906L56.5674 132.482C56.5674 132.482 55.4879 132.482 53.8637 132.452C52.2594 132.452 50.1004 132.462 47.9613 132.462C45.8123 132.452 43.6632 132.452 42.0589 132.442C40.4446 132.442 39.3849 132.433 39.3849 132.433C37.6914 132.433 36.1366 133.908 35.9187 135.711C35.7008 137.543 36.9289 139.028 38.662 139.028C38.662 139.028 39.7414 139.028 41.3755 139.028C43.0096 139.038 45.1982 139.038 47.377 139.038C49.5558 139.048 51.7444 139.048 53.3785 139.048C55.0225 139.048 56.1118 139.058 56.1118 139.058L55.7256 145.634C55.7256 145.634 52.9427 145.614 48.7635 145.624C46.6937 145.624 44.2376 145.624 41.6528 145.604C40.3456 145.624 38.9987 145.604 37.632 145.614C36.2752 145.614 34.8789 145.614 33.4924 145.614C32.1059 145.614 30.7194 145.594 29.3527 145.614C27.9861 145.594 26.6491 145.594 25.3518 145.604C22.7571 145.604 20.3406 145.604 18.2807 145.604C14.1807 145.594 11.477 145.565 11.477 145.565C11.477 145.565 11.6949 144.445 12.0514 142.455C12.2396 141.445 12.4872 140.236 12.7546 138.85C13.0121 137.454 13.329 135.889 13.6558 134.195C14.0123 132.482 14.3688 130.63 14.7749 128.669C15.171 126.718 15.587 124.648 16.0128 122.509C16.4387 120.37 16.8843 118.162 17.3399 115.914C17.8053 113.675 18.2609 111.398 18.7363 109.11C19.2017 106.832 19.6573 104.554 20.1128 102.306C20.5783 100.058 21.024 97.8498 21.4498 95.7106C21.8955 93.5715 22.3114 91.5116 22.7174 89.5606C23.1037 87.5898 23.48 85.7379 23.8365 84.0345C24.1732 82.3212 24.5001 80.7565 24.7774 79.37C25.0646 77.9736 25.3121 76.7654 25.5201 75.7651C25.9262 73.7745 26.1638 72.6257 26.1638 72.6257C26.1638 72.6257 28.0851 72.6554 30.0064 72.6852C31.9375 72.7149 33.8588 72.7446 33.8588 72.7446C33.8687 72.7446 33.8687 72.7446 33.8786 72.7446C33.8786 72.7446 35.1562 72.7644 37.0873 72.7941C38.048 72.8139 39.167 72.8337 40.3753 72.8535C41.5736 72.8634 42.8511 72.8931 44.1386 72.9129C45.4161 72.9327 46.6937 72.9525 47.9019 72.9724C49.1002 72.9823 50.2094 73.0021 51.1799 73.0219C53.0913 73.0516 54.3787 73.0714 54.3787 73.0714C54.3886 73.0714 54.3886 73.0714 54.3886 73.0714H54.3985C54.3985 73.0714 56.3 73.1011 58.2213 73.1308C60.1425 73.1605 62.0539 73.1902 62.0539 73.1902L61.3904 79.7859ZM160.96 145.713C160.96 145.713 159.444 145.713 156.81 145.703C155.483 145.703 153.859 145.683 151.977 145.683C150.105 145.673 147.996 145.673 145.669 145.693C143.371 145.693 140.856 145.693 138.192 145.683C136.864 145.683 135.508 145.683 134.101 145.683C132.715 145.683 131.269 145.664 129.833 145.683C128.387 145.664 126.902 145.683 125.406 145.673C123.921 145.654 122.405 145.673 120.88 145.673C119.355 145.673 117.82 145.673 116.275 145.673C114.74 145.673 113.185 145.654 111.64 145.664C110.086 145.644 108.531 145.664 106.996 145.664C105.451 145.664 103.916 145.664 102.391 145.664C100.865 145.644 99.3502 145.664 97.8647 145.664C96.3594 145.634 94.8838 145.654 93.428 145.634C91.9821 145.654 90.556 145.654 89.1596 145.654C87.7632 145.634 86.3965 145.634 85.0596 145.654C82.3955 145.654 79.8801 145.624 77.5528 145.644C75.2354 145.624 73.1061 145.624 71.2146 145.644C69.323 145.644 67.6691 145.644 66.3223 145.634C63.6186 145.634 62.0638 145.614 62.0638 145.614C62.0638 145.614 62.1232 144.445 62.2223 142.386C62.2718 141.346 62.3312 140.098 62.4005 138.662C62.4698 137.216 62.5689 135.602 62.6679 133.819C62.7669 132.056 62.8759 130.135 63.0145 128.105C63.1433 126.075 63.2819 123.935 63.4206 121.717C63.5691 119.509 63.7375 117.211 63.8959 114.884C64.0643 112.556 64.2326 110.199 64.4109 107.832C64.5892 105.466 64.7674 103.109 64.9457 100.781C65.1438 98.444 65.3121 96.1563 65.5003 93.9379C65.6686 91.7196 65.837 89.5804 66.0054 87.5502C66.1737 85.52 66.3223 83.5888 66.4708 81.826C66.6095 80.0434 66.7481 78.4192 66.8571 76.9733C66.9759 75.5373 67.0848 74.2796 67.1641 73.2496C67.3225 71.16 67.4216 69.9815 67.4216 69.9815C67.4216 69.9815 67.5206 68.7337 67.679 66.8817C67.8177 65.0199 68.0257 62.5341 68.2138 60.0484C68.4119 57.5626 68.61 55.0768 68.7585 53.2249C68.9071 51.3531 68.9962 50.1152 68.9962 50.1152C68.9962 50.1152 70.2836 51.5512 72.2346 53.7201C73.2151 54.7896 74.3738 56.0474 75.6315 57.4041C76.909 58.751 78.2757 60.187 79.6721 61.6131C81.0784 63.0491 82.4946 64.4752 83.8415 65.8221C85.1982 67.1689 86.4857 68.4168 87.5949 69.4863C89.8429 71.6255 91.3681 73.0516 91.3681 73.0516C92.1603 73.7745 93.1903 73.9033 94.0321 73.3685C94.864 72.8139 95.3691 71.6948 95.3294 70.4767C95.3294 70.4767 95.2898 69.2289 95.2403 67.3769C95.171 65.5349 95.1116 63.0689 95.0323 60.5931C94.963 58.1271 94.8838 55.6611 94.8343 53.8092C94.7848 51.9573 94.755 50.7292 94.755 50.7292C94.755 50.7292 96.1712 52.1553 98.3401 54.3044C99.4394 55.3739 100.737 56.6218 102.133 57.9686C103.549 59.3056 105.084 60.7317 106.629 62.1578C108.194 63.574 109.769 64.9902 111.264 66.3271C112.769 67.6641 114.195 68.902 115.424 69.9617C117.909 72.0909 119.583 73.5071 119.583 73.5071C120.454 74.24 121.494 74.3588 122.287 73.824C123.059 73.2695 123.445 72.1702 123.277 70.9521C123.277 70.9521 123.109 69.7042 122.861 67.8721C122.613 66.0399 122.277 63.5839 121.94 61.1377C121.613 58.6817 121.286 56.2256 121.039 54.3935C120.791 52.5515 120.633 51.3333 120.633 51.3333C120.633 51.3333 122.148 52.6802 124.455 54.7302C125.634 55.7404 127.011 56.9288 128.496 58.1964C130.001 59.4641 131.616 60.8208 133.24 62.1776C134.874 63.5344 136.528 64.8812 138.083 66.1489C139.667 67.4165 141.143 68.595 142.41 69.6052C144.965 71.6354 146.679 72.9724 146.679 72.9724C146.679 72.9724 146.907 74.1112 147.303 76.1018C147.501 77.0922 147.748 78.3103 148.016 79.677C148.283 81.0635 148.6 82.6381 148.947 84.3415C149.273 86.0449 149.65 87.8968 150.036 89.8478C150.432 91.7889 150.838 93.8587 151.254 95.978C151.68 98.1172 152.126 100.326 152.571 102.554C153.007 104.792 153.463 107.06 153.918 109.338C154.364 111.616 154.819 113.883 155.255 116.122C155.701 118.36 156.137 120.558 156.562 122.698C156.978 124.817 157.384 126.887 157.761 128.828C158.147 130.789 158.503 132.631 158.84 134.334C159.167 136.047 159.474 137.612 159.741 138.989C159.999 140.375 160.227 141.593 160.395 142.584C160.771 144.574 160.96 145.713 160.96 145.713Z" stroke="white" stroke-width="2" mask="url(#path-1-inside-1_102_132)"/>
</g>
<path d="M41.95 112.626H42.0292C43.6434 112.645 45.1191 111.18 45.3765 109.358C45.6043 107.525 44.5447 106.05 42.9799 106.03H42.9106C41.3458 106.02 39.8405 107.486 39.5731 109.308C39.3057 111.14 40.3654 112.616 41.95 112.626Z" fill="white"/>
<path d="M97.4884 93.3734C97.4884 93.3734 94.7353 93.3437 91.9821 93.314C89.229 93.2843 86.4758 93.2546 86.4758 93.2546C84.9606 93.2348 83.7028 94.6807 83.683 96.493C83.683 96.493 83.6335 99.781 83.584 103.049C83.5147 106.327 83.485 109.615 83.485 109.615C83.4652 111.418 84.7526 112.883 86.3768 112.893C86.3768 112.893 89.3181 112.923 92.2594 112.923C95.1908 112.953 98.142 112.972 98.142 112.972C99.7662 112.972 101.024 111.526 100.945 109.714C100.945 109.714 100.806 106.446 100.677 103.188C100.539 99.9196 100.39 96.6614 100.39 96.6614C100.311 94.859 99.0136 93.3833 97.4884 93.3734ZM95.0522 106.396L89.2983 106.367L89.2686 99.8305L94.9036 99.8701L95.0522 106.396Z" fill="white"/>
<path d="M117.048 96.8099C117.048 96.8099 117.394 100.078 117.721 103.326C118.038 106.575 118.355 109.843 118.355 109.843C118.533 111.635 119.969 113.091 121.583 113.111C121.583 113.111 124.495 113.121 127.407 113.151C130.298 113.17 133.2 113.19 133.2 113.19C134.795 113.2 135.864 111.754 135.587 109.952C135.587 109.952 135.102 106.713 134.606 103.475C134.101 100.236 133.606 96.998 133.606 96.998C133.319 95.2055 131.883 93.7398 130.378 93.72C130.378 93.72 127.654 93.6903 124.921 93.6507C122.197 93.621 119.464 93.6012 119.464 93.6012C117.949 93.5813 116.869 95.0173 117.048 96.8099ZM122.98 100.128L128.555 100.177L129.447 106.664L123.742 106.624L122.98 100.128Z" fill="white"/>
<path d="M106.629 132.581L106.57 132.601C104.857 132.571 103.51 134.047 103.559 135.849C103.629 137.662 105.084 139.117 106.808 139.127H106.887C108.62 139.127 109.967 137.671 109.888 135.859C109.808 134.067 108.333 132.601 106.629 132.581Z" fill="white"/>
<path d="M97.6667 132.571C97.6667 132.571 94.8145 132.571 91.9722 132.561C89.1201 132.561 86.2877 132.551 86.2877 132.551C84.5744 132.542 83.1681 134.007 83.1483 135.81C83.1285 137.602 84.5051 139.098 86.2481 139.098C86.2481 139.098 89.13 139.098 92.0119 139.108C94.9037 139.108 97.7856 139.108 97.7856 139.108C99.5187 139.117 100.895 137.652 100.846 135.839C100.796 134.047 99.3701 132.581 97.6667 132.571Z" fill="white"/>
<defs>
<filter id="filter0_d_102_132" x="0.801025" y="0.0722656" width="170.81" height="160.128" filterUnits="userSpaceOnUse" color-interpolation-filters="sRGB">
<feFlood flood-opacity="0" result="BackgroundImageFix"/>
<feColorMatrix in="SourceAlpha" type="matrix" values="0 0 0 0 0 0 0 0 0 0 0 0 0 0 0 0 0 0 127 0" result="hardAlpha"/>
<feOffset dy="4"/>
<feGaussianBlur stdDeviation="2"/>
<feComposite in2="hardAlpha" operator="out"/>
<feColorMatrix type="matrix" values="0 0 0 0 0 0 0 0 0 0 0 0 0 0 0 0 0 0 0.25 0"/>
<feBlend mode="normal" in2="BackgroundImageFix" result="effect1_dropShadow_102_132"/>
<feBlend mode="normal" in="SourceGraphic" in2="effect1_dropShadow_102_132" result="shape"/>
</filter>
</defs>
</svg>
