<svg width="180" height="180" viewBox="-1 -1 31 31" xmlns="http://www.w3.org/2000/svg"
    xmlns:xlink="http://www.w3.org/1999/xlink" shape-rendering="geometricPrecision" id="qr code">
    <path fill-opacity="1" fill="rgb(0, 0, 0)" id="qr pixels"
        d="M10.5,0.04999999999999999h0a0.45,0.45 0 0 1 0.45,0.45v0a0.45,0.45 0 0 1 -0.45,0.45h0a0.45,0.45 0 0 1 -0.45,-0.45v0a0.45,0.45 0 0 1 0.45,-0.45zM12.5,0.04999999999999999h0a0.45,0.45 0 0 1 0.45,0.45v0a0.45,0.45 0 0 1 -0.45,0.45h0a0.45,0.45 0 0 1 -0.45,-0.45v0a0.45,0.45 0 0 1 0.45,-0.45zM13.5,0.04999999999999999h0a0.45,0.45 0 0 1 0.45,0.45v0a0.45,0.45 0 0 1 -0.45,0.45h0a0.45,0.45 0 0 1 -0.45,-0.45v0a0.45,0.45 0 0 1 0.45,-0.45zM18.5,0.04999999999999999h0a0.45,0.45 0 0 1 0.45,0.45v0a0.45,0.45 0 0 1 -0.45,0.45h0a0.45,0.45 0 0 1 -0.45,-0.45v0a0.45,0.45 0 0 1 0.45,-0.45zM19.5,0.04999999999999999h0a0.45,0.45 0 0 1 0.45,0.45v0a0.45,0.45 0 0 1 -0.45,0.45h0a0.45,0.45 0 0 1 -0.45,-0.45v0a0.45,0.45 0 0 1 0.45,-0.45zM20.5,0.04999999999999999h0a0.45,0.45 0 0 1 0.45,0.45v0a0.45,0.45 0 0 1 -0.45,0.45h0a0.45,0.45 0 0 1 -0.45,-0.45v0a0.45,0.45 0 0 1 0.45,-0.45zM8.5,1.05h0a0.45,0.45 0 0 1 0.45,0.45v0a0.45,0.45 0 0 1 -0.45,0.45h0a0.45,0.45 0 0 1 -0.45,-0.45v0a0.45,0.45 0 0 1 0.45,-0.45zM10.5,1.05h0a0.45,0.45 0 0 1 0.45,0.45v0a0.45,0.45 0 0 1 -0.45,0.45h0a0.45,0.45 0 0 1 -0.45,-0.45v0a0.45,0.45 0 0 1 0.45,-0.45zM14.5,1.05h0a0.45,0.45 0 0 1 0.45,0.45v0a0.45,0.45 0 0 1 -0.45,0.45h0a0.45,0.45 0 0 1 -0.45,-0.45v0a0.45,0.45 0 0 1 0.45,-0.45zM15.5,1.05h0a0.45,0.45 0 0 1 0.45,0.45v0a0.45,0.45 0 0 1 -0.45,0.45h0a0.45,0.45 0 0 1 -0.45,-0.45v0a0.45,0.45 0 0 1 0.45,-0.45zM16.5,1.05h0a0.45,0.45 0 0 1 0.45,0.45v0a0.45,0.45 0 0 1 -0.45,0.45h0a0.45,0.45 0 0 1 -0.45,-0.45v0a0.45,0.45 0 0 1 0.45,-0.45zM12.5,2.05h0a0.45,0.45 0 0 1 0.45,0.45v0a0.45,0.45 0 0 1 -0.45,0.45h0a0.45,0.45 0 0 1 -0.45,-0.45v0a0.45,0.45 0 0 1 0.45,-0.45zM14.5,2.05h0a0.45,0.45 0 0 1 0.45,0.45v0a0.45,0.45 0 0 1 -0.45,0.45h0a0.45,0.45 0 0 1 -0.45,-0.45v0a0.45,0.45 0 0 1 0.45,-0.45zM15.5,2.05h0a0.45,0.45 0 0 1 0.45,0.45v0a0.45,0.45 0 0 1 -0.45,0.45h0a0.45,0.45 0 0 1 -0.45,-0.45v0a0.45,0.45 0 0 1 0.45,-0.45zM18.5,2.05h0a0.45,0.45 0 0 1 0.45,0.45v0a0.45,0.45 0 0 1 -0.45,0.45h0a0.45,0.45 0 0 1 -0.45,-0.45v0a0.45,0.45 0 0 1 0.45,-0.45zM20.5,2.05h0a0.45,0.45 0 0 1 0.45,0.45v0a0.45,0.45 0 0 1 -0.45,0.45h0a0.45,0.45 0 0 1 -0.45,-0.45v0a0.45,0.45 0 0 1 0.45,-0.45zM8.5,3.05h0a0.45,0.45 0 0 1 0.45,0.45v0a0.45,0.45 0 0 1 -0.45,0.45h0a0.45,0.45 0 0 1 -0.45,-0.45v0a0.45,0.45 0 0 1 0.45,-0.45zM9.5,3.05h0a0.45,0.45 0 0 1 0.45,0.45v0a0.45,0.45 0 0 1 -0.45,0.45h0a0.45,0.45 0 0 1 -0.45,-0.45v0a0.45,0.45 0 0 1 0.45,-0.45zM10.5,3.05h0a0.45,0.45 0 0 1 0.45,0.45v0a0.45,0.45 0 0 1 -0.45,0.45h0a0.45,0.45 0 0 1 -0.45,-0.45v0a0.45,0.45 0 0 1 0.45,-0.45zM12.5,3.05h0a0.45,0.45 0 0 1 0.45,0.45v0a0.45,0.45 0 0 1 -0.45,0.45h0a0.45,0.45 0 0 1 -0.45,-0.45v0a0.45,0.45 0 0 1 0.45,-0.45zM13.5,3.05h0a0.45,0.45 0 0 1 0.45,0.45v0a0.45,0.45 0 0 1 -0.45,0.45h0a0.45,0.45 0 0 1 -0.45,-0.45v0a0.45,0.45 0 0 1 0.45,-0.45zM14.5,3.05h0a0.45,0.45 0 0 1 0.45,0.45v0a0.45,0.45 0 0 1 -0.45,0.45h0a0.45,0.45 0 0 1 -0.45,-0.45v0a0.45,0.45 0 0 1 0.45,-0.45zM17.5,3.05h0a0.45,0.45 0 0 1 0.45,0.45v0a0.45,0.45 0 0 1 -0.45,0.45h0a0.45,0.45 0 0 1 -0.45,-0.45v0a0.45,0.45 0 0 1 0.45,-0.45zM18.5,3.05h0a0.45,0.45 0 0 1 0.45,0.45v0a0.45,0.45 0 0 1 -0.45,0.45h0a0.45,0.45 0 0 1 -0.45,-0.45v0a0.45,0.45 0 0 1 0.45,-0.45zM19.5,3.05h0a0.45,0.45 0 0 1 0.45,0.45v0a0.45,0.45 0 0 1 -0.45,0.45h0a0.45,0.45 0 0 1 -0.45,-0.45v0a0.45,0.45 0 0 1 0.45,-0.45zM9.5,4.05h0a0.45,0.45 0 0 1 0.45,0.45v0a0.45,0.45 0 0 1 -0.45,0.45h0a0.45,0.45 0 0 1 -0.45,-0.45v0a0.45,0.45 0 0 1 0.45,-0.45zM14.5,4.05h0a0.45,0.45 0 0 1 0.45,0.45v0a0.45,0.45 0 0 1 -0.45,0.45h0a0.45,0.45 0 0 1 -0.45,-0.45v0a0.45,0.45 0 0 1 0.45,-0.45zM16.5,4.05h0a0.45,0.45 0 0 1 0.45,0.45v0a0.45,0.45 0 0 1 -0.45,0.45h0a0.45,0.45 0 0 1 -0.45,-0.45v0a0.45,0.45 0 0 1 0.45,-0.45zM17.5,4.05h0a0.45,0.45 0 0 1 0.45,0.45v0a0.45,0.45 0 0 1 -0.45,0.45h0a0.45,0.45 0 0 1 -0.45,-0.45v0a0.45,0.45 0 0 1 0.45,-0.45zM18.5,4.05h0a0.45,0.45 0 0 1 0.45,0.45v0a0.45,0.45 0 0 1 -0.45,0.45h0a0.45,0.45 0 0 1 -0.45,-0.45v0a0.45,0.45 0 0 1 0.45,-0.45zM19.5,4.05h0a0.45,0.45 0 0 1 0.45,0.45v0a0.45,0.45 0 0 1 -0.45,0.45h0a0.45,0.45 0 0 1 -0.45,-0.45v0a0.45,0.45 0 0 1 0.45,-0.45zM20.5,4.05h0a0.45,0.45 0 0 1 0.45,0.45v0a0.45,0.45 0 0 1 -0.45,0.45h0a0.45,0.45 0 0 1 -0.45,-0.45v0a0.45,0.45 0 0 1 0.45,-0.45zM8.5,5.05h0a0.45,0.45 0 0 1 0.45,0.45v0a0.45,0.45 0 0 1 -0.45,0.45h0a0.45,0.45 0 0 1 -0.45,-0.45v0a0.45,0.45 0 0 1 0.45,-0.45zM9.5,5.05h0a0.45,0.45 0 0 1 0.45,0.45v0a0.45,0.45 0 0 1 -0.45,0.45h0a0.45,0.45 0 0 1 -0.45,-0.45v0a0.45,0.45 0 0 1 0.45,-0.45zM11.5,5.05h0a0.45,0.45 0 0 1 0.45,0.45v0a0.45,0.45 0 0 1 -0.45,0.45h0a0.45,0.45 0 0 1 -0.45,-0.45v0a0.45,0.45 0 0 1 0.45,-0.45zM12.5,5.05h0a0.45,0.45 0 0 1 0.45,0.45v0a0.45,0.45 0 0 1 -0.45,0.45h0a0.45,0.45 0 0 1 -0.45,-0.45v0a0.45,0.45 0 0 1 0.45,-0.45zM13.5,5.05h0a0.45,0.45 0 0 1 0.45,0.45v0a0.45,0.45 0 0 1 -0.45,0.45h0a0.45,0.45 0 0 1 -0.45,-0.45v0a0.45,0.45 0 0 1 0.45,-0.45zM14.5,5.05h0a0.45,0.45 0 0 1 0.45,0.45v0a0.45,0.45 0 0 1 -0.45,0.45h0a0.45,0.45 0 0 1 -0.45,-0.45v0a0.45,0.45 0 0 1 0.45,-0.45zM15.5,5.05h0a0.45,0.45 0 0 1 0.45,0.45v0a0.45,0.45 0 0 1 -0.45,0.45h0a0.45,0.45 0 0 1 -0.45,-0.45v0a0.45,0.45 0 0 1 0.45,-0.45zM17.5,5.05h0a0.45,0.45 0 0 1 0.45,0.45v0a0.45,0.45 0 0 1 -0.45,0.45h0a0.45,0.45 0 0 1 -0.45,-0.45v0a0.45,0.45 0 0 1 0.45,-0.45zM20.5,5.05h0a0.45,0.45 0 0 1 0.45,0.45v0a0.45,0.45 0 0 1 -0.45,0.45h0a0.45,0.45 0 0 1 -0.45,-0.45v0a0.45,0.45 0 0 1 0.45,-0.45zM8.5,6.05h0a0.45,0.45 0 0 1 0.45,0.45v0a0.45,0.45 0 0 1 -0.45,0.45h0a0.45,0.45 0 0 1 -0.45,-0.45v0a0.45,0.45 0 0 1 0.45,-0.45zM10.5,6.05h0a0.45,0.45 0 0 1 0.45,0.45v0a0.45,0.45 0 0 1 -0.45,0.45h0a0.45,0.45 0 0 1 -0.45,-0.45v0a0.45,0.45 0 0 1 0.45,-0.45zM12.5,6.05h0a0.45,0.45 0 0 1 0.45,0.45v0a0.45,0.45 0 0 1 -0.45,0.45h0a0.45,0.45 0 0 1 -0.45,-0.45v0a0.45,0.45 0 0 1 0.45,-0.45zM14.5,6.05h0a0.45,0.45 0 0 1 0.45,0.45v0a0.45,0.45 0 0 1 -0.45,0.45h0a0.45,0.45 0 0 1 -0.45,-0.45v0a0.45,0.45 0 0 1 0.45,-0.45zM16.5,6.05h0a0.45,0.45 0 0 1 0.45,0.45v0a0.45,0.45 0 0 1 -0.45,0.45h0a0.45,0.45 0 0 1 -0.45,-0.45v0a0.45,0.45 0 0 1 0.45,-0.45zM18.5,6.05h0a0.45,0.45 0 0 1 0.45,0.45v0a0.45,0.45 0 0 1 -0.45,0.45h0a0.45,0.45 0 0 1 -0.45,-0.45v0a0.45,0.45 0 0 1 0.45,-0.45zM20.5,6.05h0a0.45,0.45 0 0 1 0.45,0.45v0a0.45,0.45 0 0 1 -0.45,0.45h0a0.45,0.45 0 0 1 -0.45,-0.45v0a0.45,0.45 0 0 1 0.45,-0.45zM9.5,7.05h0a0.45,0.45 0 0 1 0.45,0.45v0a0.45,0.45 0 0 1 -0.45,0.45h0a0.45,0.45 0 0 1 -0.45,-0.45v0a0.45,0.45 0 0 1 0.45,-0.45zM10.5,7.05h0a0.45,0.45 0 0 1 0.45,0.45v0a0.45,0.45 0 0 1 -0.45,0.45h0a0.45,0.45 0 0 1 -0.45,-0.45v0a0.45,0.45 0 0 1 0.45,-0.45zM11.5,7.05h0a0.45,0.45 0 0 1 0.45,0.45v0a0.45,0.45 0 0 1 -0.45,0.45h0a0.45,0.45 0 0 1 -0.45,-0.45v0a0.45,0.45 0 0 1 0.45,-0.45zM15.5,7.05h0a0.45,0.45 0 0 1 0.45,0.45v0a0.45,0.45 0 0 1 -0.45,0.45h0a0.45,0.45 0 0 1 -0.45,-0.45v0a0.45,0.45 0 0 1 0.45,-0.45zM16.5,7.05h0a0.45,0.45 0 0 1 0.45,0.45v0a0.45,0.45 0 0 1 -0.45,0.45h0a0.45,0.45 0 0 1 -0.45,-0.45v0a0.45,0.45 0 0 1 0.45,-0.45zM18.5,7.05h0a0.45,0.45 0 0 1 0.45,0.45v0a0.45,0.45 0 0 1 -0.45,0.45h0a0.45,0.45 0 0 1 -0.45,-0.45v0a0.45,0.45 0 0 1 0.45,-0.45zM20.5,7.05h0a0.45,0.45 0 0 1 0.45,0.45v0a0.45,0.45 0 0 1 -0.45,0.45h0a0.45,0.45 0 0 1 -0.45,-0.45v0a0.45,0.45 0 0 1 0.45,-0.45zM0.5,8.05h0a0.45,0.45 0 0 1 0.45,0.45v0a0.45,0.45 0 0 1 -0.45,0.45h0a0.45,0.45 0 0 1 -0.45,-0.45v0a0.45,0.45 0 0 1 0.45,-0.45zM1.5,8.05h0a0.45,0.45 0 0 1 0.45,0.45v0a0.45,0.45 0 0 1 -0.45,0.45h0a0.45,0.45 0 0 1 -0.45,-0.45v0a0.45,0.45 0 0 1 0.45,-0.45zM2.5,8.05h0a0.45,0.45 0 0 1 0.45,0.45v0a0.45,0.45 0 0 1 -0.45,0.45h0a0.45,0.45 0 0 1 -0.45,-0.45v0a0.45,0.45 0 0 1 0.45,-0.45zM3.5,8.05h0a0.45,0.45 0 0 1 0.45,0.45v0a0.45,0.45 0 0 1 -0.45,0.45h0a0.45,0.45 0 0 1 -0.45,-0.45v0a0.45,0.45 0 0 1 0.45,-0.45zM4.5,8.05h0a0.45,0.45 0 0 1 0.45,0.45v0a0.45,0.45 0 0 1 -0.45,0.45h0a0.45,0.45 0 0 1 -0.45,-0.45v0a0.45,0.45 0 0 1 0.45,-0.45zM6.5,8.05h0a0.45,0.45 0 0 1 0.45,0.45v0a0.45,0.45 0 0 1 -0.45,0.45h0a0.45,0.45 0 0 1 -0.45,-0.45v0a0.45,0.45 0 0 1 0.45,-0.45zM7.5,8.05h0a0.45,0.45 0 0 1 0.45,0.45v0a0.45,0.45 0 0 1 -0.45,0.45h0a0.45,0.45 0 0 1 -0.45,-0.45v0a0.45,0.45 0 0 1 0.45,-0.45zM8.5,8.05h0a0.45,0.45 0 0 1 0.45,0.45v0a0.45,0.45 0 0 1 -0.45,0.45h0a0.45,0.45 0 0 1 -0.45,-0.45v0a0.45,0.45 0 0 1 0.45,-0.45zM9.5,8.05h0a0.45,0.45 0 0 1 0.45,0.45v0a0.45,0.45 0 0 1 -0.45,0.45h0a0.45,0.45 0 0 1 -0.45,-0.45v0a0.45,0.45 0 0 1 0.45,-0.45zM11.5,8.05h0a0.45,0.45 0 0 1 0.45,0.45v0a0.45,0.45 0 0 1 -0.45,0.45h0a0.45,0.45 0 0 1 -0.45,-0.45v0a0.45,0.45 0 0 1 0.45,-0.45zM13.5,8.05h0a0.45,0.45 0 0 1 0.45,0.45v0a0.45,0.45 0 0 1 -0.45,0.45h0a0.45,0.45 0 0 1 -0.45,-0.45v0a0.45,0.45 0 0 1 0.45,-0.45zM14.5,8.05h0a0.45,0.45 0 0 1 0.45,0.45v0a0.45,0.45 0 0 1 -0.45,0.45h0a0.45,0.45 0 0 1 -0.45,-0.45v0a0.45,0.45 0 0 1 0.45,-0.45zM15.5,8.05h0a0.45,0.45 0 0 1 0.45,0.45v0a0.45,0.45 0 0 1 -0.45,0.45h0a0.45,0.45 0 0 1 -0.45,-0.45v0a0.45,0.45 0 0 1 0.45,-0.45zM17.5,8.05h0a0.45,0.45 0 0 1 0.45,0.45v0a0.45,0.45 0 0 1 -0.45,0.45h0a0.45,0.45 0 0 1 -0.45,-0.45v0a0.45,0.45 0 0 1 0.45,-0.45zM21.5,8.05h0a0.45,0.45 0 0 1 0.45,0.45v0a0.45,0.45 0 0 1 -0.45,0.45h0a0.45,0.45 0 0 1 -0.45,-0.45v0a0.45,0.45 0 0 1 0.45,-0.45zM23.5,8.05h0a0.45,0.45 0 0 1 0.45,0.45v0a0.45,0.45 0 0 1 -0.45,0.45h0a0.45,0.45 0 0 1 -0.45,-0.45v0a0.45,0.45 0 0 1 0.45,-0.45zM25.5,8.05h0a0.45,0.45 0 0 1 0.45,0.45v0a0.45,0.45 0 0 1 -0.45,0.45h0a0.45,0.45 0 0 1 -0.45,-0.45v0a0.45,0.45 0 0 1 0.45,-0.45zM27.5,8.05h0a0.45,0.45 0 0 1 0.45,0.45v0a0.45,0.45 0 0 1 -0.45,0.45h0a0.45,0.45 0 0 1 -0.45,-0.45v0a0.45,0.45 0 0 1 0.45,-0.45zM0.5,9.05h0a0.45,0.45 0 0 1 0.45,0.45v0a0.45,0.45 0 0 1 -0.45,0.45h0a0.45,0.45 0 0 1 -0.45,-0.45v0a0.45,0.45 0 0 1 0.45,-0.45zM1.5,9.05h0a0.45,0.45 0 0 1 0.45,0.45v0a0.45,0.45 0 0 1 -0.45,0.45h0a0.45,0.45 0 0 1 -0.45,-0.45v0a0.45,0.45 0 0 1 0.45,-0.45zM2.5,9.05h0a0.45,0.45 0 0 1 0.45,0.45v0a0.45,0.45 0 0 1 -0.45,0.45h0a0.45,0.45 0 0 1 -0.45,-0.45v0a0.45,0.45 0 0 1 0.45,-0.45zM5.5,9.05h0a0.45,0.45 0 0 1 0.45,0.45v0a0.45,0.45 0 0 1 -0.45,0.45h0a0.45,0.45 0 0 1 -0.45,-0.45v0a0.45,0.45 0 0 1 0.45,-0.45zM7.5,9.05h0a0.45,0.45 0 0 1 0.45,0.45v0a0.45,0.45 0 0 1 -0.45,0.45h0a0.45,0.45 0 0 1 -0.45,-0.45v0a0.45,0.45 0 0 1 0.45,-0.45zM10.5,9.05h0a0.45,0.45 0 0 1 0.45,0.45v0a0.45,0.45 0 0 1 -0.45,0.45h0a0.45,0.45 0 0 1 -0.45,-0.45v0a0.45,0.45 0 0 1 0.45,-0.45zM12.5,9.05h0a0.45,0.45 0 0 1 0.45,0.45v0a0.45,0.45 0 0 1 -0.45,0.45h0a0.45,0.45 0 0 1 -0.45,-0.45v0a0.45,0.45 0 0 1 0.45,-0.45zM13.5,9.05h0a0.45,0.45 0 0 1 0.45,0.45v0a0.45,0.45 0 0 1 -0.45,0.45h0a0.45,0.45 0 0 1 -0.45,-0.45v0a0.45,0.45 0 0 1 0.45,-0.45zM16.5,9.05h0a0.45,0.45 0 0 1 0.45,0.45v0a0.45,0.45 0 0 1 -0.45,0.45h0a0.45,0.45 0 0 1 -0.45,-0.45v0a0.45,0.45 0 0 1 0.45,-0.45zM18.5,9.05h0a0.45,0.45 0 0 1 0.45,0.45v0a0.45,0.45 0 0 1 -0.45,0.45h0a0.45,0.45 0 0 1 -0.45,-0.45v0a0.45,0.45 0 0 1 0.45,-0.45zM19.5,9.05h0a0.45,0.45 0 0 1 0.45,0.45v0a0.45,0.45 0 0 1 -0.45,0.45h0a0.45,0.45 0 0 1 -0.45,-0.45v0a0.45,0.45 0 0 1 0.45,-0.45zM20.5,9.05h0a0.45,0.45 0 0 1 0.45,0.45v0a0.45,0.45 0 0 1 -0.45,0.45h0a0.45,0.45 0 0 1 -0.45,-0.45v0a0.45,0.45 0 0 1 0.45,-0.45zM21.5,9.05h0a0.45,0.45 0 0 1 0.45,0.45v0a0.45,0.45 0 0 1 -0.45,0.45h0a0.45,0.45 0 0 1 -0.45,-0.45v0a0.45,0.45 0 0 1 0.45,-0.45zM22.5,9.05h0a0.45,0.45 0 0 1 0.45,0.45v0a0.45,0.45 0 0 1 -0.45,0.45h0a0.45,0.45 0 0 1 -0.45,-0.45v0a0.45,0.45 0 0 1 0.45,-0.45zM23.5,9.05h0a0.45,0.45 0 0 1 0.45,0.45v0a0.45,0.45 0 0 1 -0.45,0.45h0a0.45,0.45 0 0 1 -0.45,-0.45v0a0.45,0.45 0 0 1 0.45,-0.45zM24.5,9.05h0a0.45,0.45 0 0 1 0.45,0.45v0a0.45,0.45 0 0 1 -0.45,0.45h0a0.45,0.45 0 0 1 -0.45,-0.45v0a0.45,0.45 0 0 1 0.45,-0.45zM28.5,9.05h0a0.45,0.45 0 0 1 0.45,0.45v0a0.45,0.45 0 0 1 -0.45,0.45h0a0.45,0.45 0 0 1 -0.45,-0.45v0a0.45,0.45 0 0 1 0.45,-0.45zM0.5,10.05h0a0.45,0.45 0 0 1 0.45,0.45v0a0.45,0.45 0 0 1 -0.45,0.45h0a0.45,0.45 0 0 1 -0.45,-0.45v0a0.45,0.45 0 0 1 0.45,-0.45zM1.5,10.05h0a0.45,0.45 0 0 1 0.45,0.45v0a0.45,0.45 0 0 1 -0.45,0.45h0a0.45,0.45 0 0 1 -0.45,-0.45v0a0.45,0.45 0 0 1 0.45,-0.45zM6.5,10.05h0a0.45,0.45 0 0 1 0.45,0.45v0a0.45,0.45 0 0 1 -0.45,0.45h0a0.45,0.45 0 0 1 -0.45,-0.45v0a0.45,0.45 0 0 1 0.45,-0.45zM7.5,10.05h0a0.45,0.45 0 0 1 0.45,0.45v0a0.45,0.45 0 0 1 -0.45,0.45h0a0.45,0.45 0 0 1 -0.45,-0.45v0a0.45,0.45 0 0 1 0.45,-0.45zM10.5,10.05h0a0.45,0.45 0 0 1 0.45,0.45v0a0.45,0.45 0 0 1 -0.45,0.45h0a0.45,0.45 0 0 1 -0.45,-0.45v0a0.45,0.45 0 0 1 0.45,-0.45zM15.5,10.05h0a0.45,0.45 0 0 1 0.45,0.45v0a0.45,0.45 0 0 1 -0.45,0.45h0a0.45,0.45 0 0 1 -0.45,-0.45v0a0.45,0.45 0 0 1 0.45,-0.45zM16.5,10.05h0a0.45,0.45 0 0 1 0.45,0.45v0a0.45,0.45 0 0 1 -0.45,0.45h0a0.45,0.45 0 0 1 -0.45,-0.45v0a0.45,0.45 0 0 1 0.45,-0.45zM17.5,10.05h0a0.45,0.45 0 0 1 0.45,0.45v0a0.45,0.45 0 0 1 -0.45,0.45h0a0.45,0.45 0 0 1 -0.45,-0.45v0a0.45,0.45 0 0 1 0.45,-0.45zM21.5,10.05h0a0.45,0.45 0 0 1 0.45,0.45v0a0.45,0.45 0 0 1 -0.45,0.45h0a0.45,0.45 0 0 1 -0.45,-0.45v0a0.45,0.45 0 0 1 0.45,-0.45zM24.5,10.05h0a0.45,0.45 0 0 1 0.45,0.45v0a0.45,0.45 0 0 1 -0.45,0.45h0a0.45,0.45 0 0 1 -0.45,-0.45v0a0.45,0.45 0 0 1 0.45,-0.45zM1.5,11.05h0a0.45,0.45 0 0 1 0.45,0.45v0a0.45,0.45 0 0 1 -0.45,0.45h0a0.45,0.45 0 0 1 -0.45,-0.45v0a0.45,0.45 0 0 1 0.45,-0.45zM2.5,11.05h0a0.45,0.45 0 0 1 0.45,0.45v0a0.45,0.45 0 0 1 -0.45,0.45h0a0.45,0.45 0 0 1 -0.45,-0.45v0a0.45,0.45 0 0 1 0.45,-0.45zM3.5,11.05h0a0.45,0.45 0 0 1 0.45,0.45v0a0.45,0.45 0 0 1 -0.45,0.45h0a0.45,0.45 0 0 1 -0.45,-0.45v0a0.45,0.45 0 0 1 0.45,-0.45zM4.5,11.05h0a0.45,0.45 0 0 1 0.45,0.45v0a0.45,0.45 0 0 1 -0.45,0.45h0a0.45,0.45 0 0 1 -0.45,-0.45v0a0.45,0.45 0 0 1 0.45,-0.45zM5.5,11.05h0a0.45,0.45 0 0 1 0.45,0.45v0a0.45,0.45 0 0 1 -0.45,0.45h0a0.45,0.45 0 0 1 -0.45,-0.45v0a0.45,0.45 0 0 1 0.45,-0.45zM12.5,11.05h0a0.45,0.45 0 0 1 0.45,0.45v0a0.45,0.45 0 0 1 -0.45,0.45h0a0.45,0.45 0 0 1 -0.45,-0.45v0a0.45,0.45 0 0 1 0.45,-0.45zM14.5,11.05h0a0.45,0.45 0 0 1 0.45,0.45v0a0.45,0.45 0 0 1 -0.45,0.45h0a0.45,0.45 0 0 1 -0.45,-0.45v0a0.45,0.45 0 0 1 0.45,-0.45zM16.5,11.05h0a0.45,0.45 0 0 1 0.45,0.45v0a0.45,0.45 0 0 1 -0.45,0.45h0a0.45,0.45 0 0 1 -0.45,-0.45v0a0.45,0.45 0 0 1 0.45,-0.45zM19.5,11.05h0a0.45,0.45 0 0 1 0.45,0.45v0a0.45,0.45 0 0 1 -0.45,0.45h0a0.45,0.45 0 0 1 -0.45,-0.45v0a0.45,0.45 0 0 1 0.45,-0.45zM20.5,11.05h0a0.45,0.45 0 0 1 0.45,0.45v0a0.45,0.45 0 0 1 -0.45,0.45h0a0.45,0.45 0 0 1 -0.45,-0.45v0a0.45,0.45 0 0 1 0.45,-0.45zM25.5,11.05h0a0.45,0.45 0 0 1 0.45,0.45v0a0.45,0.45 0 0 1 -0.45,0.45h0a0.45,0.45 0 0 1 -0.45,-0.45v0a0.45,0.45 0 0 1 0.45,-0.45zM27.5,11.05h0a0.45,0.45 0 0 1 0.45,0.45v0a0.45,0.45 0 0 1 -0.45,0.45h0a0.45,0.45 0 0 1 -0.45,-0.45v0a0.45,0.45 0 0 1 0.45,-0.45zM0.5,12.05h0a0.45,0.45 0 0 1 0.45,0.45v0a0.45,0.45 0 0 1 -0.45,0.45h0a0.45,0.45 0 0 1 -0.45,-0.45v0a0.45,0.45 0 0 1 0.45,-0.45zM1.5,12.05h0a0.45,0.45 0 0 1 0.45,0.45v0a0.45,0.45 0 0 1 -0.45,0.45h0a0.45,0.45 0 0 1 -0.45,-0.45v0a0.45,0.45 0 0 1 0.45,-0.45zM3.5,12.05h0a0.45,0.45 0 0 1 0.45,0.45v0a0.45,0.45 0 0 1 -0.45,0.45h0a0.45,0.45 0 0 1 -0.45,-0.45v0a0.45,0.45 0 0 1 0.45,-0.45zM5.5,12.05h0a0.45,0.45 0 0 1 0.45,0.45v0a0.45,0.45 0 0 1 -0.45,0.45h0a0.45,0.45 0 0 1 -0.45,-0.45v0a0.45,0.45 0 0 1 0.45,-0.45zM6.5,12.05h0a0.45,0.45 0 0 1 0.45,0.45v0a0.45,0.45 0 0 1 -0.45,0.45h0a0.45,0.45 0 0 1 -0.45,-0.45v0a0.45,0.45 0 0 1 0.45,-0.45zM8.5,12.05h0a0.45,0.45 0 0 1 0.45,0.45v0a0.45,0.45 0 0 1 -0.45,0.45h0a0.45,0.45 0 0 1 -0.45,-0.45v0a0.45,0.45 0 0 1 0.45,-0.45zM9.5,12.05h0a0.45,0.45 0 0 1 0.45,0.45v0a0.45,0.45 0 0 1 -0.45,0.45h0a0.45,0.45 0 0 1 -0.45,-0.45v0a0.45,0.45 0 0 1 0.45,-0.45zM10.5,12.05h0a0.45,0.45 0 0 1 0.45,0.45v0a0.45,0.45 0 0 1 -0.45,0.45h0a0.45,0.45 0 0 1 -0.45,-0.45v0a0.45,0.45 0 0 1 0.45,-0.45zM12.5,12.05h0a0.45,0.45 0 0 1 0.45,0.45v0a0.45,0.45 0 0 1 -0.45,0.45h0a0.45,0.45 0 0 1 -0.45,-0.45v0a0.45,0.45 0 0 1 0.45,-0.45zM13.5,12.05h0a0.45,0.45 0 0 1 0.45,0.45v0a0.45,0.45 0 0 1 -0.45,0.45h0a0.45,0.45 0 0 1 -0.45,-0.45v0a0.45,0.45 0 0 1 0.45,-0.45zM14.5,12.05h0a0.45,0.45 0 0 1 0.45,0.45v0a0.45,0.45 0 0 1 -0.45,0.45h0a0.45,0.45 0 0 1 -0.45,-0.45v0a0.45,0.45 0 0 1 0.45,-0.45zM17.5,12.05h0a0.45,0.45 0 0 1 0.45,0.45v0a0.45,0.45 0 0 1 -0.45,0.45h0a0.45,0.45 0 0 1 -0.45,-0.45v0a0.45,0.45 0 0 1 0.45,-0.45zM20.5,12.05h0a0.45,0.45 0 0 1 0.45,0.45v0a0.45,0.45 0 0 1 -0.45,0.45h0a0.45,0.45 0 0 1 -0.45,-0.45v0a0.45,0.45 0 0 1 0.45,-0.45zM25.5,12.05h0a0.45,0.45 0 0 1 0.45,0.45v0a0.45,0.45 0 0 1 -0.45,0.45h0a0.45,0.45 0 0 1 -0.45,-0.45v0a0.45,0.45 0 0 1 0.45,-0.45zM26.5,12.05h0a0.45,0.45 0 0 1 0.45,0.45v0a0.45,0.45 0 0 1 -0.45,0.45h0a0.45,0.45 0 0 1 -0.45,-0.45v0a0.45,0.45 0 0 1 0.45,-0.45zM2.5,13.05h0a0.45,0.45 0 0 1 0.45,0.45v0a0.45,0.45 0 0 1 -0.45,0.45h0a0.45,0.45 0 0 1 -0.45,-0.45v0a0.45,0.45 0 0 1 0.45,-0.45zM3.5,13.05h0a0.45,0.45 0 0 1 0.45,0.45v0a0.45,0.45 0 0 1 -0.45,0.45h0a0.45,0.45 0 0 1 -0.45,-0.45v0a0.45,0.45 0 0 1 0.45,-0.45zM7.5,13.05h0a0.45,0.45 0 0 1 0.45,0.45v0a0.45,0.45 0 0 1 -0.45,0.45h0a0.45,0.45 0 0 1 -0.45,-0.45v0a0.45,0.45 0 0 1 0.45,-0.45zM9.5,13.05h0a0.45,0.45 0 0 1 0.45,0.45v0a0.45,0.45 0 0 1 -0.45,0.45h0a0.45,0.45 0 0 1 -0.45,-0.45v0a0.45,0.45 0 0 1 0.45,-0.45zM14.5,13.05h0a0.45,0.45 0 0 1 0.45,0.45v0a0.45,0.45 0 0 1 -0.45,0.45h0a0.45,0.45 0 0 1 -0.45,-0.45v0a0.45,0.45 0 0 1 0.45,-0.45zM17.5,13.05h0a0.45,0.45 0 0 1 0.45,0.45v0a0.45,0.45 0 0 1 -0.45,0.45h0a0.45,0.45 0 0 1 -0.45,-0.45v0a0.45,0.45 0 0 1 0.45,-0.45zM18.5,13.05h0a0.45,0.45 0 0 1 0.45,0.45v0a0.45,0.45 0 0 1 -0.45,0.45h0a0.45,0.45 0 0 1 -0.45,-0.45v0a0.45,0.45 0 0 1 0.45,-0.45zM19.5,13.05h0a0.45,0.45 0 0 1 0.45,0.45v0a0.45,0.45 0 0 1 -0.45,0.45h0a0.45,0.45 0 0 1 -0.45,-0.45v0a0.45,0.45 0 0 1 0.45,-0.45zM20.5,13.05h0a0.45,0.45 0 0 1 0.45,0.45v0a0.45,0.45 0 0 1 -0.45,0.45h0a0.45,0.45 0 0 1 -0.45,-0.45v0a0.45,0.45 0 0 1 0.45,-0.45zM21.5,13.05h0a0.45,0.45 0 0 1 0.45,0.45v0a0.45,0.45 0 0 1 -0.45,0.45h0a0.45,0.45 0 0 1 -0.45,-0.45v0a0.45,0.45 0 0 1 0.45,-0.45zM22.5,13.05h0a0.45,0.45 0 0 1 0.45,0.45v0a0.45,0.45 0 0 1 -0.45,0.45h0a0.45,0.45 0 0 1 -0.45,-0.45v0a0.45,0.45 0 0 1 0.45,-0.45zM23.5,13.05h0a0.45,0.45 0 0 1 0.45,0.45v0a0.45,0.45 0 0 1 -0.45,0.45h0a0.45,0.45 0 0 1 -0.45,-0.45v0a0.45,0.45 0 0 1 0.45,-0.45zM24.5,13.05h0a0.45,0.45 0 0 1 0.45,0.45v0a0.45,0.45 0 0 1 -0.45,0.45h0a0.45,0.45 0 0 1 -0.45,-0.45v0a0.45,0.45 0 0 1 0.45,-0.45zM28.5,13.05h0a0.45,0.45 0 0 1 0.45,0.45v0a0.45,0.45 0 0 1 -0.45,0.45h0a0.45,0.45 0 0 1 -0.45,-0.45v0a0.45,0.45 0 0 1 0.45,-0.45zM0.5,14.05h0a0.45,0.45 0 0 1 0.45,0.45v0a0.45,0.45 0 0 1 -0.45,0.45h0a0.45,0.45 0 0 1 -0.45,-0.45v0a0.45,0.45 0 0 1 0.45,-0.45zM3.5,14.05h0a0.45,0.45 0 0 1 0.45,0.45v0a0.45,0.45 0 0 1 -0.45,0.45h0a0.45,0.45 0 0 1 -0.45,-0.45v0a0.45,0.45 0 0 1 0.45,-0.45zM5.5,14.05h0a0.45,0.45 0 0 1 0.45,0.45v0a0.45,0.45 0 0 1 -0.45,0.45h0a0.45,0.45 0 0 1 -0.45,-0.45v0a0.45,0.45 0 0 1 0.45,-0.45zM6.5,14.05h0a0.45,0.45 0 0 1 0.45,0.45v0a0.45,0.45 0 0 1 -0.45,0.45h0a0.45,0.45 0 0 1 -0.45,-0.45v0a0.45,0.45 0 0 1 0.45,-0.45zM7.5,14.05h0a0.45,0.45 0 0 1 0.45,0.45v0a0.45,0.45 0 0 1 -0.45,0.45h0a0.45,0.45 0 0 1 -0.45,-0.45v0a0.45,0.45 0 0 1 0.45,-0.45zM11.5,14.05h0a0.45,0.45 0 0 1 0.45,0.45v0a0.45,0.45 0 0 1 -0.45,0.45h0a0.45,0.45 0 0 1 -0.45,-0.45v0a0.45,0.45 0 0 1 0.45,-0.45zM12.5,14.05h0a0.45,0.45 0 0 1 0.45,0.45v0a0.45,0.45 0 0 1 -0.45,0.45h0a0.45,0.45 0 0 1 -0.45,-0.45v0a0.45,0.45 0 0 1 0.45,-0.45zM13.5,14.05h0a0.45,0.45 0 0 1 0.45,0.45v0a0.45,0.45 0 0 1 -0.45,0.45h0a0.45,0.45 0 0 1 -0.45,-0.45v0a0.45,0.45 0 0 1 0.45,-0.45zM15.5,14.05h0a0.45,0.45 0 0 1 0.45,0.45v0a0.45,0.45 0 0 1 -0.45,0.45h0a0.45,0.45 0 0 1 -0.45,-0.45v0a0.45,0.45 0 0 1 0.45,-0.45zM16.5,14.05h0a0.45,0.45 0 0 1 0.45,0.45v0a0.45,0.45 0 0 1 -0.45,0.45h0a0.45,0.45 0 0 1 -0.45,-0.45v0a0.45,0.45 0 0 1 0.45,-0.45zM18.5,14.05h0a0.45,0.45 0 0 1 0.45,0.45v0a0.45,0.45 0 0 1 -0.45,0.45h0a0.45,0.45 0 0 1 -0.45,-0.45v0a0.45,0.45 0 0 1 0.45,-0.45zM22.5,14.05h0a0.45,0.45 0 0 1 0.45,0.45v0a0.45,0.45 0 0 1 -0.45,0.45h0a0.45,0.45 0 0 1 -0.45,-0.45v0a0.45,0.45 0 0 1 0.45,-0.45zM24.5,14.05h0a0.45,0.45 0 0 1 0.45,0.45v0a0.45,0.45 0 0 1 -0.45,0.45h0a0.45,0.45 0 0 1 -0.45,-0.45v0a0.45,0.45 0 0 1 0.45,-0.45zM25.5,14.05h0a0.45,0.45 0 0 1 0.45,0.45v0a0.45,0.45 0 0 1 -0.45,0.45h0a0.45,0.45 0 0 1 -0.45,-0.45v0a0.45,0.45 0 0 1 0.45,-0.45zM26.5,14.05h0a0.45,0.45 0 0 1 0.45,0.45v0a0.45,0.45 0 0 1 -0.45,0.45h0a0.45,0.45 0 0 1 -0.45,-0.45v0a0.45,0.45 0 0 1 0.45,-0.45zM0.5,15.05h0a0.45,0.45 0 0 1 0.45,0.45v0a0.45,0.45 0 0 1 -0.45,0.45h0a0.45,0.45 0 0 1 -0.45,-0.45v0a0.45,0.45 0 0 1 0.45,-0.45zM3.5,15.05h0a0.45,0.45 0 0 1 0.45,0.45v0a0.45,0.45 0 0 1 -0.45,0.45h0a0.45,0.45 0 0 1 -0.45,-0.45v0a0.45,0.45 0 0 1 0.45,-0.45zM8.5,15.05h0a0.45,0.45 0 0 1 0.45,0.45v0a0.45,0.45 0 0 1 -0.45,0.45h0a0.45,0.45 0 0 1 -0.45,-0.45v0a0.45,0.45 0 0 1 0.45,-0.45zM10.5,15.05h0a0.45,0.45 0 0 1 0.45,0.45v0a0.45,0.45 0 0 1 -0.45,0.45h0a0.45,0.45 0 0 1 -0.45,-0.45v0a0.45,0.45 0 0 1 0.45,-0.45zM11.5,15.05h0a0.45,0.45 0 0 1 0.45,0.45v0a0.45,0.45 0 0 1 -0.45,0.45h0a0.45,0.45 0 0 1 -0.45,-0.45v0a0.45,0.45 0 0 1 0.45,-0.45zM14.5,15.05h0a0.45,0.45 0 0 1 0.45,0.45v0a0.45,0.45 0 0 1 -0.45,0.45h0a0.45,0.45 0 0 1 -0.45,-0.45v0a0.45,0.45 0 0 1 0.45,-0.45zM16.5,15.05h0a0.45,0.45 0 0 1 0.45,0.45v0a0.45,0.45 0 0 1 -0.45,0.45h0a0.45,0.45 0 0 1 -0.45,-0.45v0a0.45,0.45 0 0 1 0.45,-0.45zM19.5,15.05h0a0.45,0.45 0 0 1 0.45,0.45v0a0.45,0.45 0 0 1 -0.45,0.45h0a0.45,0.45 0 0 1 -0.45,-0.45v0a0.45,0.45 0 0 1 0.45,-0.45zM20.5,15.05h0a0.45,0.45 0 0 1 0.45,0.45v0a0.45,0.45 0 0 1 -0.45,0.45h0a0.45,0.45 0 0 1 -0.45,-0.45v0a0.45,0.45 0 0 1 0.45,-0.45zM21.5,15.05h0a0.45,0.45 0 0 1 0.45,0.45v0a0.45,0.45 0 0 1 -0.45,0.45h0a0.45,0.45 0 0 1 -0.45,-0.45v0a0.45,0.45 0 0 1 0.45,-0.45zM22.5,15.05h0a0.45,0.45 0 0 1 0.45,0.45v0a0.45,0.45 0 0 1 -0.45,0.45h0a0.45,0.45 0 0 1 -0.45,-0.45v0a0.45,0.45 0 0 1 0.45,-0.45zM23.5,15.05h0a0.45,0.45 0 0 1 0.45,0.45v0a0.45,0.45 0 0 1 -0.45,0.45h0a0.45,0.45 0 0 1 -0.45,-0.45v0a0.45,0.45 0 0 1 0.45,-0.45zM24.5,15.05h0a0.45,0.45 0 0 1 0.45,0.45v0a0.45,0.45 0 0 1 -0.45,0.45h0a0.45,0.45 0 0 1 -0.45,-0.45v0a0.45,0.45 0 0 1 0.45,-0.45zM27.5,15.05h0a0.45,0.45 0 0 1 0.45,0.45v0a0.45,0.45 0 0 1 -0.45,0.45h0a0.45,0.45 0 0 1 -0.45,-0.45v0a0.45,0.45 0 0 1 0.45,-0.45zM2.5,16.05h0a0.45,0.45 0 0 1 0.45,0.45v0a0.45,0.45 0 0 1 -0.45,0.45h0a0.45,0.45 0 0 1 -0.45,-0.45v0a0.45,0.45 0 0 1 0.45,-0.45zM4.5,16.05h0a0.45,0.45 0 0 1 0.45,0.45v0a0.45,0.45 0 0 1 -0.45,0.45h0a0.45,0.45 0 0 1 -0.45,-0.45v0a0.45,0.45 0 0 1 0.45,-0.45zM5.5,16.05h0a0.45,0.45 0 0 1 0.45,0.45v0a0.45,0.45 0 0 1 -0.45,0.45h0a0.45,0.45 0 0 1 -0.45,-0.45v0a0.45,0.45 0 0 1 0.45,-0.45zM6.5,16.05h0a0.45,0.45 0 0 1 0.45,0.45v0a0.45,0.45 0 0 1 -0.45,0.45h0a0.45,0.45 0 0 1 -0.45,-0.45v0a0.45,0.45 0 0 1 0.45,-0.45zM8.5,16.05h0a0.45,0.45 0 0 1 0.45,0.45v0a0.45,0.45 0 0 1 -0.45,0.45h0a0.45,0.45 0 0 1 -0.45,-0.45v0a0.45,0.45 0 0 1 0.45,-0.45zM9.5,16.05h0a0.45,0.45 0 0 1 0.45,0.45v0a0.45,0.45 0 0 1 -0.45,0.45h0a0.45,0.45 0 0 1 -0.45,-0.45v0a0.45,0.45 0 0 1 0.45,-0.45zM11.5,16.05h0a0.45,0.45 0 0 1 0.45,0.45v0a0.45,0.45 0 0 1 -0.45,0.45h0a0.45,0.45 0 0 1 -0.45,-0.45v0a0.45,0.45 0 0 1 0.45,-0.45zM13.5,16.05h0a0.45,0.45 0 0 1 0.45,0.45v0a0.45,0.45 0 0 1 -0.45,0.45h0a0.45,0.45 0 0 1 -0.45,-0.45v0a0.45,0.45 0 0 1 0.45,-0.45zM14.5,16.05h0a0.45,0.45 0 0 1 0.45,0.45v0a0.45,0.45 0 0 1 -0.45,0.45h0a0.45,0.45 0 0 1 -0.45,-0.45v0a0.45,0.45 0 0 1 0.45,-0.45zM17.5,16.05h0a0.45,0.45 0 0 1 0.45,0.45v0a0.45,0.45 0 0 1 -0.45,0.45h0a0.45,0.45 0 0 1 -0.45,-0.45v0a0.45,0.45 0 0 1 0.45,-0.45zM19.5,16.05h0a0.45,0.45 0 0 1 0.45,0.45v0a0.45,0.45 0 0 1 -0.45,0.45h0a0.45,0.45 0 0 1 -0.45,-0.45v0a0.45,0.45 0 0 1 0.45,-0.45zM23.5,16.05h0a0.45,0.45 0 0 1 0.45,0.45v0a0.45,0.45 0 0 1 -0.45,0.45h0a0.45,0.45 0 0 1 -0.45,-0.45v0a0.45,0.45 0 0 1 0.45,-0.45zM25.5,16.05h0a0.45,0.45 0 0 1 0.45,0.45v0a0.45,0.45 0 0 1 -0.45,0.45h0a0.45,0.45 0 0 1 -0.45,-0.45v0a0.45,0.45 0 0 1 0.45,-0.45zM26.5,16.05h0a0.45,0.45 0 0 1 0.45,0.45v0a0.45,0.45 0 0 1 -0.45,0.45h0a0.45,0.45 0 0 1 -0.45,-0.45v0a0.45,0.45 0 0 1 0.45,-0.45zM0.5,17.05h0a0.45,0.45 0 0 1 0.45,0.45v0a0.45,0.45 0 0 1 -0.45,0.45h0a0.45,0.45 0 0 1 -0.45,-0.45v0a0.45,0.45 0 0 1 0.45,-0.45zM4.5,17.05h0a0.45,0.45 0 0 1 0.45,0.45v0a0.45,0.45 0 0 1 -0.45,0.45h0a0.45,0.45 0 0 1 -0.45,-0.45v0a0.45,0.45 0 0 1 0.45,-0.45zM12.5,17.05h0a0.45,0.45 0 0 1 0.45,0.45v0a0.45,0.45 0 0 1 -0.45,0.45h0a0.45,0.45 0 0 1 -0.45,-0.45v0a0.45,0.45 0 0 1 0.45,-0.45zM14.5,17.05h0a0.45,0.45 0 0 1 0.45,0.45v0a0.45,0.45 0 0 1 -0.45,0.45h0a0.45,0.45 0 0 1 -0.45,-0.45v0a0.45,0.45 0 0 1 0.45,-0.45zM16.5,17.05h0a0.45,0.45 0 0 1 0.45,0.45v0a0.45,0.45 0 0 1 -0.45,0.45h0a0.45,0.45 0 0 1 -0.45,-0.45v0a0.45,0.45 0 0 1 0.45,-0.45zM19.5,17.05h0a0.45,0.45 0 0 1 0.45,0.45v0a0.45,0.45 0 0 1 -0.45,0.45h0a0.45,0.45 0 0 1 -0.45,-0.45v0a0.45,0.45 0 0 1 0.45,-0.45zM20.5,17.05h0a0.45,0.45 0 0 1 0.45,0.45v0a0.45,0.45 0 0 1 -0.45,0.45h0a0.45,0.45 0 0 1 -0.45,-0.45v0a0.45,0.45 0 0 1 0.45,-0.45zM21.5,17.05h0a0.45,0.45 0 0 1 0.45,0.45v0a0.45,0.45 0 0 1 -0.45,0.45h0a0.45,0.45 0 0 1 -0.45,-0.45v0a0.45,0.45 0 0 1 0.45,-0.45zM22.5,17.05h0a0.45,0.45 0 0 1 0.45,0.45v0a0.45,0.45 0 0 1 -0.45,0.45h0a0.45,0.45 0 0 1 -0.45,-0.45v0a0.45,0.45 0 0 1 0.45,-0.45zM23.5,17.05h0a0.45,0.45 0 0 1 0.45,0.45v0a0.45,0.45 0 0 1 -0.45,0.45h0a0.45,0.45 0 0 1 -0.45,-0.45v0a0.45,0.45 0 0 1 0.45,-0.45zM24.5,17.05h0a0.45,0.45 0 0 1 0.45,0.45v0a0.45,0.45 0 0 1 -0.45,0.45h0a0.45,0.45 0 0 1 -0.45,-0.45v0a0.45,0.45 0 0 1 0.45,-0.45zM26.5,17.05h0a0.45,0.45 0 0 1 0.45,0.45v0a0.45,0.45 0 0 1 -0.45,0.45h0a0.45,0.45 0 0 1 -0.45,-0.45v0a0.45,0.45 0 0 1 0.45,-0.45zM28.5,17.05h0a0.45,0.45 0 0 1 0.45,0.45v0a0.45,0.45 0 0 1 -0.45,0.45h0a0.45,0.45 0 0 1 -0.45,-0.45v0a0.45,0.45 0 0 1 0.45,-0.45zM0.5,18.05h0a0.45,0.45 0 0 1 0.45,0.45v0a0.45,0.45 0 0 1 -0.45,0.45h0a0.45,0.45 0 0 1 -0.45,-0.45v0a0.45,0.45 0 0 1 0.45,-0.45zM2.5,18.05h0a0.45,0.45 0 0 1 0.45,0.45v0a0.45,0.45 0 0 1 -0.45,0.45h0a0.45,0.45 0 0 1 -0.45,-0.45v0a0.45,0.45 0 0 1 0.45,-0.45zM3.5,18.05h0a0.45,0.45 0 0 1 0.45,0.45v0a0.45,0.45 0 0 1 -0.45,0.45h0a0.45,0.45 0 0 1 -0.45,-0.45v0a0.45,0.45 0 0 1 0.45,-0.45zM6.5,18.05h0a0.45,0.45 0 0 1 0.45,0.45v0a0.45,0.45 0 0 1 -0.45,0.45h0a0.45,0.45 0 0 1 -0.45,-0.45v0a0.45,0.45 0 0 1 0.45,-0.45zM10.5,18.05h0a0.45,0.45 0 0 1 0.45,0.45v0a0.45,0.45 0 0 1 -0.45,0.45h0a0.45,0.45 0 0 1 -0.45,-0.45v0a0.45,0.45 0 0 1 0.45,-0.45zM14.5,18.05h0a0.45,0.45 0 0 1 0.45,0.45v0a0.45,0.45 0 0 1 -0.45,0.45h0a0.45,0.45 0 0 1 -0.45,-0.45v0a0.45,0.45 0 0 1 0.45,-0.45zM15.5,18.05h0a0.45,0.45 0 0 1 0.45,0.45v0a0.45,0.45 0 0 1 -0.45,0.45h0a0.45,0.45 0 0 1 -0.45,-0.45v0a0.45,0.45 0 0 1 0.45,-0.45zM16.5,18.05h0a0.45,0.45 0 0 1 0.45,0.45v0a0.45,0.45 0 0 1 -0.45,0.45h0a0.45,0.45 0 0 1 -0.45,-0.45v0a0.45,0.45 0 0 1 0.45,-0.45zM20.5,18.05h0a0.45,0.45 0 0 1 0.45,0.45v0a0.45,0.45 0 0 1 -0.45,0.45h0a0.45,0.45 0 0 1 -0.45,-0.45v0a0.45,0.45 0 0 1 0.45,-0.45zM23.5,18.05h0a0.45,0.45 0 0 1 0.45,0.45v0a0.45,0.45 0 0 1 -0.45,0.45h0a0.45,0.45 0 0 1 -0.45,-0.45v0a0.45,0.45 0 0 1 0.45,-0.45zM24.5,18.05h0a0.45,0.45 0 0 1 0.45,0.45v0a0.45,0.45 0 0 1 -0.45,0.45h0a0.45,0.45 0 0 1 -0.45,-0.45v0a0.45,0.45 0 0 1 0.45,-0.45zM26.5,18.05h0a0.45,0.45 0 0 1 0.45,0.45v0a0.45,0.45 0 0 1 -0.45,0.45h0a0.45,0.45 0 0 1 -0.45,-0.45v0a0.45,0.45 0 0 1 0.45,-0.45zM0.5,19.05h0a0.45,0.45 0 0 1 0.45,0.45v0a0.45,0.45 0 0 1 -0.45,0.45h0a0.45,0.45 0 0 1 -0.45,-0.45v0a0.45,0.45 0 0 1 0.45,-0.45zM2.5,19.05h0a0.45,0.45 0 0 1 0.45,0.45v0a0.45,0.45 0 0 1 -0.45,0.45h0a0.45,0.45 0 0 1 -0.45,-0.45v0a0.45,0.45 0 0 1 0.45,-0.45zM3.5,19.05h0a0.45,0.45 0 0 1 0.45,0.45v0a0.45,0.45 0 0 1 -0.45,0.45h0a0.45,0.45 0 0 1 -0.45,-0.45v0a0.45,0.45 0 0 1 0.45,-0.45zM4.5,19.05h0a0.45,0.45 0 0 1 0.45,0.45v0a0.45,0.45 0 0 1 -0.45,0.45h0a0.45,0.45 0 0 1 -0.45,-0.45v0a0.45,0.45 0 0 1 0.45,-0.45zM8.5,19.05h0a0.45,0.45 0 0 1 0.45,0.45v0a0.45,0.45 0 0 1 -0.45,0.45h0a0.45,0.45 0 0 1 -0.45,-0.45v0a0.45,0.45 0 0 1 0.45,-0.45zM10.5,19.05h0a0.45,0.45 0 0 1 0.45,0.45v0a0.45,0.45 0 0 1 -0.45,0.45h0a0.45,0.45 0 0 1 -0.45,-0.45v0a0.45,0.45 0 0 1 0.45,-0.45zM12.5,19.05h0a0.45,0.45 0 0 1 0.45,0.45v0a0.45,0.45 0 0 1 -0.45,0.45h0a0.45,0.45 0 0 1 -0.45,-0.45v0a0.45,0.45 0 0 1 0.45,-0.45zM14.5,19.05h0a0.45,0.45 0 0 1 0.45,0.45v0a0.45,0.45 0 0 1 -0.45,0.45h0a0.45,0.45 0 0 1 -0.45,-0.45v0a0.45,0.45 0 0 1 0.45,-0.45zM15.5,19.05h0a0.45,0.45 0 0 1 0.45,0.45v0a0.45,0.45 0 0 1 -0.45,0.45h0a0.45,0.45 0 0 1 -0.45,-0.45v0a0.45,0.45 0 0 1 0.45,-0.45zM18.5,19.05h0a0.45,0.45 0 0 1 0.45,0.45v0a0.45,0.45 0 0 1 -0.45,0.45h0a0.45,0.45 0 0 1 -0.45,-0.45v0a0.45,0.45 0 0 1 0.45,-0.45zM20.5,19.05h0a0.45,0.45 0 0 1 0.45,0.45v0a0.45,0.45 0 0 1 -0.45,0.45h0a0.45,0.45 0 0 1 -0.45,-0.45v0a0.45,0.45 0 0 1 0.45,-0.45zM22.5,19.05h0a0.45,0.45 0 0 1 0.45,0.45v0a0.45,0.45 0 0 1 -0.45,0.45h0a0.45,0.45 0 0 1 -0.45,-0.45v0a0.45,0.45 0 0 1 0.45,-0.45zM24.5,19.05h0a0.45,0.45 0 0 1 0.45,0.45v0a0.45,0.45 0 0 1 -0.45,0.45h0a0.45,0.45 0 0 1 -0.45,-0.45v0a0.45,0.45 0 0 1 0.45,-0.45zM27.5,19.05h0a0.45,0.45 0 0 1 0.45,0.45v0a0.45,0.45 0 0 1 -0.45,0.45h0a0.45,0.45 0 0 1 -0.45,-0.45v0a0.45,0.45 0 0 1 0.45,-0.45zM0.5,20.05h0a0.45,0.45 0 0 1 0.45,0.45v0a0.45,0.45 0 0 1 -0.45,0.45h0a0.45,0.45 0 0 1 -0.45,-0.45v0a0.45,0.45 0 0 1 0.45,-0.45zM5.5,20.05h0a0.45,0.45 0 0 1 0.45,0.45v0a0.45,0.45 0 0 1 -0.45,0.45h0a0.45,0.45 0 0 1 -0.45,-0.45v0a0.45,0.45 0 0 1 0.45,-0.45zM6.5,20.05h0a0.45,0.45 0 0 1 0.45,0.45v0a0.45,0.45 0 0 1 -0.45,0.45h0a0.45,0.45 0 0 1 -0.45,-0.45v0a0.45,0.45 0 0 1 0.45,-0.45zM7.5,20.05h0a0.45,0.45 0 0 1 0.45,0.45v0a0.45,0.45 0 0 1 -0.45,0.45h0a0.45,0.45 0 0 1 -0.45,-0.45v0a0.45,0.45 0 0 1 0.45,-0.45zM8.5,20.05h0a0.45,0.45 0 0 1 0.45,0.45v0a0.45,0.45 0 0 1 -0.45,0.45h0a0.45,0.45 0 0 1 -0.45,-0.45v0a0.45,0.45 0 0 1 0.45,-0.45zM12.5,20.05h0a0.45,0.45 0 0 1 0.45,0.45v0a0.45,0.45 0 0 1 -0.45,0.45h0a0.45,0.45 0 0 1 -0.45,-0.45v0a0.45,0.45 0 0 1 0.45,-0.45zM13.5,20.05h0a0.45,0.45 0 0 1 0.45,0.45v0a0.45,0.45 0 0 1 -0.45,0.45h0a0.45,0.45 0 0 1 -0.45,-0.45v0a0.45,0.45 0 0 1 0.45,-0.45zM14.5,20.05h0a0.45,0.45 0 0 1 0.45,0.45v0a0.45,0.45 0 0 1 -0.45,0.45h0a0.45,0.45 0 0 1 -0.45,-0.45v0a0.45,0.45 0 0 1 0.45,-0.45zM17.5,20.05h0a0.45,0.45 0 0 1 0.45,0.45v0a0.45,0.45 0 0 1 -0.45,0.45h0a0.45,0.45 0 0 1 -0.45,-0.45v0a0.45,0.45 0 0 1 0.45,-0.45zM20.5,20.05h0a0.45,0.45 0 0 1 0.45,0.45v0a0.45,0.45 0 0 1 -0.45,0.45h0a0.45,0.45 0 0 1 -0.45,-0.45v0a0.45,0.45 0 0 1 0.45,-0.45zM21.5,20.05h0a0.45,0.45 0 0 1 0.45,0.45v0a0.45,0.45 0 0 1 -0.45,0.45h0a0.45,0.45 0 0 1 -0.45,-0.45v0a0.45,0.45 0 0 1 0.45,-0.45zM22.5,20.05h0a0.45,0.45 0 0 1 0.45,0.45v0a0.45,0.45 0 0 1 -0.45,0.45h0a0.45,0.45 0 0 1 -0.45,-0.45v0a0.45,0.45 0 0 1 0.45,-0.45zM23.5,20.05h0a0.45,0.45 0 0 1 0.45,0.45v0a0.45,0.45 0 0 1 -0.45,0.45h0a0.45,0.45 0 0 1 -0.45,-0.45v0a0.45,0.45 0 0 1 0.45,-0.45zM24.5,20.05h0a0.45,0.45 0 0 1 0.45,0.45v0a0.45,0.45 0 0 1 -0.45,0.45h0a0.45,0.45 0 0 1 -0.45,-0.45v0a0.45,0.45 0 0 1 0.45,-0.45zM26.5,20.05h0a0.45,0.45 0 0 1 0.45,0.45v0a0.45,0.45 0 0 1 -0.45,0.45h0a0.45,0.45 0 0 1 -0.45,-0.45v0a0.45,0.45 0 0 1 0.45,-0.45zM27.5,20.05h0a0.45,0.45 0 0 1 0.45,0.45v0a0.45,0.45 0 0 1 -0.45,0.45h0a0.45,0.45 0 0 1 -0.45,-0.45v0a0.45,0.45 0 0 1 0.45,-0.45zM28.5,20.05h0a0.45,0.45 0 0 1 0.45,0.45v0a0.45,0.45 0 0 1 -0.45,0.45h0a0.45,0.45 0 0 1 -0.45,-0.45v0a0.45,0.45 0 0 1 0.45,-0.45zM8.5,21.05h0a0.45,0.45 0 0 1 0.45,0.45v0a0.45,0.45 0 0 1 -0.45,0.45h0a0.45,0.45 0 0 1 -0.45,-0.45v0a0.45,0.45 0 0 1 0.45,-0.45zM16.5,21.05h0a0.45,0.45 0 0 1 0.45,0.45v0a0.45,0.45 0 0 1 -0.45,0.45h0a0.45,0.45 0 0 1 -0.45,-0.45v0a0.45,0.45 0 0 1 0.45,-0.45zM17.5,21.05h0a0.45,0.45 0 0 1 0.45,0.45v0a0.45,0.45 0 0 1 -0.45,0.45h0a0.45,0.45 0 0 1 -0.45,-0.45v0a0.45,0.45 0 0 1 0.45,-0.45zM18.5,21.05h0a0.45,0.45 0 0 1 0.45,0.45v0a0.45,0.45 0 0 1 -0.45,0.45h0a0.45,0.45 0 0 1 -0.45,-0.45v0a0.45,0.45 0 0 1 0.45,-0.45zM20.5,21.05h0a0.45,0.45 0 0 1 0.45,0.45v0a0.45,0.45 0 0 1 -0.45,0.45h0a0.45,0.45 0 0 1 -0.45,-0.45v0a0.45,0.45 0 0 1 0.45,-0.45zM24.5,21.05h0a0.45,0.45 0 0 1 0.45,0.45v0a0.45,0.45 0 0 1 -0.45,0.45h0a0.45,0.45 0 0 1 -0.45,-0.45v0a0.45,0.45 0 0 1 0.45,-0.45zM25.5,21.05h0a0.45,0.45 0 0 1 0.45,0.45v0a0.45,0.45 0 0 1 -0.45,0.45h0a0.45,0.45 0 0 1 -0.45,-0.45v0a0.45,0.45 0 0 1 0.45,-0.45zM26.5,21.05h0a0.45,0.45 0 0 1 0.45,0.45v0a0.45,0.45 0 0 1 -0.45,0.45h0a0.45,0.45 0 0 1 -0.45,-0.45v0a0.45,0.45 0 0 1 0.45,-0.45zM27.5,21.05h0a0.45,0.45 0 0 1 0.45,0.45v0a0.45,0.45 0 0 1 -0.45,0.45h0a0.45,0.45 0 0 1 -0.45,-0.45v0a0.45,0.45 0 0 1 0.45,-0.45zM28.5,21.05h0a0.45,0.45 0 0 1 0.45,0.45v0a0.45,0.45 0 0 1 -0.45,0.45h0a0.45,0.45 0 0 1 -0.45,-0.45v0a0.45,0.45 0 0 1 0.45,-0.45zM8.5,22.05h0a0.45,0.45 0 0 1 0.45,0.45v0a0.45,0.45 0 0 1 -0.45,0.45h0a0.45,0.45 0 0 1 -0.45,-0.45v0a0.45,0.45 0 0 1 0.45,-0.45zM10.5,22.05h0a0.45,0.45 0 0 1 0.45,0.45v0a0.45,0.45 0 0 1 -0.45,0.45h0a0.45,0.45 0 0 1 -0.45,-0.45v0a0.45,0.45 0 0 1 0.45,-0.45zM11.5,22.05h0a0.45,0.45 0 0 1 0.45,0.45v0a0.45,0.45 0 0 1 -0.45,0.45h0a0.45,0.45 0 0 1 -0.45,-0.45v0a0.45,0.45 0 0 1 0.45,-0.45zM12.5,22.05h0a0.45,0.45 0 0 1 0.45,0.45v0a0.45,0.45 0 0 1 -0.45,0.45h0a0.45,0.45 0 0 1 -0.45,-0.45v0a0.45,0.45 0 0 1 0.45,-0.45zM15.5,22.05h0a0.45,0.45 0 0 1 0.45,0.45v0a0.45,0.45 0 0 1 -0.45,0.45h0a0.45,0.45 0 0 1 -0.45,-0.45v0a0.45,0.45 0 0 1 0.45,-0.45zM18.5,22.05h0a0.45,0.45 0 0 1 0.45,0.45v0a0.45,0.45 0 0 1 -0.45,0.45h0a0.45,0.45 0 0 1 -0.45,-0.45v0a0.45,0.45 0 0 1 0.45,-0.45zM19.5,22.05h0a0.45,0.45 0 0 1 0.45,0.45v0a0.45,0.45 0 0 1 -0.45,0.45h0a0.45,0.45 0 0 1 -0.45,-0.45v0a0.45,0.45 0 0 1 0.45,-0.45zM20.5,22.05h0a0.45,0.45 0 0 1 0.45,0.45v0a0.45,0.45 0 0 1 -0.45,0.45h0a0.45,0.45 0 0 1 -0.45,-0.45v0a0.45,0.45 0 0 1 0.45,-0.45zM22.5,22.05h0a0.45,0.45 0 0 1 0.45,0.45v0a0.45,0.45 0 0 1 -0.45,0.45h0a0.45,0.45 0 0 1 -0.45,-0.45v0a0.45,0.45 0 0 1 0.45,-0.45zM24.5,22.05h0a0.45,0.45 0 0 1 0.45,0.45v0a0.45,0.45 0 0 1 -0.45,0.45h0a0.45,0.45 0 0 1 -0.45,-0.45v0a0.45,0.45 0 0 1 0.45,-0.45zM25.5,22.05h0a0.45,0.45 0 0 1 0.45,0.45v0a0.45,0.45 0 0 1 -0.45,0.45h0a0.45,0.45 0 0 1 -0.45,-0.45v0a0.45,0.45 0 0 1 0.45,-0.45zM26.5,22.05h0a0.45,0.45 0 0 1 0.45,0.45v0a0.45,0.45 0 0 1 -0.45,0.45h0a0.45,0.45 0 0 1 -0.45,-0.45v0a0.45,0.45 0 0 1 0.45,-0.45zM9.5,23.05h0a0.45,0.45 0 0 1 0.45,0.45v0a0.45,0.45 0 0 1 -0.45,0.45h0a0.45,0.45 0 0 1 -0.45,-0.45v0a0.45,0.45 0 0 1 0.45,-0.45zM10.5,23.05h0a0.45,0.45 0 0 1 0.45,0.45v0a0.45,0.45 0 0 1 -0.45,0.45h0a0.45,0.45 0 0 1 -0.45,-0.45v0a0.45,0.45 0 0 1 0.45,-0.45zM11.5,23.05h0a0.45,0.45 0 0 1 0.45,0.45v0a0.45,0.45 0 0 1 -0.45,0.45h0a0.45,0.45 0 0 1 -0.45,-0.45v0a0.45,0.45 0 0 1 0.45,-0.45zM14.5,23.05h0a0.45,0.45 0 0 1 0.45,0.45v0a0.45,0.45 0 0 1 -0.45,0.45h0a0.45,0.45 0 0 1 -0.45,-0.45v0a0.45,0.45 0 0 1 0.45,-0.45zM16.5,23.05h0a0.45,0.45 0 0 1 0.45,0.45v0a0.45,0.45 0 0 1 -0.45,0.45h0a0.45,0.45 0 0 1 -0.45,-0.45v0a0.45,0.45 0 0 1 0.45,-0.45zM18.5,23.05h0a0.45,0.45 0 0 1 0.45,0.45v0a0.45,0.45 0 0 1 -0.45,0.45h0a0.45,0.45 0 0 1 -0.45,-0.45v0a0.45,0.45 0 0 1 0.45,-0.45zM19.5,23.05h0a0.45,0.45 0 0 1 0.45,0.45v0a0.45,0.45 0 0 1 -0.45,0.45h0a0.45,0.45 0 0 1 -0.45,-0.45v0a0.45,0.45 0 0 1 0.45,-0.45zM20.5,23.05h0a0.45,0.45 0 0 1 0.45,0.45v0a0.45,0.45 0 0 1 -0.45,0.45h0a0.45,0.45 0 0 1 -0.45,-0.45v0a0.45,0.45 0 0 1 0.45,-0.45zM24.5,23.05h0a0.45,0.45 0 0 1 0.45,0.45v0a0.45,0.45 0 0 1 -0.45,0.45h0a0.45,0.45 0 0 1 -0.45,-0.45v0a0.45,0.45 0 0 1 0.45,-0.45zM27.5,23.05h0a0.45,0.45 0 0 1 0.45,0.45v0a0.45,0.45 0 0 1 -0.45,0.45h0a0.45,0.45 0 0 1 -0.45,-0.45v0a0.45,0.45 0 0 1 0.45,-0.45zM8.5,24.05h0a0.45,0.45 0 0 1 0.45,0.45v0a0.45,0.45 0 0 1 -0.45,0.45h0a0.45,0.45 0 0 1 -0.45,-0.45v0a0.45,0.45 0 0 1 0.45,-0.45zM11.5,24.05h0a0.45,0.45 0 0 1 0.45,0.45v0a0.45,0.45 0 0 1 -0.45,0.45h0a0.45,0.45 0 0 1 -0.45,-0.45v0a0.45,0.45 0 0 1 0.45,-0.45zM12.5,24.05h0a0.45,0.45 0 0 1 0.45,0.45v0a0.45,0.45 0 0 1 -0.45,0.45h0a0.45,0.45 0 0 1 -0.45,-0.45v0a0.45,0.45 0 0 1 0.45,-0.45zM13.5,24.05h0a0.45,0.45 0 0 1 0.45,0.45v0a0.45,0.45 0 0 1 -0.45,0.45h0a0.45,0.45 0 0 1 -0.45,-0.45v0a0.45,0.45 0 0 1 0.45,-0.45zM14.5,24.05h0a0.45,0.45 0 0 1 0.45,0.45v0a0.45,0.45 0 0 1 -0.45,0.45h0a0.45,0.45 0 0 1 -0.45,-0.45v0a0.45,0.45 0 0 1 0.45,-0.45zM17.5,24.05h0a0.45,0.45 0 0 1 0.45,0.45v0a0.45,0.45 0 0 1 -0.45,0.45h0a0.45,0.45 0 0 1 -0.45,-0.45v0a0.45,0.45 0 0 1 0.45,-0.45zM20.5,24.05h0a0.45,0.45 0 0 1 0.45,0.45v0a0.45,0.45 0 0 1 -0.45,0.45h0a0.45,0.45 0 0 1 -0.45,-0.45v0a0.45,0.45 0 0 1 0.45,-0.45zM21.5,24.05h0a0.45,0.45 0 0 1 0.45,0.45v0a0.45,0.45 0 0 1 -0.45,0.45h0a0.45,0.45 0 0 1 -0.45,-0.45v0a0.45,0.45 0 0 1 0.45,-0.45zM22.5,24.05h0a0.45,0.45 0 0 1 0.45,0.45v0a0.45,0.45 0 0 1 -0.45,0.45h0a0.45,0.45 0 0 1 -0.45,-0.45v0a0.45,0.45 0 0 1 0.45,-0.45zM23.5,24.05h0a0.45,0.45 0 0 1 0.45,0.45v0a0.45,0.45 0 0 1 -0.45,0.45h0a0.45,0.45 0 0 1 -0.45,-0.45v0a0.45,0.45 0 0 1 0.45,-0.45zM24.5,24.05h0a0.45,0.45 0 0 1 0.45,0.45v0a0.45,0.45 0 0 1 -0.45,0.45h0a0.45,0.45 0 0 1 -0.45,-0.45v0a0.45,0.45 0 0 1 0.45,-0.45zM26.5,24.05h0a0.45,0.45 0 0 1 0.45,0.45v0a0.45,0.45 0 0 1 -0.45,0.45h0a0.45,0.45 0 0 1 -0.45,-0.45v0a0.45,0.45 0 0 1 0.45,-0.45zM28.5,24.05h0a0.45,0.45 0 0 1 0.45,0.45v0a0.45,0.45 0 0 1 -0.45,0.45h0a0.45,0.45 0 0 1 -0.45,-0.45v0a0.45,0.45 0 0 1 0.45,-0.45zM8.5,25.05h0a0.45,0.45 0 0 1 0.45,0.45v0a0.45,0.45 0 0 1 -0.45,0.45h0a0.45,0.45 0 0 1 -0.45,-0.45v0a0.45,0.45 0 0 1 0.45,-0.45zM9.5,25.05h0a0.45,0.45 0 0 1 0.45,0.45v0a0.45,0.45 0 0 1 -0.45,0.45h0a0.45,0.45 0 0 1 -0.45,-0.45v0a0.45,0.45 0 0 1 0.45,-0.45zM12.5,25.05h0a0.45,0.45 0 0 1 0.45,0.45v0a0.45,0.45 0 0 1 -0.45,0.45h0a0.45,0.45 0 0 1 -0.45,-0.45v0a0.45,0.45 0 0 1 0.45,-0.45zM13.5,25.05h0a0.45,0.45 0 0 1 0.45,0.45v0a0.45,0.45 0 0 1 -0.45,0.45h0a0.45,0.45 0 0 1 -0.45,-0.45v0a0.45,0.45 0 0 1 0.45,-0.45zM19.5,25.05h0a0.45,0.45 0 0 1 0.45,0.45v0a0.45,0.45 0 0 1 -0.45,0.45h0a0.45,0.45 0 0 1 -0.45,-0.45v0a0.45,0.45 0 0 1 0.45,-0.45zM20.5,25.05h0a0.45,0.45 0 0 1 0.45,0.45v0a0.45,0.45 0 0 1 -0.45,0.45h0a0.45,0.45 0 0 1 -0.45,-0.45v0a0.45,0.45 0 0 1 0.45,-0.45zM25.5,25.05h0a0.45,0.45 0 0 1 0.45,0.45v0a0.45,0.45 0 0 1 -0.45,0.45h0a0.45,0.45 0 0 1 -0.45,-0.45v0a0.45,0.45 0 0 1 0.45,-0.45zM26.5,25.05h0a0.45,0.45 0 0 1 0.45,0.45v0a0.45,0.45 0 0 1 -0.45,0.45h0a0.45,0.45 0 0 1 -0.45,-0.45v0a0.45,0.45 0 0 1 0.45,-0.45zM27.5,25.05h0a0.45,0.45 0 0 1 0.45,0.45v0a0.45,0.45 0 0 1 -0.45,0.45h0a0.45,0.45 0 0 1 -0.45,-0.45v0a0.45,0.45 0 0 1 0.45,-0.45zM28.5,25.05h0a0.45,0.45 0 0 1 0.45,0.45v0a0.45,0.45 0 0 1 -0.45,0.45h0a0.45,0.45 0 0 1 -0.45,-0.45v0a0.45,0.45 0 0 1 0.45,-0.45zM8.5,26.05h0a0.45,0.45 0 0 1 0.45,0.45v0a0.45,0.45 0 0 1 -0.45,0.45h0a0.45,0.45 0 0 1 -0.45,-0.45v0a0.45,0.45 0 0 1 0.45,-0.45zM9.5,26.05h0a0.45,0.45 0 0 1 0.45,0.45v0a0.45,0.45 0 0 1 -0.45,0.45h0a0.45,0.45 0 0 1 -0.45,-0.45v0a0.45,0.45 0 0 1 0.45,-0.45zM10.5,26.05h0a0.45,0.45 0 0 1 0.45,0.45v0a0.45,0.45 0 0 1 -0.45,0.45h0a0.45,0.45 0 0 1 -0.45,-0.45v0a0.45,0.45 0 0 1 0.45,-0.45zM14.5,26.05h0a0.45,0.45 0 0 1 0.45,0.45v0a0.45,0.45 0 0 1 -0.45,0.45h0a0.45,0.45 0 0 1 -0.45,-0.45v0a0.45,0.45 0 0 1 0.45,-0.45zM15.5,26.05h0a0.45,0.45 0 0 1 0.45,0.45v0a0.45,0.45 0 0 1 -0.45,0.45h0a0.45,0.45 0 0 1 -0.45,-0.45v0a0.45,0.45 0 0 1 0.45,-0.45zM19.5,26.05h0a0.45,0.45 0 0 1 0.45,0.45v0a0.45,0.45 0 0 1 -0.45,0.45h0a0.45,0.45 0 0 1 -0.45,-0.45v0a0.45,0.45 0 0 1 0.45,-0.45zM20.5,26.05h0a0.45,0.45 0 0 1 0.45,0.45v0a0.45,0.45 0 0 1 -0.45,0.45h0a0.45,0.45 0 0 1 -0.45,-0.45v0a0.45,0.45 0 0 1 0.45,-0.45zM22.5,26.05h0a0.45,0.45 0 0 1 0.45,0.45v0a0.45,0.45 0 0 1 -0.45,0.45h0a0.45,0.45 0 0 1 -0.45,-0.45v0a0.45,0.45 0 0 1 0.45,-0.45zM23.5,26.05h0a0.45,0.45 0 0 1 0.45,0.45v0a0.45,0.45 0 0 1 -0.45,0.45h0a0.45,0.45 0 0 1 -0.45,-0.45v0a0.45,0.45 0 0 1 0.45,-0.45zM24.5,26.05h0a0.45,0.45 0 0 1 0.45,0.45v0a0.45,0.45 0 0 1 -0.45,0.45h0a0.45,0.45 0 0 1 -0.45,-0.45v0a0.45,0.45 0 0 1 0.45,-0.45zM25.5,26.05h0a0.45,0.45 0 0 1 0.45,0.45v0a0.45,0.45 0 0 1 -0.45,0.45h0a0.45,0.45 0 0 1 -0.45,-0.45v0a0.45,0.45 0 0 1 0.45,-0.45zM26.5,26.05h0a0.45,0.45 0 0 1 0.45,0.45v0a0.45,0.45 0 0 1 -0.45,0.45h0a0.45,0.45 0 0 1 -0.45,-0.45v0a0.45,0.45 0 0 1 0.45,-0.45zM27.5,26.05h0a0.45,0.45 0 0 1 0.45,0.45v0a0.45,0.45 0 0 1 -0.45,0.45h0a0.45,0.45 0 0 1 -0.45,-0.45v0a0.45,0.45 0 0 1 0.45,-0.45zM8.5,27.05h0a0.45,0.45 0 0 1 0.45,0.45v0a0.45,0.45 0 0 1 -0.45,0.45h0a0.45,0.45 0 0 1 -0.45,-0.45v0a0.45,0.45 0 0 1 0.45,-0.45zM11.5,27.05h0a0.45,0.45 0 0 1 0.45,0.45v0a0.45,0.45 0 0 1 -0.45,0.45h0a0.45,0.45 0 0 1 -0.45,-0.45v0a0.45,0.45 0 0 1 0.45,-0.45zM20.5,27.05h0a0.45,0.45 0 0 1 0.45,0.45v0a0.45,0.45 0 0 1 -0.45,0.45h0a0.45,0.45 0 0 1 -0.45,-0.45v0a0.45,0.45 0 0 1 0.45,-0.45zM21.5,27.05h0a0.45,0.45 0 0 1 0.45,0.45v0a0.45,0.45 0 0 1 -0.45,0.45h0a0.45,0.45 0 0 1 -0.45,-0.45v0a0.45,0.45 0 0 1 0.45,-0.45zM25.5,27.05h0a0.45,0.45 0 0 1 0.45,0.45v0a0.45,0.45 0 0 1 -0.45,0.45h0a0.45,0.45 0 0 1 -0.45,-0.45v0a0.45,0.45 0 0 1 0.45,-0.45zM27.5,27.05h0a0.45,0.45 0 0 1 0.45,0.45v0a0.45,0.45 0 0 1 -0.45,0.45h0a0.45,0.45 0 0 1 -0.45,-0.45v0a0.45,0.45 0 0 1 0.45,-0.45zM8.5,28.05h0a0.45,0.45 0 0 1 0.45,0.45v0a0.45,0.45 0 0 1 -0.45,0.45h0a0.45,0.45 0 0 1 -0.45,-0.45v0a0.45,0.45 0 0 1 0.45,-0.45zM10.5,28.05h0a0.45,0.45 0 0 1 0.45,0.45v0a0.45,0.45 0 0 1 -0.45,0.45h0a0.45,0.45 0 0 1 -0.45,-0.45v0a0.45,0.45 0 0 1 0.45,-0.45zM11.5,28.05h0a0.45,0.45 0 0 1 0.45,0.45v0a0.45,0.45 0 0 1 -0.45,0.45h0a0.45,0.45 0 0 1 -0.45,-0.45v0a0.45,0.45 0 0 1 0.45,-0.45zM12.5,28.05h0a0.45,0.45 0 0 1 0.45,0.45v0a0.45,0.45 0 0 1 -0.45,0.45h0a0.45,0.45 0 0 1 -0.45,-0.45v0a0.45,0.45 0 0 1 0.45,-0.45zM13.5,28.05h0a0.45,0.45 0 0 1 0.45,0.45v0a0.45,0.45 0 0 1 -0.45,0.45h0a0.45,0.45 0 0 1 -0.45,-0.45v0a0.45,0.45 0 0 1 0.45,-0.45zM15.5,28.05h0a0.45,0.45 0 0 1 0.45,0.45v0a0.45,0.45 0 0 1 -0.45,0.45h0a0.45,0.45 0 0 1 -0.45,-0.45v0a0.45,0.45 0 0 1 0.45,-0.45zM17.5,28.05h0a0.45,0.45 0 0 1 0.45,0.45v0a0.45,0.45 0 0 1 -0.45,0.45h0a0.45,0.45 0 0 1 -0.45,-0.45v0a0.45,0.45 0 0 1 0.45,-0.45zM19.5,28.05h0a0.45,0.45 0 0 1 0.45,0.45v0a0.45,0.45 0 0 1 -0.45,0.45h0a0.45,0.45 0 0 1 -0.45,-0.45v0a0.45,0.45 0 0 1 0.45,-0.45zM21.5,28.05h0a0.45,0.45 0 0 1 0.45,0.45v0a0.45,0.45 0 0 1 -0.45,0.45h0a0.45,0.45 0 0 1 -0.45,-0.45v0a0.45,0.45 0 0 1 0.45,-0.45zM22.5,28.05h0a0.45,0.45 0 0 1 0.45,0.45v0a0.45,0.45 0 0 1 -0.45,0.45h0a0.45,0.45 0 0 1 -0.45,-0.45v0a0.45,0.45 0 0 1 0.45,-0.45zM23.5,28.05h0a0.45,0.45 0 0 1 0.45,0.45v0a0.45,0.45 0 0 1 -0.45,0.45h0a0.45,0.45 0 0 1 -0.45,-0.45v0a0.45,0.45 0 0 1 0.45,-0.45zM26.5,28.05h0a0.45,0.45 0 0 1 0.45,0.45v0a0.45,0.45 0 0 1 -0.45,0.45h0a0.45,0.45 0 0 1 -0.45,-0.45v0a0.45,0.45 0 0 1 0.45,-0.45z">
    </path>
    <path id="qr squares"
        d="M1.75,0h3.5a1.75,1.75 0 0 1 1.75,1.75v3.5a1.75,1.75 0 0 1 -1.75,1.75h-3.5a1.75,1.75 0 0 1 -1.75,-1.75v-3.5a1.75,1.75 0 0 1 1.75,-1.75zM2.25,1h2.5a1.25,1.25 0 0 1 1.25,1.25v2.5a1.25,1.25 0 0 1 -1.25,1.25h-2.5a1.25,1.25 0 0 1 -1.25,-1.25v-2.5a1.25,1.25 0 0 1 1.25,-1.25zM2.75,2h1.5a0.75,0.75 0 0 1 0.75,0.75v1.5a0.75,0.75 0 0 1 -0.75,0.75h-1.5a0.75,0.75 0 0 1 -0.75,-0.75v-1.5a0.75,0.75 0 0 1 0.75,-0.75z M23.75,0h3.5a1.75,1.75 0 0 1 1.75,1.75v3.5a1.75,1.75 0 0 1 -1.75,1.75h-3.5a1.75,1.75 0 0 1 -1.75,-1.75v-3.5a1.75,1.75 0 0 1 1.75,-1.75zM24.25,1h2.5a1.25,1.25 0 0 1 1.25,1.25v2.5a1.25,1.25 0 0 1 -1.25,1.25h-2.5a1.25,1.25 0 0 1 -1.25,-1.25v-2.5a1.25,1.25 0 0 1 1.25,-1.25zM24.75,2h1.5a0.75,0.75 0 0 1 0.75,0.75v1.5a0.75,0.75 0 0 1 -0.75,0.75h-1.5a0.75,0.75 0 0 1 -0.75,-0.75v-1.5a0.75,0.75 0 0 1 0.75,-0.75z M1.75,22h3.5a1.75,1.75 0 0 1 1.75,1.75v3.5a1.75,1.75 0 0 1 -1.75,1.75h-3.5a1.75,1.75 0 0 1 -1.75,-1.75v-3.5a1.75,1.75 0 0 1 1.75,-1.75zM2.25,23h2.5a1.25,1.25 0 0 1 1.25,1.25v2.5a1.25,1.25 0 0 1 -1.25,1.25h-2.5a1.25,1.25 0 0 1 -1.25,-1.25v-2.5a1.25,1.25 0 0 1 1.25,-1.25zM2.75,24h1.5a0.75,0.75 0 0 1 0.75,0.75v1.5a0.75,0.75 0 0 1 -0.75,0.75h-1.5a0.75,0.75 0 0 1 -0.75,-0.75v-1.5a0.75,0.75 0 0 1 0.75,-0.75z"
        fill-rule="evenodd" fill-opacity="1" fill="rgb(0, 0, 0)"></path>
</svg>